<svg width="277" height="182" viewBox="0 0 277 182" fill="none" xmlns="http://www.w3.org/2000/svg">
<path d="M139.566 16.9798C132.59 17.4411 128.259 21.1311 126.37 27.4083L125.678 27.2137C126.529 23.4157 126.918 20.4392 126.817 18.4717L117.318 19.1059L120.475 66.4701L129.873 65.8431L129.231 56.2002C128.986 52.4814 128.302 49.4977 126.86 45.4834L127.487 45.1663C130.183 51.1048 135.004 54.2471 142.009 53.7786C151.703 53.13 156.395 46.6726 155.609 34.8315L155.551 33.9883C154.766 22.1833 149.245 16.3312 139.559 16.9726L139.566 16.9798ZM136.417 23.3076C142.233 22.9184 145.555 26.6084 146.067 34.2838L146.168 35.8405C146.68 43.5519 143.876 47.6815 138.06 48.0707C132.021 48.4743 128.446 44.5681 127.934 36.8855L127.855 35.6675C127.343 28.0209 130.37 23.7112 136.41 23.3076H136.417Z" fill="white"/>
<path d="M169.37 11.4232L168.894 4.31714L158.812 4.98739L159.287 12.0935L169.37 11.4232ZM171.662 51.1697L169.298 15.6465L159.9 16.2735L162.264 51.7967L171.662 51.1697Z" fill="white"/>
<path d="M187.555 50.1084L186.453 33.5972C185.919 25.6119 189.177 20.4013 195.115 20.0049C199.54 19.7094 201.897 22.0012 202.207 26.5993L203.699 49.0274L213.097 48.4004L211.446 23.6012C210.949 16.1564 206.524 12.5096 198.769 13.0285C191.728 13.497 187.195 17.0645 184.737 24.0192L184.067 23.7597C185.09 19.6445 185.386 17.2158 185.206 14.578L175.772 15.2051L178.136 50.7282L187.534 50.1012L187.555 50.1084Z" fill="white"/>
<path d="M228.841 47.3642L228.026 35.1196L232.249 29.808L242.022 46.485L251.809 45.8363L238.541 23.9488L248.991 10.342L238.815 11.0195L226.974 26.6226L226.405 26.3559C226.916 22.3128 226.988 19.4876 226.693 15.0554L225.691 0L216.293 0.627008L219.45 47.9912L228.848 47.3642H228.841Z" fill="white"/>
<path d="M154.114 95.8533C161.091 96.3362 165.876 93.266 168.593 87.2986L169.256 87.5797C167.901 91.2264 167.116 94.1308 166.95 96.0839L176.449 96.7397L179.721 49.3828L170.323 48.7341L169.66 58.377C169.4 62.0958 169.681 65.1444 170.561 69.3172L169.898 69.5406C168.024 63.2922 163.678 59.523 156.666 59.0401C146.979 58.3698 141.452 64.1426 140.63 75.9837L140.572 76.8269C139.758 88.6319 144.435 95.1758 154.122 95.8461L154.114 95.8533ZM158.085 90.0084C152.269 89.6049 149.502 85.5041 150.035 77.8287L150.143 76.272C150.677 68.5605 153.985 64.8417 159.793 65.2453C165.869 65.6633 168.845 70.0163 168.312 77.6917L168.226 78.9097C167.699 86.5563 164.154 90.4192 158.078 90.0012L158.085 90.0084Z" fill="white"/>
<path d="M200.579 99.2632C212.304 100.07 219.677 94.3265 220.499 82.4205L220.564 81.4764C221.385 69.5705 214.87 62.868 203.144 62.0536C191.354 61.2393 184.017 66.9904 183.195 78.8963L183.13 79.8404C182.309 91.7464 188.788 98.4488 200.579 99.2632ZM201.011 93.0364C195.296 92.64 192.182 88.8275 192.723 81.008L192.86 79.0477C193.4 71.2353 197.004 67.8769 202.719 68.2733C208.405 68.6624 211.519 72.4821 210.978 80.2945L210.841 82.2548C210.301 90.0671 206.697 93.4256 201.011 93.0292V93.0364Z" fill="white"/>
<path d="M239.626 92.1314C232.512 90.8558 230.855 89.9261 230.97 88.2685C231.057 87.0505 232.066 86.474 234.48 86.3659C236.476 87.0145 238.854 87.4181 241.535 87.5983C252.195 88.3334 258.09 84.7299 258.602 77.3211C258.948 72.3123 256.634 68.7232 251.813 66.6548C251.726 63.6927 253.506 63.3036 260.547 63.2459L260.079 55.4335C251.654 55.2606 247.87 59.3181 248.699 65.6242C247.042 65.2062 245.175 64.9395 243.107 64.7954C232.419 64.0603 226.459 67.6566 225.947 75.0653C225.666 79.1229 227.136 82.2507 230.3 84.4056L230.257 85.047C226.019 85.3641 223.85 87.1514 223.633 90.2288C223.417 93.3062 225.233 95.2304 228.412 96.7079L228.368 97.3132C223.518 97.9979 221.478 100.239 221.241 103.72C220.815 109.875 225.997 112.851 239.272 113.767C253.225 114.732 259.005 111.835 259.538 104.117C260.057 96.5709 253.831 94.6106 246.746 93.3783L239.633 92.1026L239.626 92.1314ZM242.746 69.9844C247.46 70.3087 249.55 72.4564 249.261 76.6869C248.966 80.9462 246.602 82.7552 241.889 82.4309C237.11 82.0993 234.984 79.9805 235.28 75.7212C235.575 71.4907 237.968 69.6529 242.753 69.9844H242.746ZM240.188 107.944C231.561 107.345 228.332 105.731 228.577 102.214C228.707 100.283 229.839 98.9709 232.88 98.1925C233.838 98.4303 234.862 98.6321 235.95 98.8123L243.135 99.987C250.357 101.162 252.065 102.236 251.906 104.535C251.705 107.41 248.548 108.52 240.181 107.936L240.188 107.944Z" fill="white"/>
<path d="M145.095 112.667C135.012 113.272 127.287 122.684 127.834 133.675C128.382 144.666 136.994 153.083 147.077 152.478L249.863 146.503C259.945 145.891 267.671 136.493 267.123 125.495C266.576 114.504 257.963 106.087 247.881 106.692L145.095 112.667Z" fill="white"/>
<path d="M136.497 135.745L141.513 135.125C140.288 139.68 142.248 141.965 145.426 141.85C147.646 141.77 149.21 140.797 149.181 138.823C149.174 137.36 148.424 136.307 146.161 134.585L143.92 132.884C141.686 131.162 140.295 129.49 140.316 127.09C140.324 123.011 143.336 120.25 149.167 120.034C155.386 119.803 159.019 122.874 157.577 128.488L152.54 129.014C153.729 125.173 152.049 123.241 149.123 123.349C146.723 123.436 145.599 124.531 145.563 126.203C145.563 127.464 146.075 128.272 148.381 129.922L150.687 131.58C152.972 133.259 154.615 135.075 154.586 138.008C154.557 142.109 151.343 145.021 145.469 145.237C138.587 145.489 134.551 142.066 136.49 135.752L136.497 135.745Z" fill="#450351"/>
<path d="M160.596 137.511L164.999 123.983L161.641 124.106L162.952 120.005L166.311 119.882L168.242 113.908L174.253 112.474L171.932 119.681L178.195 119.45L176.862 123.551L170.621 123.781L166.369 136.869C165.713 138.974 166.441 140.048 168.473 139.975C169.41 139.939 170.549 139.716 171.651 139.219L170.246 143.298C168.833 144.033 167.356 144.408 165.799 144.465C161.093 144.638 159.14 142.058 160.596 137.518V137.511Z" fill="#450351"/>
<path d="M200.932 118.604L193.084 142.928L187.664 143.13C187.887 141.724 188.867 139.814 190.748 136.809L190.352 136.55C186.914 141.458 184.298 143.663 180.594 143.8C176.385 143.951 174.461 141.299 176.061 136.37L181.567 119.318L187.167 119.109L181.704 136.016C180.904 138.496 181.596 139.8 183.628 139.721C186.669 139.605 190.006 135.137 191.793 129.645L195.311 118.806L200.932 118.597V118.604Z" fill="#450351"/>
<path d="M201.266 130.151L201.677 128.876C203.983 121.813 207.731 117.943 212.321 117.77C216.343 117.618 218.354 119.903 218.455 124.018L218.981 123.975C219.204 120.739 219.586 118.685 220.328 116.393L222.44 109.792L228.061 109.583L217.604 142.014L212.278 142.208C212.466 141.012 213.251 139.448 215.154 136.472L214.707 136.191C211.687 140.58 209.41 142.727 205.684 142.864C200.43 143.059 198.563 138.41 201.252 130.144L201.266 130.151ZM215.579 131.045L216.134 129.308C217.799 124.119 216.667 121.344 213.417 121.467C210.837 121.561 208.776 124.061 207.255 128.746L206.635 130.641C204.704 136.645 205.987 139.109 208.776 139.009C211.428 138.908 214.123 135.607 215.579 131.045Z" fill="#450351"/>
<path d="M222.548 141.842L230.396 117.518L236.017 117.309L228.169 141.633L222.548 141.842ZM231.131 114.563L232.673 109.792L238.727 109.569L237.185 114.34L231.131 114.563Z" fill="#450351"/>
<path d="M236.84 127.326L237.006 126.814C239.204 120.025 242.988 116.479 248.177 116.284C255.672 116.011 258.937 121.978 256.184 130.547L256.018 131.059C253.842 137.826 250.08 141.394 244.891 141.588C237.345 141.869 234.08 135.902 236.833 127.326H236.84ZM250.433 130.9L251.355 127.96C252.955 122.98 251.838 119.974 248.227 120.111C245.712 120.205 244.206 122.115 242.62 126.98L241.741 129.733C240.076 134.9 241.266 137.877 244.919 137.74C247.384 137.646 248.876 135.765 250.433 130.9Z" fill="#450351"/>
<path d="M33.6226 64.1587C30.9488 63.9569 28.4408 66.328 26.9057 70.0396C29.3345 69.9603 31.5398 71.6179 32.0731 74.0755C32.6713 76.8429 30.9128 79.5744 28.1453 80.1726C27.2156 80.3744 26.2859 80.3023 25.4427 80.0212C25.8895 85.7219 28.4696 90.1038 31.8857 90.356C35.9432 90.6659 39.6188 85.0445 40.1017 77.8087C40.5845 70.5729 37.6801 64.4614 33.6226 64.1515V64.1587Z" fill="white"/>
<path d="M80.878 65.5699C81.4762 68.3374 79.7177 71.0689 76.9502 71.667C76.6259 71.7391 76.3016 71.7751 75.9773 71.7824C78.7591 77.0579 83.0906 80.1713 86.3986 78.9389C90.211 77.5263 91.2056 70.8815 88.6255 64.1069C86.0382 57.3324 80.8492 52.9938 77.0295 54.4063C74.6007 55.3072 73.3179 58.3414 73.3755 62.1755C73.8008 61.9376 74.2764 61.7575 74.7737 61.6494C77.5412 61.0512 80.2726 62.8097 80.8708 65.5772L80.878 65.5699Z" fill="white"/>
<path d="M116.84 73.6258C115.32 69.1503 113.511 64.7756 111.428 60.5307C107.19 52.0697 101.778 44.243 95.3563 37.3027C94.7149 36.6108 94.0591 35.9405 93.396 35.2631C93.6699 35.1478 93.9438 35.0036 94.196 34.8523C94.8807 34.4415 95.4789 33.9082 95.9689 33.2812C96.4662 32.6397 96.8266 31.9118 97.0428 31.1335C97.2446 30.4272 97.3454 29.6921 97.3454 28.9642C97.3454 28.3012 97.2878 27.6381 97.1725 26.9823C96.6896 24.4959 95.6806 22.4275 94.5708 20.4888C93.4465 18.5934 92.1564 16.7916 90.7222 15.1124C89.3025 13.4476 87.7674 11.8909 86.117 10.4567C84.445 8.98648 82.6288 7.68922 80.6901 6.58655C79.6812 6.00999 78.629 5.51272 77.5407 5.10192C76.9714 4.88571 76.3876 4.70554 75.7966 4.5686C75.2056 4.43167 74.6002 4.32357 73.9948 4.2587C71.5661 3.97042 69.1085 4.24429 66.8095 5.07309C65.6996 5.46947 64.6258 5.96676 63.6096 6.55773C62.6295 7.14149 61.6853 7.79732 60.7989 8.51802C59.0764 9.92338 57.5197 11.5161 56.1576 13.2746C55.4801 14.1323 54.8387 15.0115 54.2478 15.9268C54.082 16.1862 53.9235 16.4529 53.7577 16.7196C50.6947 16.8853 47.6462 17.2961 44.6481 17.9519C44.2229 18.0384 43.7976 18.1465 43.3724 18.2474C40.7851 18.8456 38.2483 19.624 35.7763 20.5897C35.5168 20.4167 35.2502 20.2294 34.9835 20.0636C34.0683 19.4726 33.1169 18.9393 32.1512 18.4348C30.1837 17.397 28.1009 16.5898 25.9532 16.0277C24.8433 15.7394 23.719 15.5304 22.5803 15.4007C21.4056 15.2782 20.2236 15.271 19.0561 15.3719C16.6202 15.5664 14.2635 16.3304 12.1735 17.5988C11.6546 17.9159 11.1645 18.2691 10.6888 18.651C10.206 19.0258 9.75192 19.4294 9.31951 19.8618C8.49791 20.6834 7.74118 21.5698 7.06372 22.514C5.75205 24.3157 4.62777 26.2472 3.71248 28.2795C2.7972 30.2687 2.04045 32.3226 1.44227 34.4271C0.829677 36.5459 0.39726 38.7152 0.15943 40.9134C-0.128849 43.2412 -0.02795 45.6051 0.476538 47.9041C0.642298 48.5455 0.858503 49.1725 1.12516 49.7779C1.42785 50.4482 1.82426 51.068 2.29271 51.6301C2.81161 52.2499 3.44582 52.7616 4.15931 53.1436C4.86559 53.5111 5.62952 53.749 6.42229 53.8427C6.78984 53.8931 7.16462 53.9075 7.53938 53.8931C7.21507 54.7868 6.89796 55.6804 6.59527 56.5813C3.64041 65.5468 1.97559 74.8942 1.65128 84.3426C1.40624 93.7693 2.34315 103.196 4.44759 112.392C6.5304 121.502 9.3339 130.503 13.2401 139.079C15.1932 143.368 17.4345 147.526 19.9426 151.512C22.4506 155.533 25.2973 159.324 28.4468 162.863C31.6179 166.423 35.1709 169.623 39.0339 172.405C42.9256 175.194 47.1777 177.442 51.6604 179.1C56.1648 180.757 60.8926 181.723 65.678 181.954C70.4346 182.148 75.1984 181.723 79.8397 180.685C84.5098 179.741 89.0286 178.177 93.2879 176.037C97.5617 173.853 101.482 171.028 104.906 167.655C108.322 164.297 111.277 160.491 113.691 156.34C116.084 152.203 118.015 147.822 119.449 143.26C120.523 139.843 121.374 136.37 122.001 132.845C122.202 131.7 122.39 130.546 122.541 129.386C123.197 124.709 123.528 119.988 123.536 115.26C123.55 105.819 122.411 96.4431 120.516 87.2758C119.565 82.6561 118.332 78.1013 116.833 73.6258H116.84ZM55.6964 20.4672L56.0206 20.6401C56.2369 20.2942 56.5251 19.8618 56.799 19.4798C57.0657 19.0907 57.3684 18.6943 57.6494 18.3051C58.2404 17.5339 58.853 16.7772 59.4944 16.0565C60.1358 15.3358 60.8061 14.6656 61.5052 14.0025C62.1826 13.3539 62.9033 12.7485 63.6601 12.1936C65.0942 11.1125 66.687 10.2693 68.3806 9.69276C69.9806 9.15944 71.6814 9.0081 73.3462 9.25313C73.7642 9.31079 74.175 9.39007 74.5786 9.49097C74.9822 9.59186 75.3786 9.72159 75.7678 9.87293C76.6038 10.1972 77.4109 10.5864 78.1821 11.0333C79.8181 11.9918 81.3532 13.1017 82.7873 14.3485C85.7206 16.8493 88.2647 19.7825 90.3403 23.0401C91.3204 24.5319 92.0483 26.1823 92.5024 27.912C92.5817 28.2723 92.6321 28.6399 92.6537 29.0074C92.6609 29.3029 92.6393 29.6056 92.5744 29.8939C92.5312 30.1173 92.4375 30.3335 92.3006 30.5209C92.1708 30.7083 91.9979 30.8668 91.8033 30.9894C91.5366 31.1551 91.2483 31.292 90.9529 31.3929C90.5853 31.5083 90.2033 31.5875 89.8141 31.638C88.9421 31.7533 88.0557 31.7893 87.1764 31.7461C86.7152 31.7317 86.2395 31.6884 85.7638 31.6452L84.3224 31.465C83.8396 31.4218 83.3711 31.2993 82.8955 31.2344C82.4198 31.1695 81.9586 31.0398 81.4901 30.9317C79.6523 30.5137 77.8794 29.8362 76.229 28.921C75.811 28.6903 75.4435 28.4309 75.0543 28.1714C74.6723 27.8976 74.312 27.6093 73.966 27.2994C73.6489 27.0255 73.3534 26.73 73.0651 26.4201C73.0507 26.3985 73.0291 26.3841 73.0075 26.3697C73.0075 26.3192 73.0075 26.2688 72.9931 26.2183C72.885 25.7139 72.5102 25.3319 72.049 25.1805C71.8184 25.1085 71.5733 25.0869 71.3211 25.1373C70.5715 25.3031 70.0887 26.0382 70.24 26.7877C70.24 26.7949 70.24 26.8021 70.24 26.8093C70.2544 26.8814 70.2832 26.9535 70.3049 27.0183C70.3914 27.2417 70.5355 27.4363 70.7085 27.5877C71.0904 28.1858 71.5012 28.7552 71.9697 29.2885C72.3444 29.7137 72.7408 30.1245 73.1588 30.5137C73.3606 30.7083 73.6057 30.874 73.8075 31.0614C74.0093 31.2488 74.2543 31.429 74.4777 31.5875C76.3011 32.892 78.3118 33.9082 80.4379 34.5928C80.9568 34.7586 81.4829 34.946 82.0162 35.0685C82.5423 35.191 83.0756 35.364 83.609 35.4649L85.2089 35.7748C85.7566 35.8613 86.3044 35.9478 86.8665 35.9982C87.2413 36.0342 87.5944 36.0631 87.9619 36.0847C89.3673 37.4684 90.7294 38.8954 92.0555 40.38C98.0373 47.1041 103.053 54.6426 106.938 62.7721C108.877 66.8296 110.556 71.0169 111.954 75.2906C113.374 79.5715 114.534 83.939 115.428 88.3568C115.745 89.8271 116.033 91.3045 116.293 92.7891C116.199 93.726 116.076 94.6557 115.903 95.571C115.637 97.034 115.262 98.4682 114.794 99.8808C114.325 101.257 113.727 102.591 113.013 103.852C112.322 105.084 111.464 106.209 110.469 107.203C109.994 107.679 109.468 108.111 108.905 108.486C108.365 108.861 107.781 109.171 107.169 109.416C107.017 109.48 106.866 109.531 106.707 109.581C106.549 109.617 106.405 109.689 106.246 109.718L105.77 109.819L105.237 109.906C104.531 110.043 103.825 110.129 103.104 110.165L102.03 110.237C101.662 110.252 101.309 110.216 100.956 110.216C100.596 110.216 100.221 110.216 99.8751 110.187L98.8013 110.064C95.9041 109.689 93.0789 108.875 90.4268 107.643C87.7169 106.403 85.1513 104.875 82.7657 103.088C80.3514 101.286 78.074 99.3114 75.9624 97.1638C73.8435 94.9945 71.8472 92.7099 69.9878 90.3171C68.1139 87.9172 66.4059 85.3948 64.7771 82.8147C63.1484 80.2418 61.6998 77.5464 60.28 74.8366C57.5125 69.3737 55.2063 63.6874 53.3829 57.8353C49.7362 46.0807 47.9416 33.8289 48.057 21.5194L48.0354 21.3104V21.1302C50.5578 20.6978 53.1235 20.4744 55.6964 20.46V20.4672ZM66.7158 167.915C63.5592 169.796 59.2998 169.212 58.1611 167.252C57.0224 165.291 59.2926 162.048 62.4493 160.167C65.6059 158.293 69.5842 157.573 70.7301 159.547C71.8688 161.522 69.8797 166.041 66.7158 167.922V167.915ZM117.121 132.838C116.595 135.894 115.918 138.914 115.031 141.876C113.792 146.142 112.084 150.258 109.95 154.149C107.918 157.818 105.417 161.19 102.534 164.217C102.578 163.468 102.52 162.711 102.354 161.947C100.61 153.875 87.6521 148.975 73.6417 152.002C59.6241 155.036 49.8587 164.83 51.61 172.923C51.783 173.731 52.0713 174.48 52.446 175.165C48.5254 173.601 44.821 171.54 41.4194 169.032C37.8375 166.38 34.5583 163.338 31.6395 159.973C25.7658 153.234 21.1173 145.371 17.4273 137.141C13.7374 128.91 11.042 120.176 9.06004 111.304L8.69969 109.639L8.37537 107.974L8.04386 106.309C7.92134 105.762 7.80604 105.207 7.74118 104.645L7.22227 101.301C7.07093 100.183 6.95562 99.0592 6.81869 97.9349C6.34303 93.4522 6.15564 88.9406 6.25654 84.429C6.47996 75.4203 7.95739 66.4909 10.6456 57.893C11.2294 56.0408 11.8708 54.203 12.5843 52.3868C12.9158 52.2139 13.2473 52.0337 13.5716 51.8463C14.0617 51.5653 14.5229 51.2698 14.9842 50.9599L16.3103 50.0158C16.7571 49.7059 17.1679 49.3383 17.5931 48.9996C18.0183 48.6609 18.4291 48.2861 18.8327 47.9113C20.4903 46.4051 21.9101 44.6466 23.0344 42.7079C23.1857 42.4701 23.2938 42.2034 23.4307 41.9512C23.5677 41.6989 23.6902 41.4467 23.7983 41.1872C24.0145 40.6611 24.2091 40.1278 24.3749 39.5801C24.5911 38.881 24.7424 38.1675 24.8433 37.4468C24.9226 37.2522 24.9586 37.0432 24.9442 36.8342C24.9442 36.7838 24.937 36.7405 24.9298 36.6901C24.9298 36.6684 24.9298 36.6396 24.9226 36.618C24.7568 35.8613 24.0073 35.3784 23.2506 35.537C23.0055 35.5874 22.7965 35.7027 22.6236 35.8613C22.4362 36.027 22.2993 36.236 22.22 36.4667C22.1407 36.6973 22.1191 36.9567 22.1767 37.2162C22.1912 37.2738 22.2128 37.3243 22.2272 37.3747C22.2272 37.3964 22.2128 37.4108 22.2056 37.4324C22.0758 37.8288 21.9245 38.2179 21.7515 38.5999C21.5641 39.0251 21.3479 39.4431 21.1173 39.8467C20.8723 40.2431 20.6272 40.6395 20.3606 41.0143C19.2291 42.5277 17.8958 43.8754 16.3967 45.0213C16.0148 45.3168 15.6472 45.6123 15.2436 45.879C14.84 46.1456 14.4581 46.4195 14.0401 46.6789L12.8005 47.4573C12.3897 47.6879 11.9717 47.9257 11.5609 48.1347C10.7753 48.5383 9.9465 48.8771 9.10328 49.1365C8.73573 49.2518 8.35377 49.3311 7.96459 49.3815C7.64748 49.4104 7.33038 49.4104 7.02048 49.3671C6.78986 49.3383 6.57364 49.2662 6.37905 49.1437C6.18446 49.0284 6.01151 48.8699 5.87457 48.6825C5.70161 48.4446 5.55025 48.1852 5.43494 47.9113C5.30521 47.5654 5.19711 47.2122 5.11783 46.8519C4.81514 45.0934 4.79351 43.2917 5.06737 41.5259C5.6079 37.699 6.71056 33.9802 8.35375 30.4921C9.13931 28.7696 10.0834 27.1192 11.1717 25.5697C11.6906 24.8418 12.2672 24.1572 12.8942 23.5157C13.1824 23.2202 13.4923 22.9392 13.8166 22.6797C14.141 22.4203 14.4869 22.1752 14.84 21.9518C16.2526 21.0365 17.867 20.4744 19.539 20.3014C21.3191 20.1285 23.1208 20.2366 24.8721 20.6257C25.7874 20.8203 26.6955 21.0726 27.582 21.3825C28.4828 21.678 29.3765 22.0311 30.2557 22.4203C31.135 22.8094 32.007 23.2491 32.8647 23.7031C33.2827 23.9337 33.7007 24.1716 34.1259 24.4166C34.5439 24.6616 34.9763 24.9355 35.315 25.1517L35.5096 24.8923C38.0537 23.7536 40.6842 22.8383 43.3796 22.132C44.0643 21.9518 44.749 21.7789 45.4336 21.6347C45.7868 21.5554 46.1039 21.4906 46.4354 21.4185L46.5291 21.3969C46.2408 27.5877 46.4858 34.0235 47.2426 40.1782C47.6101 43.2772 48.1002 46.369 48.72 49.4392C49.3326 52.5022 50.0749 55.5579 50.9758 58.5632C52.7271 64.5883 54.9829 70.4619 57.7143 76.1122C59.1053 78.9229 60.5971 81.6904 62.2475 84.3786C63.8979 87.0596 65.6492 89.6757 67.5662 92.1765C69.4833 94.6846 71.5373 97.0773 73.721 99.3475C75.9335 101.625 78.319 103.737 80.8487 105.654C83.3999 107.599 86.1602 109.264 89.0646 110.619C92.0267 112.003 95.1833 112.904 98.4193 113.3L99.6445 113.43C100.055 113.459 100.466 113.452 100.877 113.466C101.288 113.473 101.706 113.488 102.116 113.466L103.349 113.372C104.17 113.307 104.992 113.199 105.806 113.026L106.419 112.918L107.068 112.752C107.284 112.702 107.493 112.616 107.709 112.543C107.925 112.479 108.134 112.399 108.336 112.306C109.15 111.967 109.922 111.542 110.635 111.03C111.341 110.533 111.997 109.963 112.603 109.336C113.763 108.118 114.75 106.742 115.543 105.25C116.336 103.715 116.977 102.101 117.446 100.436C118.102 105.358 118.447 110.309 118.483 115.275C118.512 121.163 118.116 127.073 117.129 132.853L117.121 132.838ZM70.377 27.1985C70.377 27.1985 70.7012 27.7246 70.7949 27.8615C70.9175 28.0345 71.3571 28.539 71.3571 28.539L74.6723 27.8976C73.6345 27.1048 72.7841 25.7571 72.7841 25.7571L70.377 27.1985Z" fill="white"/>
<path d="M261.945 70.5347C261.945 69.5473 262.126 68.6248 262.493 67.7672C262.875 66.9095 263.38 66.16 264.014 65.5258C264.662 64.8844 265.412 64.3727 266.27 64.0051C267.127 63.6232 268.057 63.4358 269.044 63.4358C270.032 63.4358 270.954 63.6232 271.819 64.0051C272.677 64.3727 273.426 64.8772 274.06 65.5258C274.709 66.16 275.213 66.9023 275.581 67.7672C275.963 68.6248 276.15 69.5473 276.15 70.5347C276.15 71.522 275.963 72.4445 275.581 73.3021C275.213 74.1598 274.709 74.9165 274.06 75.5579C273.426 76.1921 272.684 76.6966 271.819 77.0786C270.961 77.4461 270.032 77.6263 269.044 77.6263C268.057 77.6263 267.134 77.4461 266.27 77.0786C265.412 76.6966 264.655 76.1921 264.014 75.5579C263.38 74.9165 262.875 74.1598 262.493 73.3021C262.126 72.4445 261.945 71.522 261.945 70.5347ZM272.1 68.9996C271.963 68.2789 271.624 67.7167 271.091 67.3131C270.572 66.8951 269.945 66.6861 269.21 66.6861C268.655 66.6861 268.151 66.7798 267.711 66.9672C267.279 67.1546 266.911 67.4212 266.608 67.7672C266.306 68.1059 266.068 68.5167 265.909 68.978C265.758 69.4464 265.679 69.9509 265.679 70.4986C265.679 71.0464 265.758 71.5364 265.924 72.0193C266.089 72.4877 266.32 72.8985 266.623 73.2517C266.94 73.6048 267.315 73.8931 267.74 74.1021C268.179 74.3039 268.684 74.4048 269.239 74.4048C270.01 74.4048 270.63 74.1814 271.098 73.7418C271.581 73.2877 271.905 72.6968 272.086 71.9761H272.806C272.741 72.4301 272.605 72.8481 272.388 73.2301C272.187 73.612 271.927 73.9291 271.61 74.1958C271.307 74.4625 270.947 74.6715 270.529 74.8228C270.125 74.9597 269.693 75.0318 269.239 75.0318C268.59 75.0318 268.006 74.9165 267.473 74.6931C266.94 74.4625 266.486 74.1526 266.104 73.7418C265.736 73.3382 265.455 72.8625 265.246 72.322C265.044 71.7671 264.944 71.1617 264.944 70.5202C264.944 69.8788 265.037 69.2806 265.232 68.7401C265.434 68.1852 265.722 67.7095 266.089 67.3203C266.457 66.9312 266.897 66.6213 267.416 66.4123C267.934 66.1817 268.525 66.0735 269.181 66.0735C269.635 66.0735 270.068 66.1384 270.471 66.2609C270.889 66.3906 271.257 66.578 271.574 66.8303C271.905 67.0825 272.172 67.3924 272.388 67.76C272.605 68.1275 272.741 68.5455 272.806 69.014H272.086L272.1 68.9996ZM269.066 64.07C268.158 64.07 267.307 64.2358 266.522 64.5601C265.736 64.8916 265.059 65.3456 264.489 65.9222C263.92 66.506 263.473 67.1834 263.142 67.969C262.825 68.7545 262.666 69.5977 262.666 70.513C262.666 71.4283 262.832 72.2571 263.156 73.0571C263.488 73.8427 263.935 74.5273 264.504 75.1255C265.073 75.7093 265.743 76.1705 266.515 76.5092C267.3 76.8408 268.151 76.9993 269.059 76.9993C269.967 76.9993 270.81 76.8263 271.581 76.4876C272.352 76.1489 273.023 75.6876 273.592 75.1039C274.161 74.5129 274.601 73.821 274.918 73.0355C275.25 72.2499 275.408 71.4139 275.408 70.513C275.408 69.6122 275.242 68.7545 274.918 67.969C274.601 67.1834 274.161 66.506 273.592 65.9366C273.037 65.3528 272.367 64.8988 271.581 64.5745C270.81 64.2358 269.967 64.0628 269.059 64.0628L269.066 64.07Z" fill="white"/>
</svg>
