<svg width="204" height="80" viewBox="0 0 204 80" fill="none" xmlns="http://www.w3.org/2000/svg">
<g clip-path="url(#clip0_1368_6954)">
<path d="M140.101 45.5775C141.823 44.6317 143.681 44.4797 145.594 44.6252C147.795 44.7922 149.993 45.0211 152.136 45.5561C153.892 45.9948 154.713 47.2937 154.43 48.9778C154.164 50.5613 152.82 51.6441 151.163 51.6013C150.702 51.5885 150.239 51.55 149.778 51.5221C148.025 50.9936 147.06 51.2975 146.485 52.5579C145.877 53.6471 146.316 54.6143 147.57 54.7448C148.445 54.8368 149.345 54.7727 150.228 54.7106C153.092 54.5052 154.139 56.155 153.969 58.6116C153.781 61.37 152.509 62.2045 149.62 61.6353C147.467 61.2758 146.968 61.4598 146.284 62.8679C145.877 63.6404 146.383 64.0769 146.925 64.4322C148.022 65.1512 149.253 65.4657 150.561 65.4764C151.592 65.485 152.625 65.4122 153.65 65.4807C155.583 65.6113 156.516 66.6662 156.507 68.5986C156.495 71.5045 155.341 72.8334 152.494 73.225C152.143 73.2742 151.791 73.3299 151.44 73.3834C151.047 73.3812 150.655 73.3663 150.265 73.377C147.418 73.4454 144.573 73.5567 141.726 73.5781C139.707 73.5931 138.316 72.3947 138.226 70.5887C138.076 67.6014 138.468 64.629 138.536 61.646C138.573 60.086 138.712 58.5282 138.774 56.9682C138.869 54.5908 139.057 52.2091 138.967 49.838C138.907 48.246 138.987 46.8079 140.099 45.5818L140.101 45.5775Z" fill="#A8A8A8"/>
<path d="M141.69 73.7878C139.585 73.7878 138.11 72.5082 138.013 70.5951C137.919 68.7098 138.041 66.8053 138.157 64.9629C138.226 63.8715 138.298 62.7438 138.324 61.6353C138.346 60.7451 138.399 59.8421 138.453 58.969C138.494 58.3078 138.534 57.6251 138.562 56.9554C138.586 56.3476 138.616 55.7378 138.646 55.13C138.732 53.3946 138.822 51.597 138.755 49.8423C138.699 48.338 138.742 46.7566 139.943 45.4341L139.966 45.4085L139.998 45.3913C141.531 44.5504 143.313 44.2379 145.611 44.4113C147.72 44.5718 149.98 44.7964 152.19 45.3485C154.034 45.8086 154.951 47.1782 154.642 49.012C154.364 50.6748 152.981 51.8153 151.262 51.8153C151.227 51.8153 151.193 51.8153 151.159 51.8153C150.837 51.8068 150.514 51.7854 150.201 51.764C150.057 51.7533 149.911 51.7447 149.768 51.7361L149.718 51.7276C148.063 51.229 147.212 51.4858 146.683 52.6477C146.406 53.1442 146.357 53.6 146.537 53.9424C146.706 54.2698 147.084 54.4795 147.594 54.533C148.453 54.6229 149.349 54.5587 150.213 54.4966C151.553 54.4003 152.578 54.6956 153.258 55.374C153.971 56.0823 154.282 57.1779 154.184 58.6266C154.087 60.0411 153.718 60.9484 153.024 61.4813C152.284 62.0483 151.191 62.1639 149.579 61.8472C147.521 61.5048 147.116 61.6503 146.477 62.9642C146.172 63.5398 146.44 63.863 147.041 64.2546C148.046 64.9137 149.229 65.2518 150.561 65.2625C150.932 65.2646 151.311 65.2582 151.678 65.2496C152.327 65.2368 153 65.2218 153.663 65.2667C155.699 65.4037 156.728 66.525 156.72 68.5986C156.707 71.6265 155.491 73.0282 152.522 73.4369C152.284 73.469 152.048 73.5054 151.813 73.5417L151.455 73.5952H151.437C151.315 73.5952 151.191 73.5931 151.069 73.591C150.805 73.5867 150.535 73.5824 150.269 73.5888C149.356 73.6102 148.441 73.638 147.527 73.6637C145.626 73.7194 143.66 73.775 141.726 73.79C141.713 73.79 141.701 73.79 141.688 73.79L141.69 73.7878ZM140.236 45.7466C139.167 46.9449 139.128 48.3594 139.184 49.8252C139.25 51.5992 139.162 53.4053 139.075 55.1493C139.045 55.757 139.014 56.3647 138.991 56.9703C138.965 57.6465 138.922 58.3313 138.882 58.9947C138.828 59.8635 138.774 60.7622 138.753 61.6439C138.727 62.7609 138.654 63.8929 138.586 64.9886C138.47 66.8182 138.348 68.712 138.442 70.5716C138.528 72.2685 139.801 73.3577 141.69 73.3577C141.703 73.3577 141.716 73.3577 141.726 73.3577C143.656 73.3427 145.619 73.2871 147.519 73.2314C148.434 73.2058 149.347 73.178 150.263 73.1566C150.537 73.1501 150.812 73.1544 151.079 73.1587C151.195 73.1587 151.311 73.163 151.427 73.163L151.75 73.1138C151.988 73.0774 152.229 73.041 152.469 73.0068C155.21 72.6301 156.285 71.3933 156.295 68.5921C156.302 66.7604 155.433 65.8103 153.637 65.6883C152.994 65.6455 152.331 65.6583 151.688 65.6712C151.317 65.6776 150.936 65.6862 150.559 65.684C149.144 65.6733 147.881 65.3095 146.807 64.6055C146.402 64.3402 145.557 63.7859 146.095 62.7631C146.82 61.2737 147.418 61.0447 149.656 61.4192C151.142 61.7102 152.128 61.6203 152.762 61.1346C153.352 60.6831 153.669 59.8742 153.755 58.5924C153.845 57.2721 153.575 56.2899 152.955 55.6714C152.366 55.0851 151.455 54.8326 150.243 54.9182C149.36 54.9802 148.447 55.0466 147.549 54.9524C146.888 54.8839 146.393 54.5929 146.155 54.135C145.907 53.6578 145.958 53.0607 146.299 52.4487C146.914 51.1006 147.969 50.7539 149.817 51.306C149.954 51.3146 150.091 51.3231 150.228 51.3317C150.537 51.3531 150.857 51.3745 151.17 51.3831C152.715 51.4237 153.971 50.418 154.22 48.9393C154.49 47.3258 153.714 46.1681 152.087 45.7615C149.907 45.2159 147.671 44.9955 145.579 44.8371C143.386 44.6702 141.688 44.9612 140.236 45.7466Z" fill="white"/>
<path d="M82.5248 63.3194C83.3244 65.0955 85.0072 65.2731 86.6064 65.4379C87.9334 65.5748 89.2861 65.4571 90.6281 65.4528C91.432 65.7503 92.2209 66.0392 92.6582 66.8844C93.385 68.2882 92.9691 71.9303 90.9047 72.8013C89.6891 73.1929 88.4243 73.2892 87.1638 73.3919C84.4134 73.2699 81.6737 73.5438 78.9275 73.5845C75.7848 73.6316 74.5071 72.4139 74.5886 69.2983C74.6422 67.2375 74.908 65.1832 74.9488 63.1225C75.0431 58.3527 75.5276 53.5957 75.4054 48.8173C75.3754 47.6039 75.624 46.4848 76.5008 45.5753C79.412 44.0367 82.4669 44.623 85.4981 44.9933C86.5893 45.1259 87.6869 45.3078 88.7459 45.5967C90.4052 46.0525 91.1212 47.3022 90.8489 49.0398C90.626 50.4628 89.3419 51.5906 87.8562 51.5842C87.1145 51.5799 86.3749 51.4322 85.6353 51.3488C84.4734 51.2311 83.3823 51.2739 82.8742 52.5963C82.3854 53.8161 82.8227 54.6549 84.1004 54.7512C85.0158 54.8197 85.9462 54.7298 86.868 54.6891C89.1018 54.5907 90.2615 55.6243 90.4073 57.8562C90.4437 58.4254 90.4137 58.9839 90.2722 59.5446C89.8285 61.3164 88.6923 62.0846 86.8916 61.7851C86.3685 61.6973 85.8626 61.494 85.3159 61.5925C84.064 61.1987 83.2043 61.6502 82.6598 62.9855C82.6148 63.0797 82.5676 63.1717 82.5226 63.2637L82.5205 63.3108L82.5248 63.3194Z" fill="#A8A8A8"/>
<path d="M78.7558 73.8028C77.1566 73.8028 76.0783 73.4668 75.3709 72.7542C74.6484 72.0266 74.3333 70.9267 74.3762 69.2961C74.4019 68.2925 74.4791 67.2739 74.5541 66.2896C74.6334 65.2517 74.7149 64.1753 74.7363 63.1225C74.7727 61.2522 74.8714 59.352 74.9657 57.516C75.1136 54.6699 75.2658 51.7254 75.1908 48.828C75.1543 47.3643 75.5209 46.2858 76.3463 45.4319L76.3998 45.3913C79.1053 43.9618 81.9479 44.3278 84.6961 44.6808C84.9727 44.7172 85.2471 44.7515 85.5236 44.7857C86.8206 44.944 87.8625 45.1388 88.8014 45.3956C90.5293 45.8685 91.3525 47.2123 91.0609 49.0783C90.8165 50.6405 89.4424 51.8046 87.856 51.8024C87.3308 51.8003 86.8056 51.7254 86.2975 51.6548C86.0703 51.6227 85.8409 51.5906 85.6137 51.5649C84.3274 51.4344 83.4999 51.5735 83.0776 52.6776C82.8504 53.2447 82.8354 53.7112 83.0369 54.0322C83.2212 54.3254 83.5943 54.503 84.1195 54.5436C84.8033 54.595 85.5129 54.5543 86.1989 54.5158C86.4197 54.503 86.6405 54.4901 86.8613 54.4816C89.2066 54.3789 90.4714 55.5109 90.6236 57.8476C90.6643 58.4875 90.6193 59.061 90.4843 59.6024C90.0126 61.4876 88.7585 62.3179 86.8613 62.0012C86.7113 61.9755 86.5612 61.9413 86.4133 61.907C86.051 61.8236 85.7101 61.7444 85.3586 61.8086L85.3071 61.8172L85.2557 61.8022C84.1066 61.4405 83.367 61.8321 82.8632 63.0733C82.8247 63.1546 82.7882 63.2295 82.7518 63.3001C83.5149 64.905 85.097 65.0677 86.6277 65.2239C87.5323 65.3159 88.4734 65.2902 89.3824 65.2646C89.7897 65.2539 90.212 65.241 90.6257 65.2389H90.6643L90.7008 65.2517C91.5283 65.5577 92.3729 65.8701 92.8488 66.786C93.3311 67.7169 93.3204 69.4523 92.8231 70.8219C92.5508 71.5773 92.0085 72.568 90.988 72.9982C89.7618 73.394 88.497 73.4968 87.2772 73.5973L87.1679 73.6059H87.155C85.4357 73.5288 83.6864 73.6102 81.995 73.6893C80.9918 73.7364 79.9542 73.7835 78.9316 73.7985C78.8737 73.7985 78.8137 73.7985 78.758 73.7985L78.7558 73.8028ZM76.6314 45.7529C75.9068 46.5147 75.5852 47.4884 75.6195 48.8151C75.6946 51.7297 75.5402 54.6827 75.3923 57.5374C75.298 59.3691 75.1994 61.2651 75.1629 63.1289C75.1415 64.1967 75.06 65.2753 74.9807 66.3217C74.9057 67.2996 74.8285 68.3118 74.8028 69.3068C74.7642 70.8133 75.0407 71.8127 75.6731 72.4525C76.3184 73.103 77.3495 73.3962 78.923 73.3726C79.9392 73.3577 80.9725 73.3106 81.9736 73.2635C83.6693 73.1843 85.425 73.103 87.1593 73.18L87.2408 73.1736C88.437 73.0752 89.6761 72.9746 90.838 72.6001C91.6998 72.2342 92.1757 71.3526 92.4201 70.6785C92.8724 69.4309 92.8938 67.8068 92.4672 66.985C92.0749 66.2254 91.3546 65.9515 90.5893 65.669C90.1927 65.669 89.7875 65.6818 89.3952 65.6947C88.4713 65.7203 87.5173 65.7482 86.5826 65.6519C84.9877 65.4871 83.1805 65.3031 82.3273 63.4071L82.3059 63.3622V63.3108C82.3102 63.2552 82.3209 63.2124 82.3359 63.1781H82.3337C82.3788 63.0861 82.4259 62.992 82.4709 62.9C83.0412 61.4983 84.0059 60.9826 85.335 61.3806C85.7509 61.3186 86.1367 61.4063 86.5098 61.4919C86.6491 61.524 86.7906 61.5561 86.9321 61.5796C88.6213 61.86 89.6461 61.1795 90.0684 59.4975C90.1927 58.9989 90.2356 58.4682 90.197 57.8755C90.0598 55.7591 89.0072 54.8154 86.8806 54.9096C86.662 54.9181 86.4433 54.931 86.2225 54.9438C85.5215 54.9845 84.799 55.0251 84.0873 54.9716C83.4206 54.9203 82.9318 54.6763 82.6724 54.2612C82.398 53.8204 82.4002 53.219 82.6789 52.5236C83.2534 51.0256 84.5182 51.0256 85.6608 51.1412C85.8945 51.1669 86.126 51.199 86.3575 51.2311C86.8528 51.2996 87.363 51.3702 87.8603 51.3744H87.8732C89.2173 51.3744 90.4307 50.3387 90.6386 49.012C90.898 47.36 90.2056 46.2237 88.6899 45.8086C87.7724 45.5561 86.7499 45.3677 85.4722 45.2115C85.1956 45.1773 84.9191 45.1431 84.6426 45.1067C81.9714 44.7622 79.2082 44.4069 76.6314 45.7551V45.7529Z" fill="white"/>
<path d="M140.419 10.3012C140.483 10.2734 140.564 10.2605 140.612 10.2156C141.566 9.28901 142.633 8.73692 143.984 9.28259C145.388 9.84966 145.797 11.0245 145.984 12.4197C146.642 17.3736 147.006 22.3189 145.947 27.2642C145.754 28.1694 145.454 29.0446 145.062 29.8834C143.864 32.4513 143 32.8151 140.412 31.8521C137.128 29.1066 135.34 25.2848 133.119 21.5934C132.658 23.682 132.236 25.6058 131.811 27.5317C131.398 28.73 131.106 29.969 130.562 31.1224C129.335 33.7181 128.362 33.8872 126.463 31.8179C125.987 30.427 125.717 29.0039 125.777 27.5274C125.863 25.4667 125.942 23.4059 126.023 21.3452C126.094 19.5691 126.077 17.7844 126.251 16.0169C126.474 13.7507 126.814 11.4867 128.356 9.63567C130.898 7.97725 133.263 8.42449 135.209 10.9282C135.424 11.2042 135.644 11.4781 135.861 11.7542C137.192 14.0696 137.996 16.6631 139.673 19.1304C139.392 15.9484 138.77 13.0146 140.421 10.3012H140.419Z" fill="#A8A8A8"/>
<path d="M128.581 33.4485C127.946 33.4485 127.25 32.9906 126.304 31.9634L126.274 31.9313L126.259 31.8885C125.732 30.3499 125.505 28.9205 125.563 27.5189C125.638 25.7064 125.708 23.8939 125.779 22.0814L125.809 21.3367C125.83 20.7867 125.843 20.2346 125.856 19.6825C125.886 18.4735 125.916 17.2216 126.036 15.9955C126.257 13.7507 126.607 11.4011 128.189 9.49874L128.236 9.45594C130.883 7.72904 133.353 8.1934 135.374 10.7977C135.52 10.986 135.668 11.17 135.814 11.3562L136.041 11.6472C136.596 12.6123 137.051 13.6031 137.531 14.6495C138.078 15.8414 138.639 17.0676 139.37 18.2681C139.355 18.1225 139.34 17.9749 139.325 17.8294C139.042 15.131 138.777 12.5823 140.234 10.1878L140.271 10.13L140.333 10.1022C140.359 10.0915 140.389 10.0808 140.417 10.0722C140.434 10.0658 140.462 10.0573 140.47 10.053C141.22 9.32327 142.423 8.42023 144.063 9.08146C145.639 9.71701 146.025 11.1101 146.194 12.3876C146.822 17.1082 147.251 22.1819 146.155 27.3049C145.962 28.2058 145.66 29.1024 145.255 29.9712C144.005 32.6482 143.04 33.0569 140.337 32.0512L140.303 32.0383L140.275 32.0148C137.6 29.7786 135.945 26.9004 134.193 23.8553C133.874 23.3011 133.546 22.7319 133.211 22.167L132.013 27.6002C131.878 27.9896 131.754 28.3919 131.634 28.7814C131.385 29.5881 131.128 30.4227 130.755 31.2123C130.071 32.6632 129.479 33.3265 128.778 33.4335C128.712 33.4442 128.647 33.4485 128.581 33.4485ZM126.652 31.7066C127.558 32.6867 128.195 33.089 128.714 33.0098C129.25 32.9285 129.76 32.3187 130.369 31.0304C130.729 30.2686 130.982 29.449 131.226 28.6551C131.346 28.2657 131.471 27.8655 131.606 27.4718L133.027 21.02L133.304 21.48C133.737 22.1991 134.159 22.9309 134.566 23.6413C136.292 26.6415 137.923 29.4769 140.524 31.6617C142.985 32.5733 143.72 32.2523 144.869 29.7893C145.259 28.9526 145.553 28.0859 145.739 27.215C146.822 22.1541 146.395 17.1253 145.774 12.4432C145.613 11.2278 145.274 10.0294 143.907 9.47734C142.82 9.03866 141.849 9.31257 140.764 10.3654C140.699 10.4275 140.624 10.4553 140.564 10.4745C139.227 12.73 139.482 15.1866 139.754 17.7844C139.799 18.221 139.846 18.6618 139.885 19.109L139.958 19.9308L139.495 19.2481C138.502 17.7866 137.812 16.2822 137.145 14.8271C136.671 13.7935 136.225 12.8177 135.683 11.874L135.484 11.6215C135.336 11.4354 135.188 11.247 135.04 11.0587C133.181 8.66632 130.922 8.22978 128.502 9.79619C127.012 11.6023 126.688 13.7785 126.465 16.0361C126.345 17.2452 126.315 18.4885 126.287 19.6911C126.274 20.2453 126.261 20.7974 126.238 21.3517L126.208 22.0963C126.137 23.9088 126.066 25.7213 125.991 27.5338C125.936 28.8691 126.152 30.2322 126.652 31.7045V31.7066Z" fill="white"/>
<path d="M71.5314 31.8265C70.0651 32.905 68.766 32.293 67.4905 31.4328C64.5686 28.6766 62.7935 25.1115 60.6434 21.4844C60.2189 24.0073 59.728 26.2157 59.1578 28.4048C58.729 29.494 58.446 30.6367 57.8629 31.666C57.4342 32.4235 56.9776 33.2709 56.0215 33.2581C55.0482 33.2431 54.5058 32.4278 54.0642 31.6296C53.9099 31.3536 53.7705 31.069 53.6247 30.7886C53.2903 29.066 53.2539 27.3177 53.3911 25.5844C53.5004 24.202 53.5561 22.8197 53.5947 21.4351C53.644 19.6954 53.6462 17.9492 53.8113 16.2202C54.0213 13.9904 54.3536 11.7692 55.7085 9.86897C58.1202 8.02009 60.1181 8.17417 62.2898 10.3569C62.5599 10.6286 62.7228 11.016 63.1237 11.1508C64.5343 13.6801 65.5332 16.4256 67.1604 18.8523C66.9331 16.0811 66.4229 13.3313 67.7392 10.7014C67.9149 10.5281 68.0972 10.3611 68.2665 10.1814C69.1133 9.28906 70.108 8.81614 71.3449 9.2056C72.6419 9.61432 73.3258 10.5644 73.4823 11.8783C73.7395 14.0354 73.9582 16.1945 74.1918 18.3537C74.1704 20.0271 74.2283 21.7069 74.1125 23.3739C73.9067 26.3783 73.3965 29.3143 71.5314 31.8244V31.8265Z" fill="#A8A8A8"/>
<path d="M56.0451 33.4742C56.0451 33.4742 56.0279 33.4742 56.0172 33.4742C54.9217 33.4592 54.3365 32.569 53.8734 31.7345C53.7684 31.5462 53.6719 31.3557 53.5733 31.1631C53.5262 31.0711 53.479 30.9791 53.4318 30.8892L53.4104 30.8314C53.0974 29.2244 53.0202 27.5017 53.1724 25.5694C53.2903 24.0672 53.3439 22.5693 53.3761 21.4308C53.3868 21.0457 53.3954 20.6583 53.404 20.271C53.434 18.9357 53.464 17.5533 53.5926 16.2009C53.7984 14.0204 54.1178 11.7243 55.5284 9.74484L55.5734 9.69991C58.0688 7.78683 60.1846 7.94305 62.4377 10.2071C62.532 10.3012 62.6113 10.4039 62.6885 10.5045C62.8429 10.7057 62.9758 10.8769 63.1902 10.9496L63.2695 10.9753L63.3102 11.048C63.874 12.0581 64.3778 13.1173 64.8666 14.1402C65.4797 15.4284 66.1121 16.753 66.8688 17.9963C66.8602 17.915 66.8538 17.8337 66.8452 17.7545C66.618 15.3856 66.3822 12.9376 67.5484 10.6072L67.5634 10.5751L67.5891 10.5494C67.6449 10.4938 67.7027 10.4403 67.7585 10.3847C67.8785 10.2691 67.9964 10.1536 68.1122 10.0337C69.1305 8.96164 70.2088 8.62354 71.4114 9.0023C72.7341 9.41958 73.523 10.4061 73.6967 11.8548C73.8789 13.3784 74.0418 14.9277 74.2026 16.4278C74.2712 17.0633 74.3376 17.6967 74.4062 18.3323V18.3451V18.3579C74.3998 18.8779 74.3998 19.3979 74.4019 19.9179C74.4041 21.0564 74.4062 22.2333 74.3269 23.3889C74.1383 26.1279 73.6816 29.2886 71.7051 31.9527L71.6601 31.9977C70.0994 33.1468 68.676 32.4899 67.3726 31.6082L67.3447 31.5868C64.9073 29.2886 63.2781 26.4618 61.5545 23.4702C61.2908 23.0144 61.0271 22.5564 60.757 22.0964C60.3797 24.2363 59.936 26.2734 59.3679 28.4583L59.3593 28.4818C59.2221 28.8328 59.0956 29.1965 58.9756 29.5496C58.7204 30.2922 58.4546 31.0604 58.0516 31.7708L58.0194 31.8265C57.5821 32.599 57.0869 33.4721 56.0472 33.4721L56.0451 33.4742ZM53.8284 30.718C53.8713 30.8015 53.9142 30.8849 53.957 30.9684C54.0535 31.1567 54.1478 31.3429 54.2507 31.5269C54.6731 32.2887 55.1575 33.0334 56.0236 33.0462C56.8297 33.0569 57.2434 32.3251 57.6443 31.6189L57.6764 31.5633C58.0602 30.8871 58.3174 30.1381 58.5682 29.4127C58.6904 29.0596 58.8148 28.6958 58.9541 28.3406C59.5672 25.9781 60.0367 23.7869 60.4312 21.4501L60.5276 20.8723L60.8256 21.3752C61.1986 22.0065 61.5631 22.6356 61.9211 23.2583C63.6253 26.2157 65.2374 29.0104 67.6213 31.2637C69.0019 32.1924 70.1145 32.584 71.375 31.6724C73.27 29.1045 73.7117 26.0295 73.8939 23.361C73.9711 22.2205 73.9689 21.0499 73.9668 19.9201C73.9668 19.4022 73.9668 18.8844 73.9711 18.3665C73.9025 17.7352 73.836 17.104 73.7674 16.4748C73.6088 14.9769 73.4437 13.4276 73.2615 11.9061C73.1093 10.6179 72.4404 9.77908 71.2742 9.41102C70.2302 9.08147 69.3234 9.37464 68.4166 10.329C68.2987 10.4532 68.1744 10.573 68.05 10.6928C68.0029 10.7378 67.9557 10.7827 67.9085 10.8298C66.8152 13.0403 67.0339 15.3107 67.2633 17.7138C67.2997 18.0883 67.3362 18.4628 67.3662 18.8373L67.4348 19.659L66.976 18.9742C65.9856 17.4977 65.216 15.8842 64.4721 14.3242C63.9983 13.3292 63.5074 12.302 62.9672 11.3241C62.6778 11.2 62.4999 10.971 62.3434 10.7656C62.2726 10.6714 62.204 10.5837 62.129 10.5088C60.041 8.40954 58.1631 8.26189 55.8564 10.0188C54.523 11.9061 54.2164 14.1274 54.0171 16.2416C53.8906 17.579 53.8606 18.9528 53.8306 20.2817C53.822 20.669 53.8134 21.0564 53.8027 21.4437C53.7705 22.5864 53.7191 24.0907 53.599 25.6037C53.449 27.4846 53.524 29.1602 53.8241 30.7202L53.8284 30.718Z" fill="white"/>
<path d="M97.3209 50.2703C99.9684 48.2417 102.365 48.5605 104.468 51.2204C104.685 51.4943 104.918 51.7554 105.146 52.0207C106.41 54.3318 107.24 56.8719 108.841 59.2771C108.912 57.6594 108.573 56.3091 108.61 54.931C108.648 53.5272 108.831 52.1855 109.508 50.9379C109.71 50.7411 109.909 50.5442 110.113 50.3495C111.806 48.7296 114.162 49.2453 115.013 51.4194C115.088 51.612 115.172 51.8025 115.251 51.9929C115.489 54.7063 115.886 57.4047 115.965 60.1331C115.892 62.9214 115.699 65.6968 115.084 68.4274C114.662 69.4652 114.361 70.5587 113.68 71.4767C112.271 72.9939 112.006 73.0346 109.605 72.1123C106.447 69.3304 104.586 65.6134 102.399 61.8985C101.881 64.231 101.418 66.3217 100.952 68.4124C100.511 69.5722 100.211 70.7855 99.6232 71.8919C98.4678 74.0596 97.3123 74.1366 95.8545 72.1358C95.7924 72.0502 95.7088 71.9817 95.6337 71.9047C95.22 70.6079 95.0785 69.279 95.0914 67.9181C95.1192 64.582 95.3358 61.2523 95.4194 57.9183C95.4858 55.2691 95.8074 52.6006 97.3187 50.2703H97.3209Z" fill="#A8A8A8"/>
<path d="M97.7817 73.7942C97.1193 73.7942 96.4311 73.2913 95.6808 72.262C95.6487 72.2192 95.6036 72.1743 95.5565 72.1293C95.5308 72.1037 95.505 72.0801 95.4815 72.0545L95.4472 72.0181L95.4321 71.971C95.0463 70.762 94.8662 69.4374 94.8791 67.918C94.8962 65.9515 94.9777 63.9549 95.0591 62.0269C95.1149 60.6787 95.1728 59.2857 95.2071 57.9161C95.2692 55.4574 95.5479 52.6134 97.1407 50.1568L97.16 50.1269L97.19 50.1055C99.9426 47.9955 102.449 48.3272 104.637 51.092C104.785 51.2803 104.946 51.4643 105.1 51.6441C105.171 51.7254 105.24 51.8046 105.308 51.8859L105.334 51.9223C105.836 52.8381 106.277 53.8097 106.706 54.7469C107.278 56.0031 107.868 57.2977 108.635 58.556C108.623 57.976 108.567 57.4261 108.511 56.889C108.443 56.217 108.38 55.5836 108.398 54.931C108.432 53.6898 108.567 52.2347 109.321 50.8437L109.36 50.7924L109.553 50.6041C109.69 50.4693 109.827 50.3345 109.967 50.2018C110.829 49.3779 111.909 49.0355 112.932 49.2602C113.95 49.4849 114.784 50.2446 115.215 51.3466C115.266 51.4793 115.322 51.6098 115.378 51.7425L115.468 51.98C115.547 52.8831 115.646 53.799 115.74 54.687C115.931 56.4674 116.128 58.3077 116.181 60.1331C116.117 62.6132 115.961 65.5342 115.296 68.4808L115.285 68.5151C115.182 68.7654 115.088 69.0201 114.994 69.2726C114.696 70.0686 114.389 70.8925 113.855 71.6115L113.84 71.6286C112.37 73.2121 112.008 73.2699 109.529 72.3177L109.493 72.3048L109.465 72.2791C106.76 69.8953 105.025 66.8823 103.19 63.6939C102.959 63.2916 102.727 62.8893 102.491 62.4848L101.154 68.4958C101.01 68.8746 100.879 69.2662 100.751 69.6449C100.487 70.4303 100.215 71.2434 99.8118 71.9988C99.1923 73.1608 98.5577 73.7493 97.8717 73.7963C97.8417 73.7963 97.8117 73.7985 97.7817 73.7985V73.7942ZM95.8244 71.7912C95.8244 71.7912 95.8459 71.8105 95.8566 71.8212C95.9123 71.8747 95.9767 71.9368 96.0303 72.0095C96.7205 72.9575 97.3144 73.3983 97.8439 73.3641C98.3712 73.3277 98.8922 72.8141 99.4345 71.7934C99.8204 71.068 100.088 70.2719 100.346 69.5037C100.472 69.1249 100.603 68.7355 100.749 68.3524L102.309 61.3207L102.586 61.7893C102.916 62.3521 103.24 62.9128 103.561 63.4734C105.371 66.6191 107.081 69.5914 109.718 71.9261C111.999 72.8013 112.188 72.7692 113.517 71.3397C114.01 70.6699 114.293 69.9146 114.591 69.1142C114.685 68.8617 114.779 68.6114 114.88 68.361C115.534 65.4571 115.688 62.5683 115.753 60.1266C115.701 58.3291 115.504 56.4974 115.313 54.7255C115.219 53.8482 115.122 52.9409 115.043 52.0442L114.983 51.903C114.925 51.7682 114.867 51.6334 114.814 51.4964C114.434 50.5292 113.714 49.8637 112.837 49.6711C111.956 49.4764 111.017 49.7802 110.26 50.5035C110.123 50.634 109.986 50.7689 109.851 50.9015L109.682 51.0684C108.985 52.3716 108.856 53.754 108.826 54.9352C108.809 55.5601 108.871 56.1828 108.938 56.8398C109.015 57.608 109.094 58.404 109.058 59.2857L109.03 59.9405L108.665 59.3948C107.684 57.9204 106.989 56.3947 106.318 54.9203C105.876 53.953 105.461 53.0393 104.972 52.1427C104.907 52.0678 104.843 51.9929 104.779 51.9201C104.62 51.7382 104.457 51.5478 104.303 51.353C102.269 48.783 100.037 48.477 97.4837 50.4179C95.9659 52.7782 95.698 55.5366 95.6379 57.9247C95.6036 59.2985 95.5458 60.6937 95.49 62.0419C95.4107 63.9678 95.3271 65.96 95.31 67.9202C95.2971 69.3732 95.4664 70.64 95.8266 71.7912H95.8244Z" fill="white"/>
<path d="M109.111 27.4504C108.708 28.2207 108.661 29.0853 108.5 29.9134C107.964 32.646 106.828 33.4827 104.035 33.1468C103.788 33.1168 103.542 33.0933 103.295 33.0676C101.074 32.1068 100.849 30.7137 100.965 28.8734C101.002 28.2742 101.137 27.6751 101.282 27.0909C102.571 21.9465 103.945 16.8279 105.647 11.8013C106.29 9.90103 107.281 8.25331 108.897 7.01858C109.909 6.68048 110.901 6.29958 111.99 6.22468C113.765 6.1027 115.112 6.77891 116.081 8.24047C116.816 9.34894 117.234 10.5986 117.663 11.8441C118.893 15.4091 120.137 18.9678 121.382 22.5265C121.451 22.719 121.584 22.8881 121.689 23.07C122.229 24.6878 122.773 26.3034 123.305 27.9254C124.006 30.061 123.762 30.9213 122.077 32.3293C120.975 32.8964 119.877 32.9906 118.79 32.2951C117.766 31.1331 117.476 29.6502 117.03 28.24C116.722 27.2663 116.196 26.757 115.071 26.6607C113.618 26.5366 112.168 26.5644 110.719 26.4981C109.95 26.4639 109.416 26.7335 109.118 27.4482L109.111 27.4504ZM112.7 17.6946L112.481 17.716C112.248 18.4906 112.012 19.2652 111.78 20.0399C111.703 20.301 111.474 20.6883 111.763 20.8081C112.258 21.0114 112.792 20.7439 113.29 20.607C113.658 20.5042 113.538 20.1726 113.442 19.8922C113.189 19.1604 112.947 18.4264 112.7 17.6946Z" fill="#A8A8A8"/>
<path d="M105.1 33.4314C104.766 33.4314 104.402 33.4057 104.007 33.3586C103.836 33.3372 103.666 33.3201 103.495 33.303L103.21 33.2645C100.751 32.2031 100.644 30.5746 100.749 28.8606C100.787 28.24 100.927 27.6194 101.072 27.0395C102.215 22.4772 103.628 17.0911 105.441 11.7349C106.162 9.60572 107.249 8.00935 108.764 6.85167L108.792 6.83027L108.826 6.81957C108.953 6.77677 109.081 6.73397 109.208 6.69117C110.085 6.39159 110.994 6.08344 111.973 6.0171C113.804 5.89085 115.245 6.6013 116.257 8.12919C116.981 9.22482 117.408 10.4617 117.819 11.6579L117.862 11.782C119.106 15.3835 120.383 19.0448 121.579 22.4644C121.618 22.5735 121.687 22.6805 121.76 22.7939C121.798 22.8538 121.835 22.9116 121.869 22.9715L121.886 23.0101L122.377 24.4802C122.754 25.6079 123.132 26.7356 123.502 27.8655C124.229 30.0803 123.963 31.0326 122.208 32.5005L122.169 32.5262C120.891 33.1832 119.744 33.1703 118.668 32.4813L118.623 32.4427C117.749 31.4498 117.391 30.2322 117.045 29.0574C116.973 28.8071 116.9 28.5588 116.82 28.3106C116.522 27.3648 116.025 26.9646 115.045 26.8811C114.154 26.8041 113.245 26.7848 112.366 26.7677C111.821 26.757 111.255 26.7442 110.7 26.7185C109.986 26.6843 109.555 26.9389 109.307 27.536L109.298 27.5531C109.011 28.1009 108.914 28.6979 108.813 29.3292C108.779 29.5389 108.747 29.7486 108.706 29.9562C108.22 32.432 107.236 33.4335 105.098 33.4335L105.1 33.4314ZM103.349 32.8579L103.538 32.8771C103.711 32.8943 103.885 32.9114 104.059 32.9328C106.743 33.2559 107.769 32.5112 108.288 29.8706C108.329 29.6673 108.361 29.4619 108.393 29.2586C108.494 28.623 108.599 27.9682 108.916 27.3583C109.238 26.5965 109.827 26.2456 110.721 26.2863C111.272 26.3119 111.834 26.3226 112.376 26.3355C113.262 26.3547 114.177 26.374 115.082 26.451C116.235 26.5495 116.876 27.0673 117.228 28.1801C117.307 28.4304 117.38 28.6829 117.455 28.9333C117.8 30.1081 118.126 31.2166 118.923 32.1346C119.847 32.7145 120.838 32.7209 121.95 32.1539C123.55 30.8143 123.764 30.0311 123.095 27.996C122.724 26.8662 122.347 25.7406 121.97 24.6128L121.485 23.162C121.457 23.1149 121.427 23.0678 121.397 23.0208C121.314 22.8924 121.228 22.7576 121.174 22.6013C119.978 19.1796 118.698 15.5183 117.455 11.9168L117.412 11.7927C117.009 10.6222 116.591 9.41099 115.896 8.3603C114.964 6.95224 113.69 6.32311 111.999 6.43866C111.075 6.50286 110.235 6.78747 109.343 7.09133C109.227 7.13199 109.109 7.17051 108.994 7.20903C107.564 8.31108 106.533 9.83469 105.844 11.8676C104.035 17.2109 102.627 22.5864 101.484 27.1401C101.345 27.7007 101.21 28.2978 101.173 28.8841C101.055 30.7907 101.366 31.9912 103.345 32.8557L103.349 32.8579ZM112.156 21.097C111.999 21.097 111.84 21.0713 111.684 21.0071C111.259 20.8338 111.431 20.378 111.523 20.134C111.542 20.0805 111.564 20.0292 111.577 19.98C111.748 19.4043 111.922 18.8287 112.098 18.2531L112.321 17.5191L112.852 17.4656L113.114 18.2445C113.29 18.7709 113.468 19.2995 113.648 19.8237C113.727 20.0527 113.821 20.3245 113.701 20.5535C113.635 20.6797 113.517 20.7674 113.352 20.8145C113.253 20.8423 113.155 20.8744 113.054 20.9065C112.775 20.9986 112.471 21.097 112.16 21.097H112.156ZM112.599 18.069L112.507 18.3772C112.333 18.9528 112.16 19.5284 111.988 20.1041C111.971 20.1597 111.948 20.2218 111.924 20.286C111.89 20.3758 111.821 20.562 111.838 20.6134C112.168 20.746 112.531 20.6262 112.914 20.5021C113.022 20.4679 113.127 20.4336 113.232 20.4037C113.253 20.3972 113.305 20.3823 113.317 20.3566C113.352 20.2902 113.283 20.0934 113.242 19.9735C113.056 19.4364 112.88 18.9079 112.704 18.3793L112.599 18.069Z" fill="white"/>
<path d="M84.1776 7.07635C85.2023 6.66549 86.2292 6.29743 87.3546 6.22681C89.0825 6.11768 90.4009 6.77463 91.3613 8.1891C92.1095 9.29115 92.5339 10.5366 92.967 11.7799C94.414 15.942 95.8632 20.1041 97.3188 24.264C97.3638 24.3946 97.4624 24.5059 97.5353 24.6257C97.8847 25.6657 98.2427 26.7057 98.5836 27.7478C99.396 30.2365 99.0616 31.1716 96.8771 32.5733C95.7817 33.0291 94.8041 32.7766 93.9016 32.0768C93.0827 30.9234 92.8019 29.5517 92.326 28.2571C92.0773 27.5788 91.8694 26.8234 90.9154 26.7207C89.2518 26.5388 87.5883 26.496 85.9183 26.5045C85.1937 26.5088 84.6857 26.7634 84.4477 27.4696C83.9932 28.2271 83.9825 29.1045 83.826 29.9348C83.3137 32.6653 81.8345 33.6775 79.1012 33.1061C78.8247 33.0483 78.546 33.0034 78.2694 32.9542C76.5137 31.7944 75.922 30.4377 76.3722 28.3063C77.577 22.5906 79.2406 17.0012 81.0842 11.4653C81.663 9.72555 82.6405 8.18482 84.1776 7.07849V7.07635ZM87.9506 17.442C87.6033 18.4649 87.316 19.2567 87.0738 20.0591C86.9988 20.3095 86.7158 20.7054 86.9838 20.8274C87.5197 21.0713 88.0792 20.7225 88.6216 20.6155C88.9474 20.5513 88.8595 20.256 88.7738 20.0014C88.5144 19.2331 88.2743 18.4563 87.9484 17.442H87.9506Z" fill="#A8A8A8"/>
<path d="M80.4516 33.4742C80.0271 33.4742 79.5619 33.4207 79.0582 33.3159C78.8695 33.2773 78.6809 33.2431 78.4922 33.211L78.1899 33.1575L78.1535 33.134C76.2992 31.9078 75.7032 30.4527 76.1641 28.2636C77.221 23.254 78.7194 17.8936 80.8825 11.399C81.5235 9.47308 82.5911 7.96017 84.0531 6.9052L84.0981 6.87952C85.0885 6.48363 86.154 6.08989 87.3416 6.015C89.123 5.90372 90.5358 6.59491 91.539 8.07144C92.2851 9.16921 92.7202 10.4146 93.1383 11.6215L93.1704 11.7114C94.6175 15.8735 96.0666 20.0356 97.5201 24.1956C97.5415 24.2555 97.5865 24.3219 97.6359 24.3903C97.6637 24.431 97.6937 24.4716 97.7195 24.5144L97.7409 24.5572C97.8524 24.8889 97.966 25.2206 98.0775 25.5544C98.3176 26.2627 98.5577 26.9711 98.7892 27.6815C99.6295 30.2558 99.2608 31.2979 96.9949 32.7531L96.9606 32.7702C95.8758 33.2217 94.804 33.0441 93.7707 32.2459L93.7278 32.201C93.1061 31.3279 92.7846 30.3286 92.4759 29.3656C92.3665 29.0254 92.2529 28.6723 92.1286 28.332L92.0793 28.1972C91.8499 27.5638 91.6527 27.016 90.8959 26.9325C89.4489 26.7742 87.9161 26.7078 85.9224 26.7185C85.2257 26.7228 84.8463 26.9668 84.6533 27.5381L84.634 27.5788C84.3146 28.1138 84.2289 28.7108 84.1388 29.3421C84.1088 29.5539 84.0788 29.7658 84.0402 29.9733C83.7701 31.4178 83.2363 32.3893 82.411 32.9414C81.8793 33.2966 81.2319 33.4742 80.4559 33.4742H80.4516ZM78.3507 32.7509L78.5651 32.7894C78.758 32.8237 78.9531 32.8579 79.1461 32.8986C80.458 33.1725 81.4463 33.0698 82.1687 32.5883C82.8933 32.1025 83.3671 31.223 83.6158 29.8963C83.6544 29.6951 83.6822 29.4897 83.7122 29.2843C83.8023 28.6445 83.8966 27.9832 84.2525 27.3819C84.5054 26.6543 85.0521 26.297 85.9181 26.2927C87.9268 26.282 89.4768 26.3505 90.9409 26.5088C91.9656 26.6201 92.2508 27.414 92.4823 28.0538L92.5295 28.1865C92.6581 28.5332 92.7717 28.8905 92.8832 29.2351C93.194 30.2023 93.4899 31.116 94.0601 31.9292C94.9605 32.6161 95.8501 32.7638 96.7805 32.385C98.8835 31.0326 99.1665 30.2173 98.384 27.8163C98.1525 27.1059 97.9124 26.3997 97.6744 25.6935C97.5651 25.3683 97.4536 25.0451 97.3464 24.7199C97.3293 24.6921 97.31 24.6642 97.2907 24.6364C97.2307 24.5508 97.1621 24.4524 97.1235 24.3368C95.67 20.1769 94.2209 16.0148 92.7717 11.8505L92.7395 11.7606C92.3301 10.5815 91.9056 9.3618 91.1918 8.31111C90.2657 6.95013 89.018 6.34026 87.3759 6.44084C86.2611 6.51145 85.2407 6.88594 84.291 7.26684C82.9148 8.26831 81.9072 9.70419 81.2984 11.5338C79.1418 18.0134 77.6454 23.3589 76.5929 28.3513C76.1705 30.3521 76.6829 31.6296 78.3614 32.7531L78.3507 32.7509ZM87.3888 21.127C87.2258 21.127 87.0608 21.0992 86.8957 21.0243C86.5012 20.8445 86.692 20.4144 86.7949 20.1833C86.8228 20.1191 86.8528 20.0549 86.87 20.0014C87.0436 19.4279 87.2365 18.8672 87.4595 18.2189C87.5517 17.9535 87.6481 17.6753 87.7489 17.3757L87.9568 16.7594L88.4242 18.221C88.6236 18.8501 88.7972 19.3937 88.9794 19.9351C89.0437 20.1255 89.1316 20.3887 89.0073 20.6027C88.9601 20.684 88.8636 20.7867 88.6664 20.8274C88.5228 20.8552 88.377 20.9044 88.2205 20.9536C87.9611 21.0371 87.6782 21.1291 87.3888 21.1291V21.127ZM87.0843 20.6391C87.3909 20.7696 87.7296 20.6605 88.0855 20.5449C88.2463 20.4936 88.4113 20.4401 88.5785 20.4058C88.6214 20.3973 88.6343 20.3866 88.6343 20.3866C88.6514 20.3545 88.63 20.2496 88.57 20.0699C88.3877 19.5263 88.2141 18.9807 88.0126 18.3494L87.9418 18.1247C87.914 18.2039 87.8882 18.2809 87.8625 18.3558C87.6396 18.9999 87.4488 19.5563 87.2773 20.1212C87.2537 20.1961 87.2194 20.2774 87.1851 20.3545C87.1508 20.4337 87.0865 20.5749 87.0843 20.6391Z" fill="white"/>
<path d="M54.3965 68.6435C55.6227 66.6919 57.3956 66.7711 59.2971 67.3296C60.116 67.6784 60.937 67.9866 61.8481 68.0529C62.9886 68.1342 63.6596 67.5607 64.1076 66.6192C64.5471 65.699 64.1676 64.9843 63.5159 64.323C62.7485 63.5441 61.7967 63.0605 60.8406 62.5854C55.4447 59.902 54.4007 54.8155 56.4523 49.8445C57.655 46.9342 59.9016 45.0233 62.7228 43.7308C64.2898 43.2835 65.8591 42.8555 67.5076 42.817C70.0672 42.7571 71.7458 43.8206 72.629 46.0847C72.6783 47.42 71.7972 47.9742 70.7104 48.353C68.9525 48.8066 67.4369 49.7097 66.1099 50.9166C63.7989 53.0179 63.7839 55.451 66.1313 57.4925C67.4411 58.633 68.871 59.6324 70.2473 60.6959C72.9613 63.6019 73.062 68.988 69.8357 71.8427C68.0092 73.0367 65.9813 73.5482 63.8225 73.6188C61.4279 73.6081 59.0913 73.2422 56.8189 72.4846C55.3418 71.9925 53.8991 70.3768 54.3965 68.6414V68.6435Z" fill="#A8A8A8"/>
<path d="M63.8291 73.8349C61.3766 73.822 58.9971 73.439 56.7504 72.69C54.6431 71.9881 53.7814 70.013 54.1908 68.5857L54.2144 68.5301C55.5778 66.3602 57.5801 66.602 59.3572 67.1263L59.3808 67.1348C60.1376 67.4558 60.95 67.7747 61.8633 67.841C62.8172 67.9116 63.4497 67.505 63.9148 66.5271C64.2514 65.8209 64.0863 65.2068 63.3639 64.4728C62.6029 63.7003 61.6167 63.2103 60.7464 62.7759C55.7 60.2636 53.9786 55.2776 56.2552 49.7631C57.3871 47.0198 59.473 44.9826 62.6329 43.536L62.6629 43.5253C64.3543 43.0438 65.8849 42.6394 67.5013 42.603C70.1617 42.5367 71.911 43.6537 72.8264 46.0076L72.8393 46.0418V46.0782C72.895 47.6104 71.8295 48.1903 70.777 48.5562C69.122 48.9842 67.645 49.8059 66.2494 51.077C65.1475 52.0785 64.5708 53.1805 64.5837 54.2612C64.5944 55.3226 65.1775 56.3861 66.2665 57.3341C67.1626 58.1152 68.138 58.8449 69.0791 59.551C69.5122 59.8763 69.9452 60.1994 70.3739 60.5311L70.3997 60.5546C71.8038 62.059 72.5777 64.3016 72.4705 66.5528C72.3655 68.7376 71.4801 70.6742 69.9731 72.0074L69.9473 72.0266C68.2002 73.1672 66.1979 73.76 63.8248 73.8391L63.8291 73.8349ZM54.5938 68.7312C54.1758 70.2612 55.4342 71.7998 56.8855 72.2834C59.0893 73.0174 61.4217 73.394 63.8227 73.4069C66.1015 73.332 68.0265 72.7649 69.703 71.6736C71.1135 70.4196 71.9453 68.5921 72.0439 66.5292C72.1468 64.3958 71.4201 62.2773 70.0995 60.8564C69.6772 60.5311 69.2506 60.2101 68.824 59.8913C67.8765 59.1808 66.8968 58.4468 65.9878 57.6551C64.8045 56.6236 64.1721 55.451 64.1592 54.2633C64.1464 53.0564 64.7702 51.8452 65.9643 50.7582C67.3941 49.4571 68.9719 48.5776 70.6569 48.1454C71.5787 47.8244 72.4427 47.3514 72.4169 46.1274C71.5702 43.9875 69.9709 42.9754 67.5142 43.031C65.9557 43.0674 64.4551 43.4611 62.8001 43.9319C59.7517 45.3314 57.7409 47.2937 56.654 49.9258C54.4373 55.2948 56.0387 59.9555 60.9393 62.3928C61.8397 62.8401 62.8601 63.3472 63.6705 64.1711C64.2042 64.7125 64.8474 65.5642 64.3029 66.709C63.7648 67.8367 62.9566 68.346 61.8333 68.2647C60.86 68.1941 59.9768 67.8496 59.2243 67.5307C57.5308 67.0343 55.7986 66.8395 54.5938 68.7291V68.7312Z" fill="white"/>
<path d="M134.067 71.2392C132.373 72.6964 130.362 73.3705 128.178 73.6187C127.5 73.6059 126.821 73.6123 126.144 73.5759C124.178 73.4668 122.246 73.1565 120.394 72.4782C118.428 71.757 117.549 70.1842 118.051 68.4252C119.204 66.9551 120.69 66.6983 122.396 67.2397C122.795 67.3659 123.2 67.4665 123.603 67.5799C124.122 67.8196 124.651 68.01 125.235 68.04C126.542 68.1063 127.224 67.6719 127.73 66.4822C128.169 65.4486 127.558 64.7767 126.917 64.1497C126.223 63.4692 125.32 63.0947 124.469 62.6496C122.737 61.7444 121.204 60.5867 120.227 58.862C118.525 55.8618 118.803 52.7782 120.057 49.7246C121.181 46.9898 123.357 45.2436 125.863 43.8463C127.569 43.3841 129.256 42.832 131.053 42.8213C132.551 42.8127 133.938 43.1551 135.087 44.163C135.754 44.7493 136.063 45.5347 136.151 46.4099C136.12 47.1952 135.687 47.7024 135.019 48.049C133.051 48.6225 131.235 49.4871 129.704 50.8737C127.34 53.0115 127.32 55.436 129.719 57.5224C131.265 58.8684 132.903 60.1074 134.5 61.3956C136.281 64.7617 136.451 68.0571 134.065 71.2413L134.067 71.2392Z" fill="#A8A8A8"/>
<path d="M128.189 73.8327H128.174C127.961 73.8285 127.749 73.8263 127.535 73.8242C127.076 73.8199 126.6 73.8156 126.133 73.7899C123.929 73.668 122.027 73.3042 120.321 72.6793C118.282 71.9304 117.311 70.2377 117.847 68.3674L117.858 68.3268L117.884 68.2947C119.011 66.8567 120.553 66.433 122.463 67.0364C122.731 67.122 123.011 67.1969 123.282 67.2697C123.408 67.3039 123.537 67.3381 123.663 67.3745L123.695 67.3852C124.133 67.5864 124.66 67.7961 125.247 67.826C126.463 67.886 127.061 67.5136 127.535 66.3987C127.91 65.5171 127.432 64.95 126.769 64.3016C126.229 63.7731 125.565 63.4392 124.859 63.0862C124.696 63.0048 124.534 62.9235 124.373 62.8379C122.304 61.7573 120.928 60.529 120.042 58.9668C118.477 56.2085 118.417 53.157 119.862 49.6433C120.855 47.2252 122.675 45.3806 125.762 43.6601L125.811 43.6409C126.056 43.5745 126.3 43.5061 126.544 43.4376C127.991 43.0353 129.49 42.618 131.055 42.6073C132.776 42.5966 134.148 43.0545 135.231 44.0025C135.882 44.5739 136.264 45.3763 136.367 46.3885V46.4035V46.4185C136.337 47.2145 135.917 47.8265 135.119 48.2395L135.081 48.2545C132.937 48.8794 131.224 49.7867 129.85 51.0321C128.705 52.0678 128.131 53.1485 128.141 54.2484C128.152 55.3312 128.731 56.3776 129.861 57.3619C130.924 58.2885 132.052 59.1808 133.143 60.0432C133.642 60.437 134.14 60.8328 134.635 61.2309L134.669 61.2587L134.691 61.2972C136.667 65.0313 136.519 68.3268 134.238 71.3697L134.206 71.404C132.635 72.7585 130.671 73.5524 128.201 73.8327H128.186H128.189ZM118.25 68.5236C117.8 70.1714 118.647 71.6072 120.471 72.277C122.137 72.889 123.998 73.2443 126.158 73.362C126.617 73.3876 127.087 73.3919 127.543 73.3962C127.753 73.3962 127.961 73.4005 128.171 73.4048C130.536 73.133 132.414 72.3776 133.912 71.0937C136.063 68.2112 136.202 65.0848 134.337 61.5347C133.855 61.1453 133.368 60.7622 132.883 60.377C131.788 59.5104 130.656 58.6159 129.586 57.6829C128.36 56.6151 127.732 55.4617 127.721 54.2505C127.711 53.0415 128.349 51.8174 129.569 50.7132C130.99 49.4293 132.748 48.492 134.948 47.8479C135.6 47.5055 135.917 47.0497 135.945 46.4142C135.85 45.509 135.527 44.8242 134.954 44.3214C133.955 43.444 132.69 43.0224 131.063 43.031C129.554 43.0396 128.086 43.4483 126.664 43.8442C126.429 43.9105 126.191 43.9768 125.953 44.041C122.969 45.708 121.215 47.4841 120.263 49.7995C118.872 53.1848 118.923 56.1144 120.42 58.7507C121.262 60.2358 122.583 61.4128 124.576 62.4527C124.735 62.5362 124.896 62.6175 125.057 62.6967C125.76 63.0498 126.486 63.4136 127.076 63.9892C127.625 64.5263 128.454 65.3373 127.936 66.5592C127.389 67.8453 126.626 68.3182 125.232 68.2476C124.579 68.2155 124.008 67.9908 123.537 67.7747C123.417 67.7404 123.297 67.7083 123.174 67.6762C122.9 67.6013 122.617 67.5264 122.338 67.4387C120.606 66.8909 119.271 67.2461 118.252 68.5194L118.25 68.5236Z" fill="white"/>
<path d="M69.8337 71.8426C73.0601 68.988 72.9593 63.6018 70.2453 60.6959C70.2646 60.3406 70.2882 59.9876 70.3011 59.6323C70.4383 55.8725 70.5755 52.1127 70.7105 48.3529C71.7974 47.9741 72.6785 47.4199 72.6292 46.0846C73.8811 45.6288 75.1717 45.4491 76.5008 45.5796C75.6219 46.4869 75.3732 47.6082 75.4053 48.8215C75.5275 53.5978 75.043 58.3548 74.9487 63.1268C74.908 65.1875 74.6422 67.2418 74.5886 69.3025C74.5071 72.4182 75.7848 73.6358 78.9275 73.5888C81.6736 73.5481 84.4134 73.2742 87.1638 73.3962C86.2527 74.449 84.9557 74.5367 83.7359 74.5924C80.3145 74.7507 76.8867 74.8278 73.461 74.8663C71.3494 74.8898 70.2432 73.9076 69.8359 71.8447L69.8337 71.8426Z" fill="#A8A8A8"/>
<path d="M62.7249 43.7308C59.9038 45.0233 57.6571 46.9342 56.4545 49.8445C54.4029 54.8154 55.4469 59.8999 60.8427 62.5854C61.7989 63.0605 62.7507 63.5441 63.5181 64.323C64.1698 64.9843 64.5471 65.699 64.1098 66.6191C63.6596 67.5607 62.9908 68.1363 61.8503 68.0529C60.9392 67.9865 60.1182 67.6784 59.2992 67.3296C59.4665 66.3945 58.9562 65.7396 58.3045 65.2218C57.6957 64.7382 57.0183 64.323 56.3259 63.9678C49.4595 60.4562 48.2783 52.6563 53.8241 47.2338C56.283 44.8307 59.2928 43.7179 62.7249 43.7308Z" fill="#A8A8A8"/>
<path d="M134.067 71.2392C136.453 68.0571 136.283 64.7595 134.502 61.3935C134.607 58.7079 134.686 56.0202 134.828 53.3367C134.92 51.5735 134.648 49.7995 135.023 48.0469C135.692 47.7002 136.125 47.1931 136.155 46.4077C137.409 45.8364 138.701 45.4491 140.101 45.5753C138.989 46.8036 138.909 48.2395 138.969 49.8316C139.059 52.2026 138.869 54.5843 138.776 56.9617C138.714 58.5217 138.575 60.0796 138.539 61.6396C138.47 64.6226 138.078 67.5949 138.228 70.5822C138.318 72.3883 139.709 73.5866 141.728 73.5716C144.575 73.5503 147.422 73.439 150.267 73.3705C150.659 73.3619 151.049 73.3748 151.442 73.3769C150.468 74.4832 149.101 74.5389 147.808 74.5988C144.567 74.7486 141.321 74.8107 138.078 74.8684C135.43 74.9134 134.298 73.8605 134.069 71.237L134.067 71.2392Z" fill="#A8A8A8"/>
<path d="M55.7064 9.86892C54.3515 11.7713 54.0214 13.9925 53.8092 16.2201C53.6462 17.9492 53.6419 19.6953 53.5926 21.4351C53.5541 22.8196 53.4983 24.1998 53.389 25.5844C53.2518 27.3198 53.2882 29.066 53.6227 30.7886C53.2797 31.6852 52.9495 32.5883 52.36 33.3629C51.466 34.5377 50.5314 34.5762 49.5238 33.487C48.5377 32.4213 48.2483 31.0497 48.2804 29.7208C48.4048 24.6471 48.3469 19.5584 49.0629 14.5146C49.213 13.4533 49.5603 12.4411 50.0769 11.4974C51.2774 9.30398 53.3161 8.71765 55.7064 9.86892Z" fill="#A8A8A8"/>
<path d="M84.1774 7.07637C82.6425 8.18484 81.665 9.72343 81.084 11.4632C79.2404 16.9991 77.5769 22.5907 76.3721 28.3042C75.9219 30.4355 76.5136 31.7922 78.2693 32.9521C77.3775 34.3473 75.9798 34.3601 74.5992 34.1739C73.1779 33.9814 71.9452 33.3993 71.5315 31.8265C73.3944 29.3164 73.9068 26.3804 74.1126 23.376C74.2262 21.709 74.1704 20.0292 74.1919 18.3558C74.8179 16.4684 75.4438 14.581 76.0655 12.6936C76.5736 11.155 77.2532 9.70203 78.4494 8.57431C80.0722 7.04214 82.008 6.58206 84.1796 7.07637H84.1774Z" fill="#A8A8A8"/>
<path d="M96.8771 32.5733C99.0616 31.1695 99.396 30.2365 98.5835 27.7478C98.2427 26.7036 97.8847 25.6657 97.5352 24.6257C98.3134 21.9765 99.068 19.3188 99.8762 16.6781C100.406 14.947 100.924 13.2029 101.6 11.5274C102.618 9.00658 104.294 7.18125 107.214 6.92446C107.776 6.87524 108.346 6.75969 108.893 7.02076C107.279 8.25548 106.286 9.9032 105.643 11.8034C103.941 16.8301 102.567 21.9487 101.278 27.093C101.132 27.6772 100.997 28.2764 100.961 28.8756C100.847 30.7159 101.07 32.1111 103.291 33.0698C101.66 34.8652 98.5342 34.6255 96.8728 32.5755L96.8771 32.5733Z" fill="#A8A8A8"/>
<path d="M125.867 43.8442C123.359 45.2415 121.183 46.9877 120.062 49.7225C118.807 52.7761 118.529 55.8619 120.231 58.8599C121.208 60.5825 122.741 61.7423 124.473 62.6475C125.327 63.0926 126.227 63.4671 126.922 64.1476C127.563 64.7767 128.171 65.4465 127.734 66.4801C127.228 67.672 126.544 68.1042 125.239 68.0379C124.656 68.0079 124.126 67.8175 123.607 67.5778C123.843 66.6791 123.483 65.9815 122.857 65.378C122.34 64.8794 121.74 64.4835 121.095 64.1861C119.054 63.2467 117.309 61.9456 115.965 60.1331C115.886 57.4069 115.489 54.7063 115.251 51.9929C116.801 47.5569 119.946 44.9484 124.499 43.9661C124.943 43.8699 125.41 43.8827 125.867 43.8442Z" fill="#A8A8A8"/>
<path d="M97.3207 50.2703C95.8094 52.6006 95.4878 55.2691 95.4213 57.9183C95.3377 61.2523 95.1212 64.5819 95.0934 67.918C95.0826 69.279 95.2241 70.6079 95.6357 71.9047C95.3249 72.536 95.0698 73.2057 94.6882 73.7942C93.7514 75.2386 92.613 75.2643 91.5476 73.8948C91.2903 73.5631 91.1167 73.1672 90.9045 72.8034C92.971 71.9325 93.3869 68.2904 92.6581 66.8866C92.2207 66.0414 91.4318 65.7525 90.6279 65.455C90.8059 61.9755 90.5936 58.4725 91.2839 55.0251C91.5219 53.8311 91.8756 52.6755 92.5659 51.6548C93.6892 49.9921 95.4878 49.4764 97.3228 50.2703H97.3207Z" fill="#A8A8A8"/>
<path d="M122.072 32.3337C123.757 30.9256 124.004 30.0654 123.301 27.9297C122.769 26.3098 122.222 24.6921 121.684 23.0743C121.809 20.4893 121.725 17.8915 122.141 15.3214C122.381 13.8406 122.711 12.3898 123.537 11.108C124.641 9.39177 126.435 8.85466 128.356 9.63572C126.816 11.4867 126.476 13.7508 126.251 16.0169C126.077 17.7823 126.092 19.567 126.023 21.3453C125.942 23.406 125.862 25.4667 125.777 27.5274C125.717 29.004 125.987 30.427 126.463 31.8179C126.231 32.2523 126.028 32.706 125.762 33.119C124.806 34.6062 123.646 34.6576 122.563 33.2581C122.353 32.9863 122.235 32.6439 122.074 32.3337H122.072Z" fill="#A8A8A8"/>
<path d="M100.952 68.4145C101.418 66.3238 101.881 64.231 102.399 61.9006C104.586 65.6155 106.449 69.3325 109.605 72.1144C108.456 74.2992 106.987 74.6437 105.023 73.1715C103.664 72.1529 102.682 70.7962 101.722 69.4245C101.48 69.0779 101.21 68.7505 100.955 68.4166L100.952 68.4145Z" fill="#A8A8A8"/>
<path d="M59.1577 28.4069C59.728 26.2178 60.2167 24.0094 60.6433 21.4865C62.7935 25.1136 64.5685 28.6787 67.4905 31.4349C66.0713 33.7909 64.5921 34.0348 62.4698 32.2844C61.1364 31.1845 60.2489 29.7122 59.1599 28.409L59.1577 28.4069Z" fill="#A8A8A8"/>
<path d="M54.3967 68.6435C53.8993 70.3768 55.3421 71.9946 56.8191 72.4868C59.0915 73.2421 61.4282 73.6081 63.8227 73.6209C62.0606 74.7508 60.0776 74.877 58.0732 74.8406C55.9959 74.8043 53.9658 74.4341 51.9892 73.8007C51.0867 73.5118 50.3128 73.0239 49.764 72.2257C48.6 70.533 49.3546 68.6478 51.3761 68.2455C52.4223 68.0379 53.4298 68.207 54.3967 68.6456V68.6435Z" fill="#A8A8A8"/>
<path d="M131.811 27.5295C132.236 25.6036 132.66 23.6777 133.119 21.5913C135.342 25.2826 137.13 29.1045 140.412 31.85C139.364 33.5897 138.071 33.9064 136.401 32.8001C134.823 31.7537 133.756 30.2365 132.684 28.7279C132.397 28.3256 132.101 27.9297 131.809 27.5295H131.811Z" fill="#A8A8A8"/>
<path d="M118.055 68.4252C117.553 70.1842 118.432 71.7571 120.398 72.4782C122.248 73.1587 124.182 73.469 126.148 73.576C126.825 73.6124 127.503 73.6059 128.182 73.6188C126.523 74.6994 124.651 74.8449 122.75 74.8449C120.666 74.8449 118.638 74.4683 116.64 73.9034C115.303 73.5246 114.276 72.7628 113.682 71.4767C114.364 70.5566 114.664 69.4631 115.086 68.4252C116.076 68.1149 117.067 68.0358 118.057 68.4252H118.055Z" fill="#A8A8A8"/>
<path d="M84.4475 27.4697C84.6855 26.7656 85.1935 26.5088 85.9181 26.5046C87.5881 26.496 89.2538 26.5388 90.9152 26.7207C91.8692 26.8255 92.0771 27.5788 92.3258 28.2571C92.8017 29.5518 93.0825 30.9235 93.9014 32.0769C93.5884 32.4107 93.3119 32.7895 92.9539 33.0676C91.2925 34.3601 89.6311 33.9878 88.6342 32.1239C88.2312 31.3686 88.0597 30.5297 87.811 29.7208C87.2451 27.8869 86.9878 27.6858 85.0799 27.551C84.8677 27.536 84.6597 27.4975 84.4475 27.4718V27.4697Z" fill="#A8A8A8"/>
<path d="M109.111 27.4504C109.409 26.7356 109.943 26.466 110.713 26.5002C112.162 26.5666 113.611 26.5388 115.064 26.6629C116.192 26.7592 116.717 27.2685 117.024 28.2421C117.47 29.6523 117.759 31.1353 118.784 32.2972C117.997 33.303 117.007 34.0049 115.688 33.7738C114.34 33.5362 113.763 32.4321 113.352 31.2572C113.129 30.6238 112.931 29.9797 112.751 29.3313C112.432 28.1736 111.795 27.4675 110.485 27.5574C110.031 27.5895 109.568 27.4889 109.109 27.4482L109.111 27.4504Z" fill="#A8A8A8"/>
<path d="M67.7371 10.7014C66.4208 13.3313 66.9289 16.0811 67.1583 18.8522C65.529 16.4256 64.53 13.6801 63.1216 11.1507C64.5922 9.44738 66.1035 9.29973 67.7392 10.7014H67.7371Z" fill="#A8A8A8"/>
<path d="M140.419 10.3012C138.768 13.0146 139.39 15.9505 139.67 19.1304C137.994 16.6631 137.19 14.0696 135.859 11.7542C136.691 10.5794 137.63 9.59289 139.263 9.81116C139.694 9.86894 140.099 9.98449 140.419 10.2991V10.3012Z" fill="#A8A8A8"/>
<path d="M109.508 50.9379C108.833 52.1855 108.648 53.5272 108.61 54.931C108.573 56.3069 108.912 57.6572 108.841 59.2771C107.24 56.8719 106.412 54.3318 105.146 52.0207C106.415 50.2917 107.744 49.9621 109.508 50.94V50.9379Z" fill="#A8A8A8"/>
<path d="M146.284 62.8657C146.968 61.4577 147.467 61.2736 149.62 61.6331C148.719 62.9385 147.806 63.2766 146.284 62.8657Z" fill="#A8A8A8"/>
<path d="M146.485 52.5557C147.06 51.2953 148.025 50.9914 149.778 51.52C148.906 52.5792 147.78 52.8339 146.485 52.5557Z" fill="#A8A8A8"/>
<path d="M82.6641 62.9941C83.2086 61.6588 84.0682 61.2073 85.3202 61.6011C84.7864 62.7331 83.856 63.1118 82.6641 62.9941Z" fill="#A8A8A8"/>
<path d="M82.8762 52.6028C83.3843 51.2782 84.4733 51.2354 85.6374 51.3552C84.9557 52.2968 84.0596 52.7675 82.8762 52.6028Z" fill="#A8A8A8"/>
<path d="M82.5247 63.3194C82.5247 63.3194 82.5247 63.2702 82.5268 63.2723L82.5247 63.3194Z" fill="#A8A8A8"/>
<path d="M118.055 68.4252C117.065 68.0379 116.074 68.117 115.084 68.4252C115.699 65.6947 115.892 62.9192 115.965 60.1309C117.307 61.9456 119.052 63.2445 121.095 64.1839C121.74 64.4813 122.34 64.8751 122.857 65.3758C123.483 65.9793 123.843 66.6769 123.607 67.5756C123.204 67.4622 122.799 67.3616 122.4 67.2354C120.694 66.6961 119.208 66.9508 118.055 68.4209V68.4252Z" fill="#A8A8A8"/>
<path d="M112.7 17.6946C112.947 18.4286 113.189 19.1626 113.442 19.8923C113.538 20.1726 113.658 20.5043 113.29 20.607C112.794 20.7439 112.261 21.0114 111.763 20.8081C111.474 20.6883 111.703 20.301 111.78 20.0399C112.012 19.2653 112.248 18.4906 112.481 17.716L112.7 17.6946Z" fill="#A8A8A8"/>
<path d="M87.9505 17.4421C88.2763 18.4564 88.5164 19.2332 88.7758 20.0014C88.8616 20.256 88.9495 20.5492 88.6236 20.6156C88.0791 20.7247 87.5217 21.0714 86.9858 20.8274C86.7178 20.7054 87.0008 20.3095 87.0758 20.0592C87.3181 19.2546 87.6053 18.465 87.9526 17.4421H87.9505Z" fill="#A8A8A8"/>
</g>
<defs>
<clipPath id="clip0_1368_6954">
<rect width="108.443" height="68.9006" fill="white" transform="translate(48.2783 6)"/>
</clipPath>
</defs>
</svg>
