<svg width="214" height="32" viewBox="0 0 214 32" fill="none" xmlns="http://www.w3.org/2000/svg">
<path d="M129.923 4.13744C123.061 4.55532 117.801 11.0326 118.172 18.5977C118.544 26.1661 124.407 31.9568 131.273 31.5389L201.252 27.4231C208.114 27.0019 213.374 20.5279 213.003 12.9628C212.631 5.39773 206.768 -0.399631 199.906 0.0215733L129.926 4.13744H129.923Z" fill="#E8FF48"/>
<path d="M124.172 20.3227L127.618 19.8717C126.795 23.0125 128.155 24.5746 130.341 24.4784C131.866 24.4121 132.941 23.7322 132.911 22.379C132.898 21.3708 132.377 20.6544 130.815 19.477L129.266 18.3162C127.717 17.1388 126.752 16.0012 126.759 14.3463C126.746 11.5405 128.805 9.62348 132.815 9.44438C137.093 9.25534 139.614 11.3514 138.649 15.2218L135.183 15.6099C135.979 12.9599 134.818 11.64 132.805 11.7262C131.153 11.7991 130.384 12.5586 130.371 13.7095C130.377 14.5751 130.732 15.129 132.327 16.2533L133.923 17.3809C135.501 18.5252 136.646 19.7655 136.639 21.7853C136.639 24.6077 134.44 26.6275 130.397 26.8033C125.664 27.0123 122.865 24.6774 124.169 20.3161L124.172 20.3227Z" fill="#450351"/>
<path d="M140.765 21.4175L143.726 12.0847L141.415 12.1875L142.3 9.35849L144.612 9.25567L145.912 5.13318L150.045 4.11499L148.482 9.08653L152.791 8.89748L151.892 11.7265L147.597 11.9156L144.731 20.9466C144.29 22.3992 144.798 23.1355 146.197 23.0725C146.841 23.0427 147.623 22.8835 148.38 22.5352L147.431 25.351C146.463 25.8651 145.448 26.1304 144.38 26.1801C141.14 26.3227 139.786 24.555 140.768 21.4242L140.765 21.4175Z" fill="#450351"/>
<path d="M168.438 8.20728L163.158 24.9858L159.43 25.1516C159.576 24.1832 160.243 22.8632 161.523 20.7903L161.248 20.6146C158.906 24.0107 157.115 25.5397 154.568 25.6524C151.673 25.7785 150.333 23.9643 151.411 20.5582L155.115 8.79763L158.969 8.62848L155.291 20.2929C154.751 22.0042 155.231 22.8964 156.631 22.8333C158.724 22.7405 160.999 19.6461 162.203 15.8586L164.568 8.37974L168.438 8.21059V8.20728Z" fill="#450351"/>
<path d="M168.723 16.154L168.999 15.2751C170.547 10.3997 173.111 7.71992 176.272 7.58062C179.041 7.45791 180.434 9.02001 180.527 11.8524L180.888 11.8192C181.028 9.59046 181.28 8.1776 181.777 6.5956L183.2 2.04195L187.07 1.8728L180.036 24.2464L176.371 24.4089C176.494 23.5831 177.028 22.5052 178.325 20.4456L178.016 20.2532C175.96 23.2912 174.401 24.777 171.837 24.8898C168.219 25.049 166.912 21.8618 168.727 16.154H168.723ZM178.58 16.6979L178.952 15.5006C180.069 11.922 179.277 10.0183 177.045 10.1178C175.267 10.1974 173.864 11.9286 172.839 15.1557L172.425 16.4657C171.124 20.6048 172.02 22.2996 173.937 22.2133C175.761 22.1337 177.598 19.8453 178.58 16.6979Z" fill="#450351"/>
<path d="M183.43 24.0935L188.709 7.31502L192.58 7.14587L187.3 23.9244L183.43 24.0935ZM189.204 5.27533L190.242 1.98197L194.411 1.79956L193.373 5.09291L189.204 5.27533Z" fill="#450351"/>
<path d="M193.2 14.0346L193.309 13.6831C194.789 9.00007 197.375 6.53917 200.947 6.37998C206.108 6.15445 208.383 10.2438 206.532 16.1572L206.423 16.5088C204.957 21.1752 202.387 23.6527 198.818 23.8086C193.628 24.0374 191.353 19.9448 193.203 14.0346H193.2ZM202.573 16.4259L203.193 14.3961C204.271 10.9602 203.485 8.89726 201 9.0067C199.269 9.08298 198.241 10.403 197.176 13.7593L196.583 15.6597C195.462 19.2217 196.294 21.2681 198.812 21.1553C200.51 21.079 201.524 19.7756 202.573 16.4192V16.4259Z" fill="#450351"/>
<path d="M10.1421 9.79224C6.96811 9.79224 4.89526 11.3311 3.85054 14.117L3.5421 14.0109C4.0429 12.3195 4.30491 10.9796 4.32149 10.0874H0V31.6352H4.27506V27.2473C4.27506 25.5559 4.05617 24.1828 3.52551 22.3222L3.82069 22.1995C4.86541 24.9689 6.95153 26.5409 10.1388 26.5409C14.5465 26.5409 16.8681 23.755 16.8681 18.3689V17.9842C16.8681 12.6113 14.5465 9.79555 10.1388 9.79555L10.1421 9.79224ZM8.5269 12.5616C11.1735 12.5616 12.5698 14.3326 12.5698 17.825V18.5314C12.5698 22.0403 11.1735 23.8246 8.5269 23.8246C5.88028 23.8246 4.27838 21.9475 4.27838 18.4518V17.8979C4.27838 14.4189 5.77746 12.5583 8.5269 12.5583V12.5616Z" fill="#450351"/>
<path d="M22.6793 8.17702V4.94336H18.0925V8.17702H22.6793ZM22.5168 26.2457V10.084H18.2417V26.2457H22.5168Z" fill="#450351"/>
<path d="M28.6189 26.2457V18.7337C28.6189 15.1021 30.2507 12.8402 32.9537 12.8402C34.9668 12.8402 35.9651 13.9479 35.9651 16.0407V26.2457H40.2402V14.9628C40.2402 11.5766 38.3431 9.79224 34.8176 9.79224C31.6138 9.79224 29.4547 11.2714 28.1314 14.3492L27.8362 14.2099C28.4232 12.3792 28.6289 11.2847 28.6289 10.0841H24.3372V26.2457H28.6123H28.6189Z" fill="#450351"/>
<path d="M46.2698 26.2458V20.6739L48.3426 18.3954L52.2661 26.2458H56.7203L51.3707 15.9345L56.5147 10.0841H51.8847L46.0509 16.7935L45.8022 16.6542C46.1537 14.8368 46.2731 13.5599 46.2731 11.5434V4.698H41.998V26.2458H46.2731H46.2698Z" fill="#450351"/>
<path d="M70.7559 26.5409C73.9299 26.5409 76.0028 25.002 77.0475 22.2161L77.3559 22.3223C76.8551 24.0137 76.5931 25.3536 76.5765 26.2458H80.898V4.698H76.623V9.08582C76.623 10.7773 76.8418 12.1503 77.3725 14.0109L77.0773 14.1336C76.0326 11.3643 73.9465 9.79225 70.7593 9.79225C66.3515 9.79225 64.0299 12.5782 64.0299 17.9643V18.349C64.0299 23.7218 66.3515 26.5376 70.7593 26.5376L70.7559 26.5409ZM72.3711 23.7716C69.7245 23.7716 68.3448 22.0005 68.3448 18.5082V17.8018C68.3448 14.2928 69.7245 12.5085 72.3711 12.5085C75.0177 12.5085 76.6196 14.3857 76.6196 17.8814V18.4352C76.6196 21.9143 75.1371 23.7749 72.3711 23.7749V23.7716Z" fill="#450351"/>
<path d="M90.7746 26.6305C96.1077 26.6305 99.2684 23.7981 99.2684 18.3788V17.9477C99.2684 12.5284 96.1077 9.69604 90.7746 9.69604C85.4416 9.69604 82.2643 12.5284 82.2643 17.9477V18.3788C82.2643 23.7981 85.4084 26.6305 90.7746 26.6305ZM90.7746 23.7981C88.1744 23.7981 86.6455 22.1663 86.6455 18.611V17.7188C86.6455 14.1635 88.1744 12.5317 90.7746 12.5317C93.3748 12.5317 94.8905 14.1635 94.8905 17.7188V18.611C94.8905 22.1663 93.3616 23.7981 90.7746 23.7981Z" fill="#450351"/>
<path d="M107.102 22.1829C103.838 21.828 103.059 21.4599 103.059 20.7037C103.059 20.1498 103.5 19.858 104.588 19.7352C105.513 19.9674 106.601 20.0735 107.822 20.0735C112.67 20.0735 115.227 18.2561 115.227 14.8864C115.227 12.6079 114.067 11.0525 111.818 10.2698C111.685 8.92986 112.478 8.70101 115.669 8.45227L115.214 4.92676C111.394 5.11249 109.805 7.06595 110.379 9.8983C109.616 9.759 108.763 9.6993 107.822 9.6993C102.956 9.6993 100.369 11.5168 100.369 14.8864C100.369 16.7337 101.132 18.1035 102.631 18.9791V19.2709C100.721 19.5495 99.7955 20.4251 99.7955 21.8247C99.7955 23.2243 100.678 24.0401 102.16 24.6106V24.8892C99.9845 25.3502 99.1322 26.4281 99.1322 28.0134C99.1322 30.8159 101.573 31.9999 107.613 31.9999C113.961 31.9999 116.488 30.5075 116.488 26.9985C116.488 23.4896 113.609 22.8727 110.359 22.5344L107.095 22.1796L107.102 22.1829ZM107.822 12.0541C109.967 12.0541 110.982 12.9628 110.982 14.8864C110.982 16.81 109.967 17.7188 107.822 17.7188C105.676 17.7188 104.618 16.8266 104.618 14.8864C104.618 12.9462 105.646 12.0541 107.822 12.0541ZM107.851 29.3234C103.928 29.3234 102.412 28.6933 102.412 27.0914C102.412 26.2125 102.883 25.5824 104.236 25.1379C104.677 25.2142 105.148 25.2772 105.646 25.3237L108.936 25.6321C112.243 25.9405 113.052 26.3717 113.052 27.4164C113.052 28.7231 111.656 29.3234 107.848 29.3234H107.851Z" fill="#450351"/>
</svg>
