<svg width="313" height="206" viewBox="0 0 313 206" fill="none" xmlns="http://www.w3.org/2000/svg">
<path d="M157.716 19.1967C149.832 19.7179 144.937 23.8878 142.804 30.9816L142.022 30.7617C142.983 26.4696 143.423 23.106 143.308 20.8826L132.574 21.5993L136.141 75.1241L146.762 74.4155L146.037 63.5183C145.76 59.3158 144.986 55.9441 143.357 51.4077L144.066 51.0493C147.112 57.7603 152.561 61.3112 160.477 60.7818C171.431 60.0488 176.733 52.7515 175.845 39.3703L175.78 38.4174C174.892 25.0769 168.654 18.4637 157.708 19.1885L157.716 19.1967ZM154.157 26.3474C160.729 25.9076 164.484 30.0776 165.062 38.7513L165.176 40.5105C165.754 49.225 162.586 53.8917 156.014 54.3315C149.189 54.7876 145.149 50.3733 144.571 41.6914L144.481 40.315C143.903 31.6739 147.324 26.8035 154.149 26.3474H154.157Z" fill="#4C0054"/>
<path d="M191.402 12.9171L190.865 4.88672L179.471 5.64414L180.008 13.6745L191.402 12.9171ZM193.992 57.8332L191.321 17.6897L180.701 18.3982L183.372 58.5418L193.992 57.8332Z" fill="#4C0054"/>
<path d="M211.951 56.6354L210.705 37.9766C210.102 28.9527 213.783 23.0643 220.494 22.6164C225.495 22.2824 228.158 24.8724 228.508 30.0685L230.194 55.4137L240.814 54.7052L238.949 26.6804C238.387 18.2673 233.387 14.1462 224.623 14.7326C216.666 15.262 211.544 19.2935 208.766 27.1528L208.009 26.8596C209.165 22.2091 209.499 19.4645 209.296 16.4837L198.635 17.1922L201.306 57.3358L211.926 56.6272L211.951 56.6354Z" fill="#4C0054"/>
<path d="M258.601 53.5248L257.681 39.6875L262.454 33.6851L273.497 52.5312L284.557 51.7982L269.564 27.0637L281.373 11.6872L269.873 12.4527L256.492 30.0853L255.848 29.784C256.427 25.215 256.508 22.0224 256.174 17.0136L255.042 0L244.422 0.70856L247.989 54.2333L258.609 53.5248H258.601Z" fill="#4C0054"/>
<path d="M174.16 108.32C182.044 108.866 187.451 105.396 190.522 98.6528L191.271 98.9704C189.74 103.091 188.852 106.374 188.665 108.581L199.399 109.322L203.097 55.8053L192.476 55.0723L191.727 65.9694C191.434 70.1719 191.752 73.617 192.745 78.3326L191.996 78.5851C189.878 71.5239 184.967 67.2644 177.043 66.7187C166.097 65.9613 159.85 72.4849 158.922 85.8661L158.856 86.819C157.936 100.159 163.222 107.555 174.168 108.312L174.16 108.32ZM178.647 101.715C172.075 101.259 168.947 96.6248 169.55 87.9511L169.672 86.1919C170.275 77.4774 174.013 73.2749 180.578 73.731C187.443 74.2034 190.807 79.1226 190.204 87.7963L190.106 89.1727C189.512 97.8139 185.505 102.179 178.639 101.707L178.647 101.715Z" fill="#4C0054"/>
<path d="M226.667 112.172C239.918 113.084 248.25 106.593 249.178 93.1388L249.252 92.0719C250.18 78.6174 242.818 71.0432 229.567 70.1228C216.243 69.2025 207.952 75.7017 207.023 89.1562L206.95 90.2231C206.021 103.678 213.343 111.252 226.667 112.172ZM227.156 105.135C220.698 104.688 217.179 100.379 217.79 91.5425L217.945 89.3273C218.556 80.4988 222.628 76.7035 229.086 77.1514C235.512 77.5912 239.03 81.9077 238.42 90.7362L238.265 92.9515C237.654 101.78 233.582 105.575 227.156 105.127V105.135Z" fill="#4C0054"/>
<path d="M270.794 104.126C262.755 102.684 260.882 101.633 261.012 99.7602C261.11 98.3838 262.25 97.7322 264.979 97.6101C267.235 98.3431 269.922 98.7991 272.952 99.0028C284.997 99.8335 291.66 95.7613 292.238 87.3889C292.629 81.7286 290.014 77.6727 284.566 75.3352C284.468 71.9879 286.48 71.5481 294.437 71.4829L293.907 62.6545C284.387 62.459 280.111 67.0443 281.047 74.1706C279.174 73.6982 277.065 73.3969 274.727 73.234C262.649 72.4033 255.914 76.4673 255.336 84.8397C255.018 89.425 256.68 92.9596 260.255 95.3948L260.206 96.1196C255.417 96.478 252.966 98.4978 252.721 101.975C252.477 105.453 254.529 107.628 258.121 109.297L258.072 109.981C252.591 110.755 250.286 113.288 250.017 117.222C249.537 124.177 255.393 127.541 270.395 128.575C286.162 129.666 292.694 126.392 293.297 117.67C293.883 109.142 286.846 106.927 278.84 105.535L270.802 104.093L270.794 104.126ZM274.32 79.0979C279.647 79.4644 282.008 81.8914 281.683 86.6722C281.349 91.4855 278.677 93.5297 273.351 93.1632C267.951 92.7886 265.549 90.3942 265.883 85.5808C266.217 80.8001 268.921 78.7233 274.328 79.0979H274.32ZM271.429 121.994C261.68 121.318 258.032 119.494 258.308 115.52C258.455 113.337 259.734 111.855 263.171 110.975C264.254 111.244 265.41 111.472 266.64 111.675L274.76 113.003C282.921 114.33 284.851 115.544 284.672 118.142C284.444 121.392 280.876 122.646 271.421 121.986L271.429 121.994Z" fill="#4C0054"/>
<path d="M163.964 127.329C152.571 128.013 143.84 138.65 144.459 151.07C145.078 163.49 154.81 173.003 166.204 172.319L282.359 165.567C293.753 164.875 302.484 154.255 301.865 141.826C301.246 129.406 291.513 119.894 280.119 120.578L163.964 127.329Z" fill="#E8FF48"/>
<path d="M154.255 153.397L159.923 152.697C158.539 157.844 160.754 160.426 164.346 160.296C166.854 160.206 168.621 159.107 168.589 156.875C168.581 155.222 167.734 154.033 165.176 152.086L162.643 150.164C160.119 148.218 158.547 146.328 158.571 143.616C158.579 139.006 161.984 135.887 168.573 135.643C175.601 135.382 179.706 138.851 178.077 145.196L172.384 145.79C173.728 141.45 171.83 139.267 168.524 139.389C165.812 139.487 164.541 140.725 164.5 142.614C164.5 144.039 165.079 144.952 167.685 146.817L170.291 148.69C172.873 150.588 174.73 152.64 174.697 155.955C174.665 160.589 171.032 163.879 164.394 164.123C156.617 164.409 152.056 160.54 154.247 153.405L154.255 153.397Z" fill="#4C0054"/>
<path d="M181.489 155.395L186.466 140.108L182.67 140.247L184.153 135.612L187.948 135.474L190.131 128.722L196.923 127.102L194.301 135.246L201.378 134.985L199.871 139.619L192.818 139.88L188.013 154.67C187.272 157.048 188.095 158.262 190.391 158.18C191.45 158.14 192.737 157.887 193.983 157.325L192.395 161.935C190.798 162.766 189.129 163.189 187.37 163.254C182.051 163.45 179.844 160.534 181.489 155.403V155.395Z" fill="#4C0054"/>
<path d="M227.073 134.032L218.204 161.519L212.08 161.747C212.332 160.159 213.44 158 215.565 154.604L215.117 154.311C211.232 159.857 208.276 162.35 204.09 162.504C199.334 162.675 197.159 159.678 198.967 154.107L205.189 134.838L211.518 134.602L205.344 153.708C204.44 156.51 205.222 157.984 207.519 157.895C210.956 157.764 214.726 152.715 216.746 146.509L220.721 134.26L227.073 134.023V134.032Z" fill="#4C0054"/>
<path d="M227.448 147.08L227.912 145.638C230.518 137.657 234.753 133.283 239.941 133.088C244.486 132.917 246.758 135.499 246.872 140.149L247.467 140.1C247.719 136.443 248.151 134.122 248.99 131.532L251.376 124.072L257.729 123.836L245.911 160.486L239.892 160.705C240.104 159.354 240.992 157.586 243.142 154.223L242.637 153.905C239.224 158.865 236.651 161.292 232.44 161.447C226.503 161.667 224.394 156.413 227.431 147.072L227.448 147.08ZM243.622 148.09L244.25 146.127C246.131 140.263 244.852 137.128 241.179 137.266C238.263 137.372 235.934 140.198 234.216 145.492L233.515 147.634C231.333 154.418 232.782 157.203 235.934 157.089C238.931 156.975 241.977 153.245 243.622 148.09Z" fill="#4C0054"/>
<path d="M251.498 160.289L260.367 132.802L266.72 132.565L257.851 160.053L251.498 160.289ZM261.198 129.462L262.941 124.071L269.782 123.818L268.039 129.21L261.198 129.462Z" fill="#4C0054"/>
<path d="M267.649 143.894L267.837 143.315C270.321 135.643 274.596 131.636 280.46 131.416C288.93 131.107 292.62 137.851 289.509 147.534L289.321 148.112C286.862 155.76 282.61 159.791 276.746 160.011C268.219 160.329 264.53 153.585 267.641 143.894H267.649ZM283.009 147.933L284.052 144.61C285.86 138.983 284.598 135.586 280.517 135.741C277.675 135.847 275.973 138.005 274.181 143.503L273.187 146.614C271.306 152.453 272.65 155.817 276.779 155.662C279.564 155.556 281.25 153.431 283.009 147.933Z" fill="#4C0054"/>
<path d="M126.508 85.076C124.92 80.2464 123.023 75.5227 120.84 70.9293C116.442 61.7424 110.782 53.2234 104.022 45.6247C102.531 43.9551 100.984 42.3344 99.3959 40.7707C98.9805 40.7462 98.5814 40.7136 98.1579 40.6729C97.5227 40.6159 96.9037 40.51 96.2847 40.4205L94.4767 40.0702C93.874 39.9562 93.2713 39.7689 92.6768 39.6223C92.0822 39.4757 91.4877 39.2721 90.8932 39.0848C88.4906 38.3111 86.2183 37.1627 84.1578 35.6886C83.9053 35.5094 83.6284 35.3058 83.4003 35.094C83.1723 34.8823 82.8954 34.695 82.6673 34.4751C82.195 34.0353 81.747 33.5792 81.3235 33.0905C80.7941 32.496 80.3299 31.8444 79.8983 31.1685C80.2648 31.4698 80.7534 31.6164 81.2502 31.5105C82.0239 31.3395 82.537 30.6391 82.4963 29.8654H82.5533C82.8791 30.1993 83.213 30.5332 83.5713 30.8427C83.9623 31.1929 84.3776 31.5187 84.8011 31.8281C85.2409 32.1213 85.6563 32.4145 86.1287 32.6752C87.9937 33.7095 89.9972 34.4669 92.0741 34.9474C92.6034 35.0696 93.1247 35.2162 93.6622 35.2895C94.1997 35.3628 94.7291 35.5013 95.2748 35.5501L96.9037 35.7537C97.4412 35.8026 97.9706 35.8515 98.5 35.8678C99.4936 35.9166 100.495 35.8678 101.481 35.7456C101.912 35.6886 102.344 35.599 102.768 35.4687C103.11 35.3547 103.427 35.1999 103.729 35.0126C103.949 34.8741 104.144 34.695 104.291 34.4832C104.437 34.2715 104.543 34.0271 104.6 33.7747C104.673 33.4489 104.698 33.1068 104.69 32.7729C104.665 32.3575 104.608 31.9422 104.519 31.535C104.014 29.5803 103.183 27.7234 102.075 26.0294C99.7379 22.3481 96.863 19.0333 93.5401 16.2073C91.9275 14.7983 90.1846 13.544 88.3358 12.4608C87.4644 11.9559 86.544 11.5161 85.6074 11.1496C85.1676 10.9786 84.7197 10.832 84.2636 10.7179C83.8076 10.6039 83.3433 10.5143 82.8709 10.4492C80.9896 10.1723 79.0675 10.3433 77.2595 10.946C75.3455 11.5975 73.5375 12.5504 71.9249 13.7721C71.0697 14.3992 70.2635 15.0833 69.4897 15.8163C68.7079 16.5575 67.9505 17.323 67.2175 18.1375C66.4926 18.9519 65.8004 19.8071 65.1325 20.6785C64.8068 21.1102 64.4728 21.5662 64.1715 22.006C63.8702 22.4458 63.5362 22.9345 63.2919 23.3173L62.9254 23.1218C60.026 23.1381 57.1266 23.3906 54.2598 23.8792V24.0829L54.2924 24.319C54.1621 38.2215 56.19 52.0669 60.311 65.3585C62.3634 71.9717 64.9696 78.3976 68.1052 84.5711C69.7015 87.6333 71.3385 90.6712 73.1873 93.5869C75.0279 96.4944 76.9581 99.3531 79.0757 102.065C81.1769 104.769 83.4329 107.351 85.8273 109.802C88.2218 112.229 90.7873 114.461 93.5156 116.497C96.2114 118.517 99.1108 120.243 102.173 121.644C105.17 123.037 108.363 123.957 111.637 124.381L112.85 124.519C113.233 124.552 113.665 124.544 114.072 124.552C114.479 124.552 114.878 124.592 115.286 124.576L116.499 124.495C117.305 124.446 118.112 124.348 118.91 124.202L119.512 124.104L120.05 123.99C120.229 123.949 120.392 123.868 120.571 123.835C120.75 123.778 120.921 123.721 121.092 123.648C121.785 123.371 122.444 123.021 123.055 122.597C123.691 122.174 124.285 121.685 124.823 121.147C125.946 120.023 126.916 118.753 127.698 117.36C128.504 115.935 129.18 114.428 129.709 112.873C130.239 111.285 130.654 109.656 130.963 108.002C131.159 106.968 131.297 105.909 131.403 104.859C131.11 103.181 130.792 101.511 130.426 99.8499C129.408 94.8493 128.097 89.9219 126.5 85.0842L126.508 85.076Z" fill="#FF7BC9"/>
<path d="M70.5717 181.008C67.0044 183.134 64.4389 186.799 65.7257 189.014C67.0126 191.23 71.8259 191.889 75.3931 189.764C78.9603 187.646 81.2163 182.531 79.9295 180.3C78.6346 178.068 74.1389 178.883 70.5717 181V181.008Z" fill="white"/>
<path d="M130.565 118.931C129.677 120.617 128.561 122.173 127.242 123.549C126.566 124.258 125.825 124.901 125.018 125.463C124.212 126.041 123.332 126.53 122.42 126.905C122.192 127.011 121.956 127.1 121.712 127.173C121.476 127.255 121.231 127.353 120.987 127.41L120.254 127.597L119.562 127.719C118.649 127.906 117.721 128.037 116.784 128.11L115.392 128.216C114.927 128.232 114.455 128.216 113.991 128.216C113.527 128.216 113.062 128.216 112.598 128.175L111.214 128.029C107.557 127.581 103.99 126.563 100.642 124.999C97.3601 123.468 94.2489 121.586 91.3576 119.387C88.499 117.221 85.8032 114.835 83.3029 112.261C80.8352 109.696 78.5058 106.984 76.3476 104.157C74.1812 101.331 72.1939 98.3831 70.337 95.3452C68.472 92.3155 66.7943 89.1799 65.2142 86.0036C62.1275 79.6185 59.5784 72.9889 57.5993 66.1721C56.5812 62.7759 55.7424 59.3227 55.0501 55.8613C54.3578 52.4 53.7959 48.906 53.3805 45.3958C52.5253 38.4405 52.2647 31.4282 52.5905 24.4322L52.4683 24.196C52.0936 24.2775 51.7353 24.3589 51.3363 24.4404C50.5544 24.6114 49.7807 24.8069 49.0151 25.0023C45.9691 25.7923 42.9883 26.8267 40.1214 28.1216L39.9015 28.4148C39.5187 28.1623 39.0382 27.861 38.5577 27.5841C38.0853 27.3072 37.6048 27.0384 37.1325 26.7778C36.1633 26.2566 35.1778 25.7679 34.1842 25.3281C33.1906 24.8883 32.1807 24.4892 31.1626 24.1553C30.1609 23.8051 29.1347 23.5201 28.1004 23.3002C26.1213 22.8604 24.0852 22.7301 22.0735 22.9337C20.184 23.1291 18.3597 23.7725 16.7634 24.7987C16.3643 25.0512 15.9734 25.32 15.6069 25.6213C15.2404 25.9145 14.8902 26.2321 14.5644 26.566C13.8559 27.2909 13.2043 28.0646 12.6179 28.8872C11.3881 30.6382 10.3212 32.5033 9.43348 34.4498C7.58471 38.3998 6.33048 42.6023 5.71965 46.9188C5.41017 48.9142 5.42644 50.9503 5.77664 52.9375C5.86623 53.3447 5.9884 53.7438 6.135 54.1347C6.26531 54.4442 6.42821 54.7374 6.63182 55.0062C6.78656 55.2179 6.98201 55.389 7.20191 55.5274C7.42181 55.6577 7.67429 55.7473 7.92677 55.7799C8.28512 55.8288 8.64347 55.8369 8.99368 55.7962C9.42533 55.7392 9.85697 55.6496 10.2805 55.5193C11.2415 55.2261 12.17 54.8514 13.0577 54.3872C13.5301 54.1592 13.9943 53.8904 14.4585 53.6216L15.8594 52.742C16.3317 52.4488 16.7634 52.1394 17.2195 51.838C17.6756 51.5367 18.0991 51.2028 18.5226 50.8688C20.2166 49.5739 21.7233 48.0509 23.002 46.3406C23.3115 45.9171 23.5802 45.4691 23.8571 45.0212C24.1178 44.5651 24.3621 44.0927 24.5739 43.6122C24.7693 43.1806 24.9322 42.7326 25.087 42.2928C25.087 42.2684 25.1032 42.2521 25.1114 42.2277C25.087 42.1707 25.0707 42.1136 25.0544 42.0485C24.9322 41.4621 25.144 40.892 25.5675 40.5255C25.7629 40.3545 25.9991 40.216 26.276 40.159C27.1312 39.9717 27.9782 40.5174 28.1655 41.3807C28.1655 41.4051 28.1655 41.4377 28.1737 41.4621C28.1818 41.5191 28.19 41.568 28.19 41.625C28.2062 41.8693 28.1655 42.1055 28.0759 42.3173C27.9619 43.1317 27.7909 43.938 27.5465 44.728C27.3592 45.347 27.1393 45.9496 26.895 46.5442C26.7728 46.8374 26.6344 47.1306 26.4796 47.4075C26.3249 47.6925 26.2109 47.9939 26.0317 48.2626C24.7612 50.4616 23.1649 52.4407 21.2835 54.1429C20.8274 54.5582 20.3632 54.9817 19.8827 55.3727C19.4022 55.7555 18.9298 56.1708 18.433 56.521L16.9344 57.5879C16.4132 57.9463 15.892 58.2802 15.3381 58.5897C14.9717 58.8015 14.597 59.0051 14.2224 59.2005C13.4161 61.2611 12.6831 63.3297 12.0315 65.4228C8.99369 75.1391 7.3241 85.2299 7.07162 95.4104C6.96574 100.509 7.1775 105.607 7.70688 110.673C7.86162 111.943 7.99193 113.206 8.16296 114.476L8.74936 118.255C8.82266 118.891 8.95295 119.518 9.09141 120.137L9.46604 122.018L9.83255 123.899L10.2398 125.781C12.4876 135.806 15.5255 145.677 19.6954 154.978C23.8653 164.279 29.1103 173.165 35.7561 180.78C39.0627 184.583 42.7684 188.02 46.808 191.017C50.6521 193.851 54.8465 196.181 59.2689 197.948C58.8454 197.166 58.5196 196.327 58.3241 195.415C56.345 186.269 67.3888 175.201 83.2214 171.772C99.0622 168.343 113.698 173.89 115.669 183.011C115.856 183.874 115.921 184.73 115.872 185.577C119.13 182.156 121.956 178.336 124.253 174.199C126.663 169.801 128.586 165.151 129.995 160.329C130.996 156.982 131.77 153.569 132.356 150.116C133.472 143.584 133.928 136.906 133.888 130.252C133.839 124.641 133.448 119.045 132.715 113.483C132.185 115.364 131.461 117.188 130.565 118.923V118.931ZM45.3257 87.9339C44.78 96.1108 40.6182 102.455 36.0411 102.113C32.1807 101.82 29.265 96.8682 28.76 90.4342C29.7129 90.7518 30.7636 90.8332 31.8142 90.6052C34.9416 89.9292 36.9289 86.8425 36.2529 83.7151C35.6502 80.9378 33.1499 79.0646 30.4134 79.1542C32.1562 74.9599 34.9905 72.2804 38.0039 72.5084C42.5892 72.8586 45.8714 79.7651 45.3257 87.942V87.9339Z" fill="white"/>
<path d="M37.9958 72.5018C34.9743 72.2737 32.14 74.9532 30.4053 79.1476C33.1499 79.058 35.6421 80.9312 36.2448 83.7084C36.9207 86.8359 34.9335 89.9226 31.8061 90.5986C30.7555 90.8266 29.7048 90.7452 28.752 90.4275C29.2569 96.8697 32.1726 101.822 36.033 102.107C40.6183 102.457 44.7719 96.1042 45.3176 87.9272C45.8633 79.7503 42.5811 72.8438 37.9958 72.4936V72.5018Z" fill="#4C0054"/>
<path d="M91.3984 74.0967C92.0744 77.2241 90.0871 80.3109 86.9597 80.9868C86.5932 81.0683 86.2267 81.109 85.8602 81.1171C89.0039 87.0788 93.8987 90.5972 97.6369 89.2045C101.945 87.6082 103.069 80.0991 100.154 72.4434C97.2298 64.7877 91.3658 59.8848 87.0493 61.4811C84.3046 62.4991 82.8549 65.9279 82.9201 70.2607C83.4006 69.9919 83.9381 69.7883 84.5001 69.6662C87.6275 68.9902 90.7143 70.9774 91.3902 74.1048L91.3984 74.0967Z" fill="#4C0054"/>
<path d="M132.037 83.2025C130.319 78.1448 128.275 73.2012 125.921 68.4042C121.132 58.8427 115.016 49.9979 107.759 42.1549C107.034 41.373 106.293 40.6156 105.544 39.85C105.853 39.7197 106.163 39.5568 106.448 39.3858C107.222 38.9215 107.898 38.3189 108.451 37.6103C109.013 36.8855 109.421 36.0629 109.665 35.1833C109.893 34.3851 110.007 33.5544 110.007 32.7318C110.007 31.9825 109.942 31.2333 109.812 30.4921C109.266 27.6823 108.126 25.3449 106.871 23.1541C105.601 21.0121 104.143 18.976 102.522 17.0784C100.918 15.197 99.1831 13.4378 97.318 11.8171C95.4285 10.1556 93.3762 8.68965 91.1853 7.44357C90.0451 6.79202 88.8561 6.23006 87.6263 5.76583C86.9829 5.5215 86.3231 5.31789 85.6553 5.16314C84.9874 5.0084 84.3033 4.88623 83.6192 4.81294C80.8745 4.48716 78.0973 4.79665 75.4993 5.73325C74.245 6.18119 73.0315 6.74315 71.8832 7.41099C70.7756 8.07068 69.7086 8.81182 68.7069 9.62626C66.7604 11.2144 65.0012 13.0143 63.4619 15.0015C62.6963 15.9707 61.9715 16.9643 61.3037 17.9987C61.1163 18.2919 60.9372 18.5932 60.7498 18.8945C57.2885 19.0819 53.8434 19.5461 50.4554 20.2872C49.9748 20.385 49.4943 20.5071 49.0138 20.6212C46.09 21.2971 43.2232 22.1767 40.4296 23.2681C40.1364 23.0726 39.8351 22.8609 39.5338 22.6735C38.4994 22.0057 37.4244 21.403 36.333 20.8329C34.1096 19.6601 31.7559 18.7479 29.3289 18.1127C28.0746 17.7869 26.8041 17.5507 25.5173 17.4041C24.1898 17.2657 22.8541 17.2575 21.5347 17.3716C18.7819 17.5914 16.1187 18.4548 13.7568 19.8882C13.1704 20.2465 12.6166 20.6456 12.0791 21.0772C11.5334 21.5007 11.0203 21.9568 10.5317 22.4455C9.60322 23.3739 8.74805 24.3757 7.98248 25.4426C6.50021 27.4787 5.22969 29.6614 4.19536 31.9581C3.16102 34.206 2.30585 36.5271 1.62986 38.9053C0.937591 41.2997 0.44893 43.7512 0.180166 46.2352C-0.145609 48.8658 -0.0315854 51.5372 0.53852 54.1352C0.725841 54.8601 0.970167 55.5686 1.27151 56.2528C1.61357 57.0102 2.06153 57.7106 2.59092 58.3459C3.17731 59.0463 3.89401 59.6245 4.7003 60.0562C5.49845 60.4715 6.36174 60.7403 7.25762 60.8462C7.67299 60.9032 8.09651 60.9195 8.52001 60.9032C8.15352 61.9131 7.79517 62.923 7.4531 63.941C4.11391 74.0726 2.23255 84.6359 1.86606 95.3131C1.58915 105.966 2.64792 116.619 5.02607 127.011C7.3798 137.306 10.5479 147.478 14.9622 157.17C17.1693 162.016 19.7022 166.715 22.5365 171.219C25.3707 175.763 28.5877 180.047 32.1468 184.046C35.7303 188.069 39.7455 191.685 44.1109 194.829C48.5089 197.981 53.314 200.522 58.3798 202.395C63.47 204.268 68.8128 205.36 74.2206 205.62C79.5959 205.84 84.9793 205.36 90.2243 204.187C95.5019 203.12 100.608 201.353 105.422 198.934C110.251 196.466 114.682 193.274 118.55 189.462C122.411 185.667 125.75 181.367 128.478 176.675C131.182 172.001 133.365 167.049 134.986 161.893C136.199 158.033 137.16 154.107 137.869 150.125C138.097 148.83 138.309 147.527 138.48 146.215C139.221 140.93 139.595 135.595 139.604 130.252C139.62 119.583 138.333 108.988 136.191 98.6279C135.116 93.4074 133.723 88.2601 132.029 83.2025H132.037ZM62.9407 23.1296L63.3071 23.3251C63.5515 22.9342 63.8773 22.4455 64.1867 22.0138C64.4881 21.574 64.8301 21.1261 65.1478 20.6863C65.8156 19.8149 66.5079 18.9597 67.2327 18.1453C67.9576 17.3308 68.715 16.5734 69.505 15.8241C70.2706 15.0911 71.085 14.407 71.9402 13.7799C73.5609 12.5582 75.3608 11.6053 77.2747 10.9538C79.0828 10.3511 81.0049 10.1801 82.8862 10.457C83.3586 10.5221 83.8228 10.6117 84.2789 10.7257C84.735 10.8398 85.1829 10.9864 85.6227 11.1574C86.5675 11.5239 87.4796 11.9637 88.3511 12.4686C90.1998 13.5518 91.9346 14.8061 93.5553 16.215C96.8701 19.0411 99.7451 22.3559 102.091 26.0372C103.198 27.723 104.021 29.5881 104.534 31.5427C104.624 31.95 104.681 32.3653 104.705 32.7807C104.713 33.1146 104.689 33.4567 104.615 33.7824C104.567 34.0349 104.461 34.2793 104.306 34.491C104.159 34.7028 103.964 34.8819 103.744 35.0204C103.443 35.2077 103.117 35.3625 102.783 35.4765C102.368 35.6068 101.936 35.6964 101.496 35.7534C100.511 35.8837 99.5089 35.9244 98.5153 35.8756C97.994 35.8593 97.4565 35.8104 96.919 35.7615L95.2901 35.5579C94.7444 35.5091 94.215 35.3706 93.6775 35.2973C93.14 35.224 92.6187 35.0774 92.0894 34.9552C90.0125 34.4829 88.009 33.7173 86.144 32.683C85.6716 32.4223 85.2562 32.1291 84.8164 31.8359C84.3848 31.5265 83.9776 31.2007 83.5866 30.8505C83.2283 30.541 82.8944 30.2071 82.5686 29.8569C82.5523 29.8324 82.5279 29.8161 82.5034 29.7999C82.5034 29.7428 82.5035 29.6858 82.4872 29.6288C82.365 29.0587 81.9415 28.6271 81.4203 28.456C81.1596 28.3746 80.8827 28.3502 80.5977 28.4072C79.7506 28.5945 79.205 29.4252 79.376 30.2722C79.376 30.2804 79.376 30.2885 79.376 30.2967C79.3923 30.3781 79.4249 30.4595 79.4493 30.5328C79.547 30.7853 79.7099 31.0052 79.9054 31.1763C80.337 31.8522 80.8012 32.4956 81.3306 33.0983C81.7541 33.5788 82.2021 34.0431 82.6745 34.4829C82.9025 34.7028 83.1794 34.8901 83.4075 35.1018C83.6355 35.3136 83.9124 35.5172 84.1649 35.6964C86.2254 37.1705 88.4977 38.3189 90.9003 39.0926C91.4867 39.2799 92.0812 39.4916 92.6839 39.6301C93.2784 39.7686 93.8811 39.964 94.4838 40.078L96.2918 40.4283C96.9108 40.526 97.5298 40.6237 98.1651 40.6807C98.5886 40.7215 98.9876 40.754 99.403 40.7785C100.991 42.3422 102.53 43.9548 104.029 45.6325C110.789 53.2312 116.457 61.7502 120.847 70.9371C123.038 75.5223 124.936 80.2542 126.516 85.0838C128.12 89.9216 129.431 94.8571 130.441 99.8496C130.8 101.511 131.125 103.181 131.418 104.858C131.313 105.917 131.174 106.968 130.979 108.002C130.677 109.655 130.254 111.276 129.725 112.872C129.195 114.428 128.519 115.935 127.713 117.36C126.931 118.753 125.962 120.023 124.838 121.147C124.3 121.685 123.706 122.173 123.071 122.597C122.46 123.02 121.8 123.37 121.108 123.647C120.937 123.721 120.766 123.778 120.586 123.835C120.407 123.875 120.244 123.957 120.065 123.989L119.528 124.103L118.925 124.201C118.127 124.356 117.329 124.454 116.514 124.494L115.301 124.576C114.885 124.592 114.486 124.551 114.087 124.551C113.68 124.551 113.257 124.551 112.866 124.519L111.652 124.38C108.378 123.957 105.186 123.037 102.188 121.644C99.1261 120.243 96.2267 118.516 93.5309 116.497C90.8026 114.461 88.2289 112.229 85.8426 109.802C83.4482 107.351 81.1922 104.769 79.0909 102.065C76.9734 99.3528 75.0432 96.5022 73.2026 93.5865C71.3619 90.679 69.7249 87.633 68.1205 84.5707C64.993 78.3973 62.3868 71.9714 60.3263 65.3582C56.2053 52.0747 54.1773 38.2293 54.3076 24.3187L54.2832 24.0825V23.8789C57.1337 23.3902 60.0331 23.1378 62.9407 23.1215V23.1296ZM75.3934 189.755C71.8262 191.881 67.0129 191.221 65.726 189.006C64.4392 186.791 67.0047 183.126 70.572 181C74.1392 178.883 78.6349 178.068 79.9298 180.3C81.2166 182.531 78.9688 187.638 75.3934 189.763V189.755ZM132.355 150.117C131.761 153.57 130.995 156.982 129.993 160.33C128.592 165.151 126.662 169.802 124.251 174.199C121.955 178.345 119.129 182.157 115.871 185.577C115.92 184.73 115.855 183.875 115.667 183.012C113.696 173.89 99.0528 168.352 83.2201 171.772C67.3793 175.201 56.3437 186.269 58.3228 195.416C58.5183 196.328 58.8441 197.175 59.2676 197.948C54.837 196.181 50.6508 193.852 46.8067 191.018C42.7589 188.02 39.0532 184.584 35.7548 180.78C29.1171 173.165 23.864 164.28 19.6941 154.979C15.5242 145.678 12.4782 135.807 10.2385 125.781L9.83125 123.9L9.46474 122.019L9.09011 120.137C8.95165 119.518 8.82136 118.891 8.74806 118.256L8.16166 114.477C7.99063 113.214 7.86032 111.944 7.70558 110.673C7.16805 105.608 6.9563 100.509 7.07032 95.4109C7.32279 85.2304 8.99239 75.1395 12.0302 65.4233C12.6899 63.3302 13.4148 61.2534 14.2211 59.201C14.5957 59.0056 14.9704 58.802 15.3368 58.5902C15.8907 58.2726 16.4119 57.9386 16.9331 57.5884L18.4317 56.5215C18.9366 56.1713 19.4009 55.756 19.8814 55.3732C20.3619 54.9904 20.8261 54.5669 21.2822 54.1434C23.1554 52.4412 24.7599 50.454 26.0304 48.2631C26.2014 47.9944 26.3236 47.693 26.4783 47.408C26.6331 47.1229 26.7715 46.8379 26.8937 46.5447C27.138 45.9501 27.3579 45.3475 27.5452 44.7285C27.7896 43.9385 27.9606 43.1322 28.0746 42.3177C28.1642 42.0978 28.2049 41.8617 28.1887 41.6255C28.1887 41.5685 28.1805 41.5196 28.1724 41.4626C28.1724 41.4382 28.1724 41.4056 28.1642 41.3811C27.9769 40.526 27.1299 39.9803 26.2747 40.1595C25.9978 40.2165 25.7616 40.3468 25.5662 40.526C25.3544 40.7133 25.1997 40.9495 25.1101 41.2101C25.0205 41.4707 24.9961 41.7639 25.0612 42.0571C25.0775 42.1223 25.1019 42.1793 25.1182 42.2363C25.1182 42.2607 25.1019 42.277 25.0938 42.3015C24.9472 42.7494 24.7762 43.1892 24.5807 43.6208C24.369 44.1014 24.1246 44.5737 23.864 45.0298C23.5871 45.4778 23.3102 45.9257 23.0088 46.3492C21.7302 48.0595 20.2235 49.5825 18.5294 50.8775C18.0978 51.2114 17.6824 51.5453 17.2263 51.8467C16.7703 52.148 16.3386 52.4575 15.8662 52.7507L14.4654 53.6303C14.0012 53.8909 13.5288 54.1597 13.0646 54.3958C12.1768 54.8519 11.2402 55.2347 10.2873 55.5279C9.87197 55.6582 9.44033 55.7478 9.00053 55.8048C8.64218 55.8374 8.28383 55.8374 7.93362 55.7885C7.673 55.756 7.42866 55.6745 7.20876 55.5361C6.98886 55.4057 6.79341 55.2266 6.63867 55.0148C6.4432 54.7461 6.27216 54.4529 6.14185 54.1434C5.99525 53.7524 5.87308 53.3534 5.78349 52.9461C5.44143 50.9589 5.41699 48.9228 5.72648 46.9275C6.33731 42.6028 7.58339 38.4003 9.44031 34.4584C10.328 32.5119 11.395 30.6469 12.6248 28.8958C13.2112 28.0732 13.8627 27.2995 14.5713 26.5747C14.897 26.2408 15.2473 25.9231 15.6138 25.6299C15.9802 25.3367 16.3712 25.0598 16.7702 24.8074C18.3665 23.773 20.1909 23.1378 22.0804 22.9423C24.092 22.7468 26.1281 22.869 28.1072 23.3088C29.1415 23.5287 30.1677 23.8137 31.1695 24.164C32.1875 24.4979 33.1974 24.8969 34.1911 25.3367C35.1847 25.7765 36.1701 26.2733 37.1393 26.7864C37.6117 27.0471 38.0841 27.3158 38.5646 27.5927C39.0369 27.8696 39.5256 28.1791 39.9084 28.4235L40.1283 28.1303C43.0033 26.8435 45.9759 25.8091 49.0219 25.011C49.7957 24.8074 50.5694 24.6119 51.3431 24.449C51.7422 24.3594 52.1005 24.2861 52.4751 24.2047L52.581 24.1802C52.2552 31.1763 52.5321 38.4492 53.3873 45.4045C53.8027 48.9065 54.3565 52.4005 55.0569 55.87C55.7492 59.3313 56.588 62.7845 57.6061 66.1807C59.5852 72.9894 62.1344 79.6271 65.2211 86.0123C66.793 89.1886 68.4788 92.316 70.3439 95.3539C72.2089 98.3836 74.188 101.34 76.3544 104.166C78.5208 107 80.842 109.704 83.3098 112.27C85.8101 114.843 88.5058 117.23 91.3645 119.396C94.2476 121.595 97.3669 123.476 100.649 125.008C103.996 126.571 107.564 127.589 111.22 128.037L112.605 128.184C113.069 128.216 113.534 128.208 113.998 128.225C114.462 128.241 114.934 128.249 115.399 128.225L116.791 128.119C117.72 128.045 118.648 127.923 119.568 127.728L120.261 127.606L120.994 127.418C121.238 127.361 121.474 127.264 121.719 127.182C121.963 127.109 122.199 127.019 122.427 126.913C123.347 126.531 124.219 126.05 125.025 125.472C125.823 124.91 126.564 124.266 127.249 123.558C128.56 122.181 129.676 120.626 130.572 118.94C131.467 117.205 132.192 115.381 132.722 113.5C133.463 119.062 133.854 124.657 133.894 130.269C133.927 136.923 133.479 143.601 132.363 150.133L132.355 150.117ZM79.5308 30.7365C79.5308 30.7365 79.8972 31.331 80.0031 31.4857C80.1415 31.6812 80.6384 32.2513 80.6384 32.2513L84.3848 31.5265C83.212 30.6306 82.2509 29.1076 82.2509 29.1076L79.5308 30.7365Z" fill="#4C0054"/>
<path d="M25.0281 41.4961C25.0281 41.4961 24.7919 43.2879 24.0996 44.591L27.8542 43.5322C27.8542 43.5322 28.0171 42.9051 28.0578 42.6689C28.0904 42.4816 28.1637 41.9848 28.1637 41.9848L25.0281 41.5042V41.4961Z" fill="#4C0054"/>
<path d="M40.1788 28.0972C40.1788 28.0972 39.7064 28.2927 39.3155 28.0484C38.9897 27.8447 39.2829 28.5533 39.4376 28.6185C39.5924 28.6836 40.0973 28.8139 40.1625 28.6755C40.2276 28.537 40.1788 28.0972 40.1788 28.0972Z" fill="white"/>
<path d="M62.8262 23.1295C62.8262 23.1295 63.3393 23.1784 63.6325 22.8282C63.8849 22.535 63.8116 23.3006 63.6895 23.4064C63.5673 23.5123 63.1112 23.7811 63.0135 23.6752C62.9157 23.5693 62.8262 23.1295 62.8262 23.1295Z" fill="#FF7BC9"/>
<path d="M296.018 79.7097C296.018 78.5939 296.221 77.5514 296.637 76.5823C297.068 75.6131 297.638 74.7661 298.355 74.0494C299.088 73.3245 299.935 72.7463 300.904 72.3309C301.873 71.8993 302.924 71.6875 304.04 71.6875C305.156 71.6875 306.198 71.8993 307.175 72.3309C308.145 72.7463 308.992 73.3164 309.708 74.0494C310.441 74.7661 311.011 75.6049 311.427 76.5823C311.858 77.5514 312.07 78.5939 312.07 79.7097C312.07 80.8255 311.858 81.868 311.427 82.8371C311.011 83.8063 310.441 84.6615 309.708 85.3863C308.992 86.103 308.153 86.6731 307.175 87.1048C306.206 87.5201 305.156 87.7238 304.04 87.7238C302.924 87.7238 301.882 87.5201 300.904 87.1048C299.935 86.6731 299.08 86.103 298.355 85.3863C297.638 84.6615 297.068 83.8063 296.637 82.8371C296.221 81.868 296.018 80.8255 296.018 79.7097ZM307.493 77.975C307.338 77.1605 306.955 76.5253 306.353 76.0692C305.766 75.5968 305.058 75.3606 304.227 75.3606C303.6 75.3606 303.03 75.4665 302.533 75.6782C302.044 75.89 301.629 76.1913 301.287 76.5823C300.945 76.9651 300.676 77.4293 300.497 77.9505C300.326 78.4799 300.236 79.05 300.236 79.669C300.236 80.288 300.326 80.8418 300.513 81.3874C300.701 81.9168 300.961 82.3811 301.303 82.7801C301.662 83.1792 302.085 83.505 302.566 83.7412C303.062 83.9692 303.633 84.0832 304.26 84.0832C305.131 84.0832 305.832 83.8308 306.361 83.3339C306.907 82.8209 307.273 82.153 307.477 81.3386H308.291C308.218 81.8517 308.063 82.324 307.819 82.7557C307.591 83.1873 307.298 83.5457 306.939 83.847C306.597 84.1484 306.19 84.3846 305.717 84.5556C305.261 84.7103 304.773 84.7918 304.26 84.7918C303.527 84.7918 302.867 84.6615 302.264 84.409C301.662 84.1484 301.148 83.7982 300.717 83.3339C300.301 82.8779 299.984 82.3403 299.748 81.7295C299.52 81.1024 299.406 80.4183 299.406 79.6934C299.406 78.9686 299.512 78.2926 299.731 77.6818C299.959 77.0546 300.285 76.5171 300.701 76.0773C301.116 75.6375 301.613 75.2873 302.199 75.0511C302.786 74.7905 303.453 74.6683 304.195 74.6683C304.708 74.6683 305.196 74.7416 305.652 74.8801C306.125 75.0267 306.54 75.2384 306.898 75.5235C307.273 75.8086 307.574 76.1588 307.819 76.5741C308.063 76.9895 308.218 77.4619 308.291 77.9912H307.477L307.493 77.975ZM304.064 72.4042C303.038 72.4042 302.077 72.5915 301.189 72.958C300.301 73.3327 299.536 73.8458 298.893 74.4973C298.249 75.157 297.744 75.9226 297.37 76.8103C297.011 77.698 296.832 78.6509 296.832 79.6853C296.832 80.7196 297.019 81.6562 297.386 82.5602C297.76 83.448 298.265 84.2217 298.909 84.8977C299.552 85.5574 300.31 86.0786 301.181 86.4614C302.069 86.836 303.03 87.0152 304.056 87.0152C305.082 87.0152 306.035 86.8197 306.907 86.4369C307.778 86.0542 308.535 85.5329 309.179 84.8732C309.822 84.2054 310.319 83.4235 310.677 82.5358C311.052 81.6481 311.231 80.7033 311.231 79.6853C311.231 78.6672 311.044 77.698 310.677 76.8103C310.319 75.9226 309.822 75.157 309.179 74.5136C308.552 73.8539 307.794 73.3408 306.907 72.9743C306.035 72.5915 305.082 72.3961 304.056 72.3961L304.064 72.4042Z" fill="#4C0054"/>
<path d="M208.692 28.0972C208.692 28.0972 208.22 28.2927 207.829 28.0484C207.503 27.8447 207.797 28.5533 207.951 28.6185C208.106 28.6836 208.611 28.8139 208.676 28.6755C208.741 28.537 208.692 28.0972 208.692 28.0972Z" fill="white"/>
<path d="M231.342 23.1295C231.342 23.1295 231.855 23.1784 232.148 22.8282C232.401 22.535 232.327 23.3006 232.205 23.4064C232.083 23.5123 231.627 23.7811 231.529 23.6752C231.431 23.5693 231.342 23.1295 231.342 23.1295Z" fill="#FF7BC9"/>
</svg>
