<svg width="141" height="92" viewBox="0 0 141 92" fill="none" xmlns="http://www.w3.org/2000/svg">
<path d="M71.2537 8.58239C67.7272 8.81554 65.5377 10.6808 64.5832 13.854L64.2334 13.7556C64.6633 11.8357 64.8601 10.3311 64.8091 9.33651L60.0074 9.6571L61.6031 33.5996L66.3537 33.2826L66.0295 28.4082C65.9056 26.5283 65.5595 25.0201 64.8309 22.9909L65.1479 22.8306C66.5104 25.8325 68.9476 27.4209 72.4887 27.1841C77.3887 26.8562 79.7604 23.592 79.3633 17.6064L79.3341 17.1801C78.937 11.2127 76.1464 8.25451 71.2501 8.57874L71.2537 8.58239ZM69.6617 11.781C72.6017 11.5843 74.2811 13.4496 74.5398 17.3295L74.5908 18.1164C74.8494 22.0145 73.4323 24.102 70.4923 24.2987C67.4394 24.5028 65.6324 22.5282 65.3737 18.6446L65.3337 18.029C65.075 14.1636 66.6051 11.985 69.658 11.781H69.6617Z" fill="white"/>
<path d="M86.3195 5.77374L86.079 2.18164L80.9823 2.52045L81.2228 6.11255L86.3195 5.77374ZM87.478 25.8655L86.283 7.9086L81.5324 8.22555L82.7274 26.1824L87.478 25.8655Z" fill="white"/>
<path d="M95.512 25.3289L94.9546 16.9825C94.685 12.946 96.3317 10.312 99.3336 10.1116C101.57 9.96226 102.762 11.1208 102.918 13.4451L103.673 24.7824L108.423 24.4655L107.589 11.9295C107.338 8.16621 105.101 6.32279 101.181 6.5851C97.6214 6.8219 95.3299 8.62524 94.0876 12.1408L93.7488 12.0097C94.2661 9.92947 94.4154 8.70174 94.3244 7.36837L89.5555 7.68532L90.7505 25.6422L95.5011 25.3252L95.512 25.3289Z" fill="white"/>
<path d="M116.382 23.9425L115.97 17.7529L118.105 15.0679L123.045 23.498L127.992 23.1702L121.285 12.106L126.568 5.22786L121.424 5.57031L115.438 13.4576L115.15 13.3228C115.409 11.2791 115.445 9.85096 115.296 7.61045L114.79 0L110.039 0.316951L111.635 24.2594L116.385 23.9425H116.382Z" fill="white"/>
<path d="M78.6078 48.4534C82.1344 48.6975 84.5534 47.1455 85.9268 44.129L86.262 44.2711C85.5771 46.1145 85.18 47.5827 85.0962 48.57L89.8978 48.9015L91.5518 24.9626L86.8012 24.6348L86.466 29.5092C86.3349 31.3891 86.477 32.9301 86.9214 35.0395L86.5862 35.1524C85.639 31.9938 83.4422 30.0885 79.8975 29.8444C75.0012 29.5056 72.2069 32.4237 71.7916 38.4093L71.7624 38.8356C71.3508 44.803 73.7152 48.1109 78.6115 48.4497L78.6078 48.4534ZM80.6152 45.4988C77.6752 45.2948 76.2762 43.2219 76.5458 39.342L76.6005 38.5551C76.8701 34.6569 78.5423 32.7771 81.4786 32.9811C84.5498 33.1924 86.0544 35.3929 85.7848 39.2728L85.741 39.8884C85.4751 43.7538 83.6827 45.7065 80.6116 45.4952L80.6152 45.4988Z" fill="white"/>
<path d="M102.095 50.1778C108.023 50.5858 111.75 47.6822 112.165 41.6638L112.198 41.1866C112.613 35.1682 109.32 31.7801 103.392 31.3684C97.4321 30.9568 93.7234 33.864 93.3081 39.8824L93.2753 40.3596C92.86 46.378 96.1352 49.7661 102.095 50.1778ZM102.314 47.0301C99.4249 46.8298 97.8511 44.9026 98.1243 40.9498L98.1935 39.9589C98.4668 36.0097 100.288 34.3121 103.177 34.5124C106.052 34.7091 107.626 36.64 107.352 40.5891L107.283 41.58C107.01 45.5292 105.188 47.2269 102.314 47.0265V47.0301Z" fill="white"/>
<path d="M121.833 46.5729C118.238 45.9281 117.4 45.4581 117.458 44.6202C117.502 44.0045 118.012 43.7131 119.232 43.6584C120.241 43.9863 121.444 44.1903 122.799 44.2814C128.187 44.653 131.167 42.8314 131.426 39.0863C131.601 36.5544 130.431 34.7401 127.994 33.6945C127.95 32.1972 128.85 32.0005 132.409 31.9714L132.173 28.0222C127.914 27.9348 126.001 29.9859 126.42 33.1736C125.582 32.9623 124.639 32.8275 123.593 32.7546C118.19 32.383 115.177 34.2009 114.919 37.946C114.777 39.9971 115.52 41.5782 117.119 42.6675L117.097 42.9917C114.955 43.152 113.859 44.0555 113.749 45.6111C113.64 47.1667 114.558 48.1394 116.165 48.8863L116.143 49.1923C113.691 49.5384 112.66 50.6714 112.54 52.431C112.325 55.5422 114.944 57.0468 121.655 57.5095C128.708 57.9977 131.63 56.5332 131.899 52.6314C132.162 48.8171 129.014 47.8261 125.433 47.2032L121.837 46.5583L121.833 46.5729ZM123.411 35.3777C125.793 35.5416 126.85 36.6272 126.704 38.7657C126.555 40.9188 125.36 41.8332 122.977 41.6693C120.562 41.5017 119.487 40.4306 119.637 38.2776C119.786 36.1391 120.996 35.2101 123.415 35.3777H123.411ZM122.118 54.5659C117.757 54.2635 116.125 53.4475 116.249 51.6696C116.314 50.6933 116.886 50.0302 118.423 49.6368C118.908 49.757 119.425 49.859 119.975 49.9501L123.608 50.5439C127.258 51.1377 128.121 51.6805 128.041 52.8427C127.939 54.2963 126.344 54.8573 122.114 54.5622L122.118 54.5659Z" fill="white"/>
<path d="M74.0485 56.9536C68.9518 57.2596 65.0464 62.0175 65.3233 67.5733C65.6002 73.129 69.9537 77.3842 75.0504 77.0781L127.008 74.058C132.105 73.7483 136.01 68.9977 135.734 63.4384C135.457 57.8826 131.103 53.6275 126.007 53.9335L74.0485 56.9536Z" fill="white"/>
<path d="M69.7021 68.618L72.2377 68.3047C71.6184 70.6072 72.6093 71.762 74.2159 71.7037C75.338 71.6636 76.1286 71.1718 76.114 70.1736C76.1103 69.4341 75.7315 68.9022 74.5875 68.0315L73.4545 67.1717C72.3252 66.301 71.622 65.4558 71.633 64.2426C71.6366 62.1806 73.1594 60.7853 76.1067 60.676C79.2507 60.5595 81.0868 62.1114 80.3582 64.9494L77.8117 65.2154C78.4128 63.2736 77.5639 62.2972 76.0848 62.3519C74.8717 62.3956 74.3034 62.9493 74.2851 63.7945C74.2851 64.4321 74.5438 64.8401 75.7096 65.6744L76.8754 66.5123C78.0303 67.3611 78.8609 68.2792 78.8463 69.762C78.8317 71.8349 77.2069 73.3067 74.2378 73.416C70.7586 73.5435 68.7185 71.813 69.6985 68.6217L69.7021 68.618Z" fill="#4C0054"/>
<path d="M81.8841 69.5116L84.11 62.6735L82.4123 62.7354L83.0753 60.6625L84.773 60.6006L85.7494 57.5804L88.7877 56.8555L87.6147 60.4986L90.7805 60.382L90.1066 62.4549L86.9516 62.5715L84.8022 69.1874C84.4707 70.2512 84.8386 70.794 85.866 70.7576C86.3396 70.7393 86.9152 70.6264 87.4726 70.375L86.7622 72.437C86.0481 72.8086 85.3013 72.9981 84.5144 73.0272C82.1354 73.1146 81.1482 71.8104 81.8841 69.5153V69.5116Z" fill="#4C0054"/>
<path d="M102.274 59.9548L98.3065 72.2503L95.5669 72.3523C95.6799 71.6419 96.1753 70.6765 97.1262 69.1573L96.9258 69.0261C95.188 71.5071 93.8656 72.6219 91.993 72.6911C89.8655 72.7676 88.8927 71.427 89.7015 68.9351L92.4849 60.3155L95.3156 60.2098L92.5541 68.7566C92.1497 70.0098 92.4994 70.6692 93.5268 70.6291C95.0642 70.5708 96.7509 68.3121 97.6544 65.5361L99.4323 60.0568L102.274 59.9512V59.9548Z" fill="#4C0054"/>
<path d="M102.443 65.792L102.65 65.1471C103.816 61.5769 105.711 59.6205 108.031 59.5331C110.064 59.4566 111.081 60.6115 111.132 62.6917L111.398 62.6698C111.51 61.0341 111.704 59.9958 112.079 58.8373L113.146 55.5002L115.988 55.3945L110.702 71.7885L108.009 71.8869C108.104 71.2821 108.501 70.4916 109.463 68.987L109.237 68.8449C107.711 71.0635 106.559 72.1492 104.676 72.2184C102.02 72.3168 101.077 69.967 102.435 65.7883L102.443 65.792ZM109.678 66.2437L109.958 65.3657C110.8 62.7427 110.228 61.3401 108.585 61.402C107.281 61.4494 106.239 62.7135 105.47 65.0815L105.157 66.0397C104.181 69.0744 104.829 70.3203 106.239 70.2693C107.58 70.2183 108.942 68.5498 109.678 66.2437Z" fill="#4C0054"/>
<path d="M113.201 71.7005L117.168 59.4051L120.01 59.2994L116.042 71.5949L113.201 71.7005ZM117.54 57.9114L118.319 55.4997L121.379 55.3867L120.6 57.7985L117.54 57.9114Z" fill="#4C0054"/>
<path d="M120.426 64.3632L120.509 64.1045C121.62 60.6727 123.533 58.8803 126.156 58.7819C129.945 58.6435 131.595 61.66 130.204 65.9916L130.12 66.2503C129.02 69.6712 127.118 71.4745 124.495 71.5729C120.681 71.7149 119.03 68.6984 120.422 64.3632H120.426ZM127.296 66.1701L127.763 64.6837C128.572 62.1664 128.007 60.6472 126.182 60.7164C124.91 60.7638 124.149 61.7292 123.347 64.1883L122.903 65.58C122.061 68.1921 122.662 69.6967 124.509 69.6274C125.755 69.5801 126.51 68.6292 127.296 66.1701Z" fill="#4C0054"/>
<path d="M17.6995 32.4318C16.3479 32.3298 15.0801 33.5284 14.3041 35.4046C15.5319 35.3645 16.6466 36.2024 16.9162 37.4447C17.2186 38.8437 16.3297 40.2244 14.9307 40.5268C14.4608 40.6288 13.9908 40.5924 13.5646 40.4503C13.7904 43.332 15.0947 45.547 16.8215 45.6745C18.8726 45.8312 20.7306 42.9895 20.9746 39.3319C21.2187 35.6742 19.7506 32.5848 17.6995 32.4282V32.4318Z" fill="white"/>
<path d="M41.587 33.1452C41.8894 34.5441 41.0005 35.9249 39.6015 36.2272C39.4376 36.2637 39.2736 36.2819 39.1097 36.2855C40.5159 38.9523 42.7054 40.5261 44.3776 39.9031C46.3048 39.1891 46.8076 35.8301 45.5033 32.4056C44.1955 28.9811 41.5724 26.788 39.6416 27.502C38.4139 27.9574 37.7654 29.4911 37.7945 31.4293C38.0095 31.309 38.2499 31.218 38.5013 31.1633C39.9002 30.8609 41.281 31.7499 41.5834 33.1488L41.587 33.1452Z" fill="white"/>
<path d="M59.7658 37.2167C58.9971 34.9543 58.0827 32.743 57.0299 30.5972C54.8877 26.3202 52.1517 22.3638 48.9057 18.8554C48.5815 18.5057 48.25 18.1669 47.9148 17.8244C48.0533 17.7662 48.1917 17.6933 48.3192 17.6168C48.6653 17.4091 48.9677 17.1395 49.2154 16.8226C49.4668 16.4984 49.6489 16.1304 49.7582 15.7369C49.8602 15.3799 49.9112 15.0083 49.9112 14.6404C49.9112 14.3052 49.8821 13.97 49.8238 13.6385C49.5797 12.3817 49.0697 11.3361 48.5087 10.3561C47.9403 9.39795 47.2882 8.48717 46.5632 7.63833C45.8455 6.79677 45.0695 6.00986 44.2353 5.28488C43.3901 4.54169 42.472 3.88593 41.492 3.32853C40.982 3.03709 40.4501 2.78571 39.9 2.57806C39.6122 2.46876 39.3171 2.37769 39.0183 2.30847C38.7196 2.23925 38.4136 2.1846 38.1076 2.15181C36.8798 2.00609 35.6376 2.14453 34.4754 2.56348C33.9144 2.76385 33.3715 3.01523 32.8579 3.31396C32.3624 3.60906 31.8851 3.94058 31.437 4.30489C30.5663 5.01529 29.7794 5.82042 29.0909 6.70934C28.7484 7.14287 28.4242 7.58733 28.1255 8.05C28.0417 8.18115 27.9615 8.31595 27.8777 8.45074C26.3294 8.53453 24.7884 8.74219 23.2729 9.07371C23.0579 9.11743 22.843 9.17207 22.628 9.22308C21.3201 9.52546 20.0378 9.91891 18.7882 10.4071C18.657 10.3197 18.5223 10.2249 18.3875 10.1411C17.9248 9.84241 17.4439 9.57282 16.9557 9.3178C15.9611 8.79319 14.9083 8.38517 13.8226 8.101C13.2616 7.95528 12.6933 7.84963 12.1177 7.78405C11.5238 7.72212 10.9264 7.71848 10.3362 7.76948C9.10481 7.86784 7.91352 8.25401 6.85702 8.8952C6.59472 9.0555 6.34699 9.23401 6.10654 9.42709C5.86245 9.61654 5.63294 9.82055 5.41435 10.0391C4.99904 10.4544 4.61651 10.9026 4.27406 11.3798C3.61102 12.2906 3.04269 13.2669 2.58002 14.2943C2.11735 15.2998 1.73481 16.3381 1.43243 17.4018C1.12277 18.4729 0.904183 19.5695 0.78396 20.6806C0.638236 21.8574 0.68924 23.0523 0.944258 24.2145C1.02805 24.5387 1.13734 24.8556 1.27214 25.1617C1.42515 25.5005 1.62553 25.8138 1.86233 26.0979C2.12463 26.4112 2.44522 26.6699 2.80589 26.863C3.16291 27.0488 3.54908 27.169 3.94982 27.2164C4.13562 27.2419 4.32507 27.2492 4.51451 27.2419C4.35057 27.6936 4.19027 28.1454 4.03726 28.6008C2.54359 33.1328 1.70203 37.8579 1.53809 42.634C1.41422 47.3992 1.88783 52.1644 2.95161 56.813C4.00447 61.4178 5.42163 65.9681 7.39619 70.3034C8.38348 72.471 9.51649 74.5731 10.7843 76.5877C12.0521 78.6206 13.4911 80.5369 15.0831 82.3256C16.6861 84.1253 18.4822 85.7429 20.4349 87.1491C22.4022 88.559 24.5516 89.6956 26.8176 90.5335C29.0945 91.3714 31.4844 91.8596 33.9034 91.9762C36.3079 92.0746 38.716 91.8596 41.0621 91.335C43.4229 90.8578 45.7071 90.0672 47.8602 88.9852C50.0205 87.8814 52.0024 86.4533 53.7329 84.7483C55.4597 83.0506 56.9534 81.127 58.1738 79.0286C59.3833 76.9375 60.3597 74.7225 61.0846 72.4164C61.6275 70.6895 62.0574 68.9336 62.3743 67.1521C62.4763 66.5728 62.571 65.9899 62.6475 65.4034C62.9791 63.039 63.1466 60.6528 63.1503 58.2629C63.1576 53.4904 62.582 48.7508 61.6238 44.1167C61.1429 41.7815 60.52 39.4791 59.7622 37.2167H59.7658ZM28.8577 10.3452L29.0217 10.4326C29.131 10.2577 29.2767 10.0391 29.4151 9.84605C29.5499 9.64932 29.7029 9.44895 29.845 9.25222C30.1437 8.86241 30.4534 8.47989 30.7776 8.11558C31.1019 7.75127 31.4407 7.41245 31.7941 7.07729C32.1365 6.74941 32.5008 6.44339 32.8834 6.16287C33.6083 5.61641 34.4135 5.19016 35.2696 4.89871C36.0784 4.62912 36.9381 4.55262 37.7797 4.67648C37.991 4.70563 38.1986 4.7457 38.4027 4.79671C38.6067 4.84771 38.807 4.91329 39.0038 4.98979C39.4264 5.15373 39.8344 5.35046 40.2242 5.57633C41.0512 6.06086 41.8272 6.6219 42.5522 7.25216C44.0349 8.51632 45.3209 9.99906 46.3701 11.6457C46.8656 12.3999 47.2336 13.2341 47.4631 14.1085C47.5032 14.2906 47.5286 14.4764 47.5396 14.6622C47.5432 14.8116 47.5323 14.9646 47.4995 15.1103C47.4776 15.2233 47.4303 15.3326 47.3611 15.4273C47.2955 15.522 47.208 15.6022 47.1097 15.6641C46.9749 15.7479 46.8292 15.8171 46.6798 15.8681C46.494 15.9264 46.3009 15.9665 46.1042 15.992C45.6634 16.0503 45.2153 16.0685 44.7708 16.0466C44.5377 16.0393 44.2972 16.0175 44.0568 15.9956L43.3281 15.9045C43.0841 15.8827 42.8473 15.8207 42.6068 15.788C42.3664 15.7552 42.1332 15.6896 41.8964 15.6349C40.9674 15.4236 40.0712 15.0812 39.2369 14.6185C39.0256 14.5019 38.8398 14.3708 38.6431 14.2396C38.45 14.1012 38.2679 13.9555 38.093 13.7988C37.9327 13.6604 37.7833 13.511 37.6376 13.3544C37.6303 13.3434 37.6194 13.3361 37.6085 13.3289C37.6085 13.3034 37.6085 13.2779 37.6012 13.2524C37.5465 12.9973 37.3571 12.8043 37.1239 12.7277C37.0074 12.6913 36.8835 12.6804 36.756 12.7059C36.3771 12.7897 36.133 13.1613 36.2095 13.5402C36.2095 13.5438 36.2095 13.5474 36.2095 13.5511C36.2168 13.5875 36.2314 13.624 36.2423 13.6567C36.286 13.7697 36.3589 13.868 36.4463 13.9445C36.6394 14.2469 36.847 14.5347 37.0839 14.8043C37.2733 15.0193 37.4737 15.2269 37.685 15.4236C37.787 15.522 37.9109 15.6058 38.0129 15.7005C38.1149 15.7952 38.2387 15.8863 38.3517 15.9665C39.2734 16.6259 40.2898 17.1395 41.3645 17.4856C41.6268 17.5694 41.8928 17.6642 42.1623 17.7261C42.4283 17.788 42.6979 17.8755 42.9675 17.9265L43.7762 18.0831C44.0531 18.1268 44.33 18.1705 44.6142 18.196C44.8036 18.2143 44.9821 18.2288 45.1679 18.2398C45.8783 18.9392 46.5669 19.6606 47.2372 20.4111C50.261 23.8101 52.7966 27.6208 54.7602 31.7302C55.7402 33.7812 56.5891 35.8979 57.2958 38.0583C58.0135 40.2223 58.6001 42.43 59.0518 44.6632C59.2121 45.4064 59.3578 46.1532 59.489 46.9037C59.4416 47.3773 59.3797 47.8473 59.2922 48.3099C59.1574 49.0495 58.968 49.7745 58.7312 50.4885C58.4944 51.1844 58.192 51.8583 57.8313 52.4959C57.4816 53.1188 57.0481 53.6872 56.5453 54.1899C56.3049 54.4304 56.0389 54.649 55.7548 54.8384C55.4815 55.0278 55.1865 55.1845 54.8768 55.3084C54.8003 55.3411 54.7238 55.3666 54.6436 55.3921C54.5635 55.4104 54.4906 55.4468 54.4105 55.4614L54.17 55.5124L53.9004 55.5561C53.5434 55.6253 53.1864 55.669 52.8221 55.6872L52.2793 55.7237C52.0935 55.731 51.9149 55.7127 51.7364 55.7127C51.5543 55.7127 51.3648 55.7127 51.19 55.6982L50.6471 55.6362C49.1826 55.4468 47.7545 55.0351 46.4139 54.4121C45.0441 53.7855 43.7471 53.0132 42.5412 52.1097C41.3208 51.1989 40.1696 50.2007 39.1021 49.1151C38.0311 48.0185 37.0219 46.8636 36.082 45.6541C35.1348 44.441 34.2714 43.1659 33.448 41.8617C32.6247 40.5611 31.8924 39.1985 31.1747 37.8287C29.7758 35.0673 28.61 32.1929 27.6883 29.2347C25.8449 23.2927 24.9377 17.0995 24.996 10.877L24.9851 10.7714V10.6803C26.2602 10.4617 27.5571 10.3488 28.8577 10.3415V10.3452ZM34.428 84.8794C32.8324 85.8303 30.6793 85.5352 30.1037 84.5443C29.5281 83.5533 30.6756 81.914 32.2713 80.9631C33.867 80.0159 35.878 79.6516 36.4572 80.6498C37.0329 81.648 36.0274 83.9322 34.428 84.8831V84.8794ZM59.9079 67.1484C59.642 68.6931 59.2995 70.2196 58.8514 71.7169C58.2248 73.8736 57.3614 75.9538 56.283 77.9211C55.2557 79.7754 53.9915 81.4804 52.5343 83.0105C52.5561 82.6316 52.527 82.2491 52.4432 81.8629C51.5616 77.7827 45.0113 75.3054 37.9291 76.8355C30.8432 78.3692 25.9068 83.3202 26.7921 87.4114C26.8795 87.8194 27.0253 88.1983 27.2147 88.5444C25.2328 87.7538 23.3603 86.7119 21.6407 85.4441C19.8301 84.1035 18.1725 82.5661 16.6971 80.8647C13.7279 77.4584 11.3781 73.4838 9.51285 69.3234C7.64758 65.163 6.28505 60.7475 5.2832 56.2628L5.10104 55.4213L4.9371 54.5797L4.76952 53.7382C4.70759 53.4613 4.6493 53.1808 4.61651 52.8966L4.35421 51.2062C4.2777 50.6415 4.21942 50.0732 4.1502 49.5049C3.90975 47.2389 3.81503 44.9583 3.86603 42.6777C3.97897 38.1238 4.72581 33.61 6.08468 29.2638C6.37978 28.3275 6.70401 27.3985 7.06468 26.4805C7.23226 26.393 7.39985 26.302 7.56379 26.2072C7.81152 26.0652 8.04467 25.9158 8.27783 25.7591L8.94816 25.2819C9.17403 25.1252 9.38169 24.9394 9.59663 24.7682C9.81158 24.597 10.0192 24.4075 10.2232 24.2181C11.0612 23.4567 11.7789 22.5678 12.3472 21.5878C12.4237 21.4676 12.4783 21.3328 12.5475 21.2052C12.6168 21.0777 12.6787 20.9502 12.7334 20.8191C12.8426 20.5531 12.941 20.2835 13.0248 20.0067C13.1341 19.6533 13.2106 19.2926 13.2616 18.9283C13.3017 18.8299 13.3199 18.7243 13.3126 18.6186C13.3126 18.5931 13.309 18.5713 13.3053 18.5458C13.3053 18.5349 13.3053 18.5203 13.3017 18.5094C13.2179 18.1268 12.839 17.8827 12.4565 17.9629C12.3326 17.9884 12.227 18.0467 12.1395 18.1268C12.0448 18.2106 11.9756 18.3163 11.9355 18.4328C11.8954 18.5494 11.8845 18.6806 11.9137 18.8117C11.9209 18.8409 11.9319 18.8664 11.9391 18.8919C11.9391 18.9028 11.9319 18.9101 11.9282 18.921C11.8626 19.1214 11.7861 19.3181 11.6987 19.5112C11.604 19.7262 11.4947 19.9374 11.3781 20.1415C11.2543 20.3418 11.1304 20.5422 10.9956 20.7316C10.4236 21.4967 9.74964 22.178 8.99188 22.7572C8.79879 22.9066 8.613 23.0559 8.40899 23.1907C8.20497 23.3255 8.01188 23.464 7.80058 23.5951L7.17397 23.9886C6.96631 24.1052 6.75501 24.2254 6.54736 24.331C6.15026 24.535 5.7313 24.7063 5.30505 24.8374C5.11926 24.8957 4.92618 24.9358 4.72945 24.9613C4.56915 24.9759 4.40886 24.9759 4.2522 24.954C4.13562 24.9394 4.02633 24.903 3.92796 24.8411C3.8296 24.7828 3.74217 24.7026 3.67295 24.6079C3.58552 24.4877 3.50901 24.3565 3.45072 24.2181C3.38514 24.0432 3.33049 23.8647 3.29042 23.6826C3.13741 22.7936 3.12648 21.8829 3.26491 20.9903C3.53815 19.0558 4.09554 17.176 4.92617 15.4127C5.32327 14.542 5.80052 13.7077 6.35062 12.9245C6.61293 12.5565 6.90438 12.2104 7.22133 11.8862C7.36706 11.7368 7.52371 11.5947 7.68765 11.4636C7.85159 11.3324 8.02645 11.2086 8.20496 11.0956C8.91901 10.633 9.73508 10.3488 10.5803 10.2614C11.4801 10.1739 12.3909 10.2286 13.2762 10.4253C13.7388 10.5237 14.1979 10.6512 14.646 10.8078C15.1014 10.9572 15.5531 11.1357 15.9976 11.3324C16.442 11.5292 16.8828 11.7514 17.3164 11.9809C17.5277 12.0975 17.739 12.2177 17.9539 12.3416C18.1652 12.4654 18.3838 12.6039 18.555 12.7132L18.6534 12.582C19.9394 12.0064 21.2691 11.5437 22.6317 11.1867C22.9778 11.0956 23.3239 11.0082 23.67 10.9353C23.8485 10.8953 24.0088 10.8625 24.1763 10.826L24.2237 10.8151C24.078 13.9445 24.2018 17.1978 24.5844 20.309C24.7702 21.8756 25.0179 23.4385 25.3312 24.9904C25.6409 26.5388 26.0161 28.0834 26.4715 29.6026C27.3568 32.6482 28.4971 35.6174 29.8778 38.4736C30.5809 39.8944 31.335 41.2933 32.1693 42.6522C33.0036 44.0074 33.8889 45.3299 34.8579 46.594C35.827 47.8619 36.8653 49.0714 37.9691 50.2189C39.0876 51.3702 40.2934 52.4376 41.5722 53.4067C42.8618 54.3903 44.2571 55.2319 45.7253 55.9168C47.2226 56.6162 48.8183 57.0716 50.4541 57.272L51.0734 57.3376C51.281 57.3521 51.4887 57.3485 51.6964 57.3558C51.904 57.3594 52.1153 57.3667 52.323 57.3558L52.9459 57.3084C53.3613 57.2756 53.7766 57.221 54.1882 57.1336L54.4979 57.0789L54.8258 56.9951C54.9351 56.9696 55.0407 56.9259 55.15 56.8895C55.2593 56.8567 55.365 56.8166 55.467 56.7692C55.8786 56.598 56.2685 56.3831 56.6291 56.1244C56.9861 55.873 57.3177 55.5852 57.6237 55.2683C58.2102 54.6526 58.7093 53.9568 59.1101 53.2026C59.5108 52.4267 59.8351 51.6106 60.0719 50.769C60.4034 53.2573 60.5783 55.7601 60.5965 58.2702C60.611 61.2466 60.4107 64.234 59.9116 67.1557L59.9079 67.1484ZM36.2787 13.7478C36.2787 13.7478 36.4427 14.0138 36.49 14.083C36.552 14.1704 36.7742 14.4254 36.7742 14.4254L38.45 14.1012C37.9254 13.7005 37.4955 13.0192 37.4955 13.0192L36.2787 13.7478Z" fill="white"/>
<path d="M133.116 35.6549C133.116 35.1558 133.207 34.6894 133.393 34.2559C133.586 33.8224 133.841 33.4435 134.162 33.1229C134.49 32.7987 134.868 32.54 135.302 32.3542C135.735 32.1611 136.205 32.0664 136.705 32.0664C137.204 32.0664 137.67 32.1611 138.107 32.3542C138.541 32.54 138.92 32.795 139.24 33.1229C139.568 33.4435 139.823 33.8187 140.009 34.2559C140.202 34.6894 140.297 35.1558 140.297 35.6549C140.297 36.154 140.202 36.6203 140.009 37.0538C139.823 37.4873 139.568 37.8699 139.24 38.1941C138.92 38.5147 138.544 38.7697 138.107 38.9628C137.674 39.1486 137.204 39.2397 136.705 39.2397C136.205 39.2397 135.739 39.1486 135.302 38.9628C134.868 38.7697 134.486 38.5147 134.162 38.1941C133.841 37.8699 133.586 37.4873 133.393 37.0538C133.207 36.6203 133.116 36.154 133.116 35.6549ZM138.249 34.8789C138.18 34.5146 138.009 34.2304 137.739 34.0264C137.477 33.8151 137.16 33.7094 136.788 33.7094C136.508 33.7094 136.253 33.7568 136.031 33.8515C135.812 33.9462 135.626 34.081 135.473 34.2559C135.32 34.4271 135.2 34.6348 135.12 34.868C135.043 35.1048 135.003 35.3598 135.003 35.6367C135.003 35.9135 135.043 36.1613 135.127 36.4053C135.211 36.6421 135.327 36.8498 135.48 37.0283C135.641 37.2068 135.83 37.3526 136.045 37.4582C136.267 37.5602 136.522 37.6112 136.803 37.6112C137.193 37.6112 137.506 37.4983 137.743 37.276C137.987 37.0465 138.151 36.7478 138.242 36.3835H138.606C138.573 36.613 138.504 36.8243 138.395 37.0174C138.293 37.2105 138.162 37.3708 138.001 37.5056C137.848 37.6404 137.666 37.746 137.455 37.8225C137.251 37.8917 137.032 37.9282 136.803 37.9282C136.475 37.9282 136.18 37.8699 135.91 37.7569C135.641 37.6404 135.411 37.4837 135.218 37.276C135.032 37.072 134.89 36.8316 134.785 36.5584C134.683 36.2778 134.632 35.9718 134.632 35.6476C134.632 35.3233 134.679 35.021 134.777 34.7477C134.879 34.4672 135.025 34.2268 135.211 34.03C135.397 33.8333 135.619 33.6767 135.881 33.571C136.143 33.4544 136.442 33.3998 136.774 33.3998C137.003 33.3998 137.222 33.4326 137.426 33.4945C137.637 33.5601 137.823 33.6548 137.983 33.7823C138.151 33.9098 138.286 34.0665 138.395 34.2523C138.504 34.4381 138.573 34.6494 138.606 34.8862H138.242L138.249 34.8789ZM136.715 32.387C136.256 32.387 135.827 32.4708 135.429 32.6347C135.032 32.8023 134.69 33.0318 134.402 33.3233C134.114 33.6184 133.888 33.9608 133.721 34.3579C133.561 34.755 133.48 35.1813 133.48 35.6439C133.48 36.1066 133.564 36.5256 133.728 36.93C133.896 37.3271 134.122 37.6731 134.409 37.9755C134.697 38.2706 135.036 38.5038 135.426 38.675C135.823 38.8426 136.253 38.9227 136.712 38.9227C137.171 38.9227 137.597 38.8353 137.987 38.6641C138.377 38.4928 138.716 38.2597 139.003 37.9646C139.291 37.6659 139.513 37.3161 139.674 36.919C139.841 36.5219 139.921 36.0993 139.921 35.6439C139.921 35.1885 139.838 34.755 139.674 34.3579C139.513 33.9608 139.291 33.6184 139.003 33.3306C138.723 33.0355 138.384 32.806 137.987 32.642C137.597 32.4708 137.171 32.3834 136.712 32.3834L136.715 32.387Z" fill="white"/>
</svg>
