<svg width="204" height="80" viewBox="0 0 204 80" fill="none" xmlns="http://www.w3.org/2000/svg">
<g clip-path="url(#clip0_1368_6955)">
<path d="M54.4714 42.9984V37.1291C54.5019 36.7487 54.5602 35.7189 55.2932 34.9275C56.2342 33.8698 57.5253 33.9586 58.8442 34.1057V35.866C58.375 35.6605 57.9641 35.4855 57.4948 35.4855C57.056 35.4855 56.5259 35.7493 56.2621 36.2186C56.0846 36.5128 55.9984 36.9211 55.9984 37.0099V42.9958H58.8746V44.5228H55.9984V55.6728H54.5019V44.5228H52.1836V42.9958H54.4714V42.9984Z" fill="#A8A8A8"/>
<path d="M61.3679 33.9586H62.9836V55.6475H61.3679V33.9586Z" fill="#A8A8A8"/>
<path d="M68.7947 42.9984V50.3057C68.7947 50.6887 68.8251 51.0692 68.853 51.4522C68.9113 51.9519 69.0585 53.0958 70.2607 53.948C70.5245 54.1256 71.288 54.5644 72.1985 54.5644C73.6671 54.5644 74.9581 53.598 75.4274 52.1878C75.6328 51.5714 75.6328 51.1326 75.6633 50.5137V43.0009H77.1877V50.3387C77.1598 50.8967 77.2156 52.7737 75.9854 54.2397C75.5162 54.7977 74.1947 56.0025 72.1402 56.0025C71.4655 56.0025 69.7027 55.825 68.4117 54.2397C67.4428 53.0654 67.3844 51.716 67.2957 50.1891V42.9984H68.7921H68.7947Z" fill="#A8A8A8"/>
<path d="M81.2105 46.4327C82.3265 44.084 84.6448 42.6458 87.199 42.6458C87.9903 42.6458 89.8394 42.8208 91.5438 44.2894C92.2769 44.9058 93.8342 46.5189 93.8342 49.2506C93.8342 49.7199 93.7454 50.775 93.2483 51.9189C92.1627 54.326 89.8419 55.8225 87.2015 55.8225C86.4685 55.8225 84.8223 55.7058 83.1813 54.4731C81.421 53.1237 80.3938 50.8942 80.5992 48.6317C80.688 47.8683 80.8909 47.1353 81.2156 46.4301L81.2105 46.4327ZM82.3849 50.9221C83.1179 53.0045 85.0557 54.2981 87.2269 54.2981C87.6073 54.2981 88.4012 54.2676 89.3118 53.8593C91.0721 53.0958 92.3048 51.2163 92.3048 49.2506C92.3048 47.607 91.5134 46.4606 91.1304 45.9913C90.6612 45.4333 89.3093 44.1727 87.1964 44.1727C86.8439 44.1727 86.1387 44.2006 85.3169 44.5253C83.615 45.2 82.3519 46.8436 82.1464 48.6926C82.0577 49.4256 82.1464 50.2195 82.3823 50.9221H82.3849Z" fill="#A8A8A8"/>
<path d="M98.9982 42.9679V44.8753C99.9975 43.6426 100.906 42.5875 102.638 42.5875C103.138 42.5875 103.548 42.6762 104.018 42.7929L103.254 44.7891C102.843 44.642 102.432 44.5253 101.991 44.5253C100.728 44.5253 99.5841 45.6109 99.2036 46.7548C99.0286 47.3711 98.9982 48.1625 98.9982 48.2792V55.617H97.385V42.9679H98.9982Z" fill="#A8A8A8"/>
<path d="M106.658 49.309C106.658 49.9837 106.658 50.4529 106.833 51.0997C107.419 53.1237 109.299 54.4731 111.353 54.4731C111.589 54.4731 112.294 54.4452 112.969 54.2093C114.437 53.6792 115.17 52.5657 116.02 51.2443L117.369 51.8606C117.075 52.4465 116.695 53.0933 116.284 53.593C115.082 55.0616 113.113 55.9417 111.264 55.9417C110.825 55.9417 109.973 55.9112 108.946 55.4724C106.481 54.4148 105.042 51.9798 105.042 49.309C105.042 48.5455 105.159 46.9603 106.245 45.375C106.833 44.5253 108.416 42.7042 111.295 42.7042C111.997 42.7042 112.616 42.8208 112.85 42.9096C113.613 43.0846 115.668 43.876 116.695 46.0218C117.253 47.224 117.428 49.0147 117.486 49.2785L106.656 49.309H106.658ZM115.815 47.8987C115.64 47.3407 115.462 46.841 115.198 46.3439C114.407 44.9362 112.908 44.1423 111.325 44.1423C110.828 44.1423 109.534 44.2615 108.418 45.1112C107.48 45.8442 107.097 46.7852 106.658 47.9292L115.815 47.8987Z" fill="#A8A8A8"/>
<path d="M127.026 45.9913C126.878 45.8163 126.731 45.6108 126.587 45.4333C126.323 45.0807 125.529 44.1118 124.18 44.1118C123.83 44.1118 122.83 44.2006 122.272 45.0807C122.184 45.1974 121.978 45.5779 121.978 45.9913C122.009 46.4301 122.153 46.7548 122.447 47.1073C123.239 48.0737 124.296 48.2512 125.354 48.6621C125.882 48.8651 126.118 48.9843 126.381 49.1314C127.967 50.0698 128.23 51.4192 128.23 52.1548C128.23 52.4186 128.2 53.0045 127.878 53.6208C127.173 55.1477 125.501 55.9695 123.858 55.9695C123.152 55.9695 121.831 55.8224 120.482 54.7064C119.982 54.2676 119.366 53.5321 119.277 53.4458L120.451 52.3907C120.832 52.8599 121.917 54.3868 124.002 54.3868C125.265 54.3868 125.94 53.74 126.234 53.3012C126.556 52.8599 126.615 52.5073 126.615 52.2715C126.587 51.716 126.32 51.3025 126.204 51.1275C125.501 50.1586 124.619 50.0115 123.591 49.6615C122.917 49.4256 122.592 49.2506 122.328 49.1035C120.685 48.165 120.332 46.8435 120.332 46.0826C120.332 45.8188 120.39 45.2025 120.715 44.5557C121.418 43.2951 122.797 42.6483 124.208 42.6483C126.498 42.6483 127.7 44.3223 128.17 44.8499L127.023 45.9938L127.026 45.9913Z" fill="#A8A8A8"/>
<path d="M132.339 49.309C132.339 49.9837 132.339 50.4529 132.517 51.0997C133.103 53.1237 134.982 54.4731 137.037 54.4731C137.273 54.4731 137.975 54.4452 138.65 54.2093C140.118 53.6792 140.851 52.5657 141.704 51.2443L143.053 51.8606C142.759 52.4465 142.378 53.0933 141.967 53.593C140.765 55.0616 138.797 55.9417 136.948 55.9417C136.507 55.9417 135.657 55.9112 134.63 55.4724C132.164 54.4148 130.726 51.9798 130.726 49.309C130.726 48.5455 130.843 46.9603 131.928 45.375C132.517 44.5253 134.102 42.7042 136.976 42.7042C137.681 42.7042 138.297 42.8208 138.531 42.9096C139.294 43.0846 141.349 43.876 142.376 46.0218C142.934 47.224 143.109 49.0147 143.167 49.2785L132.337 49.309H132.339ZM141.498 47.8987C141.323 47.3407 141.146 46.841 140.882 46.3439C140.091 44.9362 138.591 44.1423 137.009 44.1423C136.509 44.1423 135.218 44.2615 134.102 45.1112C133.164 45.8442 132.781 46.7852 132.342 47.9292L141.498 47.8987Z" fill="#A8A8A8"/>
<path d="M147.956 42.9984V44.4948C147.984 44.4669 148.425 43.9368 148.778 43.6731C149.189 43.3205 150.305 42.6737 151.829 42.6737C152.329 42.6737 153.531 42.732 154.675 43.5843C154.733 43.6122 155.058 43.876 155.116 43.9343C155.322 44.1119 155.821 44.6394 156.085 45.3445C156.321 45.9609 156.407 46.3997 156.466 47.6628V55.617H155V47.7212C155 47.4878 154.969 47.2519 154.941 46.9881C154.825 45.9026 154.355 45.0503 153.386 44.5811C152.712 44.2285 152.065 44.2285 151.743 44.2285C150.246 44.2285 148.839 45.0224 148.309 46.3414C148.017 47.0465 147.986 47.9545 147.986 48.1904V55.6449H146.373V42.9958H147.959L147.956 42.9984Z" fill="#A8A8A8"/>
<path d="M171.202 45.7859C169.853 44.7866 168.881 44.1727 167.151 44.1727C166.183 44.1727 165.45 44.4061 165.125 44.5253C163.07 45.2888 161.807 47.0769 161.807 49.309C161.807 49.6894 161.835 50.4225 162.16 51.3051C163.276 54.1814 166.063 54.4756 167.032 54.4756C168.676 54.4756 169.792 53.8593 171.2 53.0958V54.9449C169.701 55.5308 168.557 56.0026 166.943 56.0026C166.444 56.0026 165.389 55.9721 164.214 55.4725C161.749 54.4148 160.252 52.0382 160.252 49.3394C160.252 48.576 160.369 46.9019 161.632 45.2888C162.249 44.467 164.009 42.6763 166.974 42.6763C168.587 42.6763 169.761 43.1759 171.2 43.7619V45.7859H171.202Z" fill="#A8A8A8"/>
<path d="M175.486 37.3345C175.575 37.3345 175.781 37.3624 175.986 37.4512C176.455 37.6567 176.78 38.2451 176.78 38.8006C176.78 39.564 176.133 40.1499 175.37 40.1499C174.606 40.1499 173.962 39.5336 173.962 38.7118C173.962 38.623 173.99 38.4176 174.079 38.1842C174.314 37.6846 174.931 37.3345 175.486 37.3345ZM176.133 42.9983V55.6753H174.548V42.9983H176.133Z" fill="#A8A8A8"/>
<path d="M191.014 42.9983H192.452V55.7058H190.986V53.7096C190.603 54.0622 190.223 54.4122 189.812 54.7368C189.196 55.2086 188.11 56 186.144 56C184.589 56 182.974 55.4699 181.83 54.501C179.834 52.8295 179.659 50.2753 179.659 49.3977C179.659 48.6342 179.806 46.6077 181.214 44.9362C181.802 44.2615 183.501 42.7346 186.114 42.7346C188.285 42.7346 189.431 43.6756 191.017 45.0528V42.9983H191.014ZM183.793 53.9759C184.173 54.1814 184.995 54.5339 186.17 54.5339C186.816 54.5339 188.693 54.3868 189.898 52.9487C190.72 51.9798 191.1 50.5416 191.1 49.1923C191.1 48.2538 190.953 46.0522 188.607 44.8499C188.227 44.6445 187.286 44.264 186.083 44.264C185.703 44.264 184.82 44.2919 183.912 44.7333C181.624 45.8188 181.241 48.3426 181.183 49.1644C181.125 50.1916 181.214 52.7153 183.796 53.9785L183.793 53.9759Z" fill="#A8A8A8"/>
<path d="M11 38.7321H14.6347V55.3152H11V38.7321Z" fill="#A8A8A8"/>
<path d="M40.7852 29.6467H44.4198V55.3152H40.7852V29.6467Z" fill="#A8A8A8"/>
<path d="M15.2537 46.0192H18.8883V55.3152H15.2537V46.0192Z" fill="#A8A8A8"/>
<path d="M19.5098 39.4702H23.1444V55.3152H19.5098V39.4702Z" fill="#A8A8A8"/>
<path d="M23.7632 25H27.3979V55.3152H23.7632V25Z" fill="#A8A8A8"/>
<path d="M28.0193 42.481H31.654V55.3152H28.0193V42.481Z" fill="#A8A8A8"/>
<path d="M36.5291 25H40.1637V55.3152H36.5291V25Z" fill="#A8A8A8"/>
<path d="M32.2754 36.1957H35.9075V55.3152H32.2754V36.1957Z" fill="#A8A8A8"/>
<path d="M45.0386 41.6896H48.6733V55.3152H45.0386V41.6896Z" fill="#A8A8A8"/>
</g>
<defs>
<clipPath id="clip0_1368_6955">
<rect width="181.45" height="31" fill="white" transform="translate(11 25)"/>
</clipPath>
</defs>
</svg>
