<svg width="22" height="33" viewBox="0 0 22 33" fill="none" xmlns="http://www.w3.org/2000/svg">
<path d="M21.9737 16.893C21.9737 16.0268 21.9035 15.1373 21.7864 14.2711C21.6694 13.405 21.4821 12.5389 21.2714 11.6961C20.8033 10.0107 20.0775 8.39543 19.1646 6.89724C19.0709 6.75679 18.9773 6.59292 18.8837 6.45247C18.9305 6.45247 19.0007 6.42906 19.0475 6.40565C19.188 6.35883 19.305 6.2886 19.4221 6.17156C19.5391 6.07792 19.6328 5.96087 19.703 5.82042C19.7733 5.70337 19.7967 5.56292 19.8435 5.44587C19.8435 5.32883 19.8903 5.21178 19.8903 5.07132C19.8903 4.60314 19.7732 4.18178 19.6562 3.80723C19.5157 3.43268 19.3519 3.05813 19.1412 2.68359C18.9305 2.33245 18.7198 1.98131 18.4623 1.67699C18.2048 1.34926 17.9239 1.04494 17.6196 0.787443C17.4557 0.646988 17.2919 0.529941 17.1046 0.412895C17.011 0.342667 16.9173 0.29585 16.8003 0.249031C16.7066 0.202213 16.5896 0.155394 16.4725 0.131985C16.0512 -0.00847045 15.583 -0.0318796 15.1382 0.038348C14.9275 0.0617572 14.7169 0.131985 14.5062 0.202213C14.2955 0.27244 14.1082 0.366076 13.9209 0.459713C13.5698 0.646987 13.2187 0.881079 12.9143 1.16199C12.7505 1.30244 12.61 1.4429 12.4696 1.58335C12.4227 1.63017 12.3994 1.67699 12.3525 1.7004C11.7907 1.63017 11.2289 1.58336 10.6436 1.60676C10.0818 1.60676 9.4966 1.67699 8.93478 1.77063C8.88796 1.72381 8.84113 1.67699 8.81773 1.65358C8.67727 1.51313 8.51341 1.37267 8.34955 1.25563C8.02182 0.998125 7.67069 0.787442 7.29614 0.600168C7.10887 0.506531 6.89819 0.436304 6.71091 0.366076C6.50023 0.295849 6.28954 0.249031 6.07885 0.225621C5.63408 0.178803 5.16591 0.225622 4.74455 0.389486C4.65091 0.436305 4.53385 0.483123 4.44022 0.529941C4.34658 0.57676 4.25295 0.646988 4.15932 0.693806C3.97204 0.810852 3.80818 0.951306 3.64431 1.09176C3.33999 1.37267 3.05907 1.67699 2.82498 2.02813C2.59089 2.35586 2.38019 2.707 2.19292 3.05813C2.00565 3.43268 1.84179 3.80723 1.72474 4.18178C1.58429 4.60314 1.53746 5.02451 1.53746 5.46928C1.53746 5.58633 1.56088 5.70337 1.58429 5.84383C1.6077 5.98428 1.65451 6.10133 1.72474 6.21837C1.79497 6.35883 1.8886 6.47588 2.00564 6.56951C2.12269 6.66315 2.26317 6.73338 2.40363 6.7802C2.47386 6.7802 2.54408 6.82701 2.6143 6.82701C2.52067 6.96747 2.42703 7.13133 2.3568 7.27179C1.51407 8.79339 0.882013 10.4554 0.484058 12.1409C0.10951 13.8498 -0.0543461 15.6055 0.0158806 17.3377C0.0861092 19.07 0.273378 20.8023 0.671335 22.5112C0.882019 23.3539 1.13952 24.1966 1.44384 25.016C1.74816 25.8353 2.1461 26.6312 2.59087 27.3803C3.03565 28.1294 3.57408 28.8551 4.18271 29.4871C4.79135 30.1426 5.49364 30.681 6.24273 31.1492C7.01524 31.6174 7.83453 31.9451 8.70067 32.1558C9.56681 32.3664 10.433 32.4367 11.3225 32.4133C12.2121 32.4133 13.0782 32.2728 13.9443 32.0387C14.8105 31.7812 15.6064 31.4067 16.3555 30.9151C17.1046 30.4235 17.7601 29.8383 18.3453 29.1594C18.9305 28.4805 19.4221 27.7548 19.8435 26.9823C20.2648 26.2098 20.616 25.3905 20.8969 24.5712C21.1778 23.7519 21.4119 22.8857 21.5757 22.043C21.9035 20.3341 22.0205 18.5784 21.9971 16.8461L21.9737 16.893Z" fill="#FF7BC9"/>
</svg>
