<svg width="56" height="38" viewBox="0 0 56 38" fill="none" xmlns="http://www.w3.org/2000/svg">
<path d="M23.3722 15.7186C23.0788 14.8263 22.7282 13.9535 22.3249 13.1048C21.5123 11.4075 20.4665 9.8335 19.2176 8.42957C18.9422 8.12109 18.6563 7.82165 18.3629 7.53274C18.2861 7.52822 18.2124 7.5222 18.1342 7.51468C18.0168 7.50415 17.9024 7.48458 17.7881 7.46803L17.454 7.40333C17.3427 7.38226 17.2313 7.34765 17.1215 7.32057C17.0116 7.29348 16.9018 7.25586 16.7919 7.22125C16.348 7.0783 15.9282 6.86613 15.5475 6.59377C15.5009 6.56067 15.4497 6.52305 15.4076 6.48392C15.3654 6.4448 15.3143 6.41019 15.2721 6.36956C15.1849 6.28831 15.1021 6.20404 15.0238 6.11376C14.926 6.00391 14.8403 5.88353 14.7605 5.75863C14.8282 5.81431 14.9185 5.8414 15.0103 5.82183C15.1533 5.79023 15.2481 5.66083 15.2405 5.51787H15.2511C15.3113 5.57957 15.3729 5.64126 15.4392 5.69844C15.5114 5.76315 15.5881 5.82334 15.6664 5.88052C15.7476 5.93469 15.8244 5.98886 15.9116 6.03701C16.2562 6.22812 16.6264 6.36806 17.0101 6.45684C17.1079 6.47941 17.2042 6.5065 17.3035 6.52004C17.4029 6.53358 17.5007 6.55916 17.6015 6.56819L17.9024 6.60581C18.0017 6.61484 18.0996 6.62387 18.1974 6.62688C18.3809 6.6359 18.566 6.62688 18.7481 6.6043C18.8279 6.59377 18.9076 6.57722 18.9859 6.55314C19.0491 6.53208 19.1077 6.50349 19.1634 6.46888C19.204 6.4433 19.2402 6.41019 19.2672 6.37107C19.2943 6.33194 19.3139 6.2868 19.3244 6.24015C19.338 6.17997 19.3425 6.11677 19.341 6.05507C19.3365 5.97833 19.3259 5.90159 19.3094 5.82635C19.2161 5.46521 19.0626 5.12212 18.858 4.80914C18.4261 4.12899 17.8949 3.51656 17.281 2.99441C16.983 2.73409 16.661 2.50235 16.3194 2.30222C16.1584 2.20893 15.9884 2.12767 15.8153 2.05996C15.7341 2.02836 15.6513 2.00127 15.5671 1.98021C15.4828 1.95914 15.397 1.94259 15.3097 1.93055C14.9622 1.87939 14.607 1.91099 14.273 2.02234C13.9194 2.14272 13.5853 2.31877 13.2874 2.54449C13.1294 2.66035 12.9804 2.78675 12.8374 2.92218C12.693 3.05911 12.553 3.20056 12.4176 3.35103C12.2837 3.50151 12.1558 3.65951 12.0324 3.82052C11.9722 3.90027 11.9105 3.98453 11.8548 4.06579C11.7992 4.14705 11.7375 4.23733 11.6923 4.30805L11.6246 4.27194C11.0889 4.27495 10.5532 4.3216 10.0236 4.41188V4.4495L10.0296 4.49314C10.0055 7.06175 10.3802 9.61982 11.1416 12.0756C11.5208 13.2974 12.0023 14.4847 12.5816 15.6253C12.8766 16.1911 13.179 16.7523 13.5206 17.291C13.8607 17.8282 14.2173 18.3564 14.6085 18.8575C14.9968 19.3571 15.4136 19.8341 15.856 20.287C16.2984 20.7354 16.7724 21.1477 17.2765 21.5239C17.7745 21.8971 18.3102 22.2161 18.876 22.4749C19.4298 22.7322 20.0196 22.9023 20.6245 22.9805L20.8487 23.0061C20.9195 23.0121 20.9992 23.0106 21.0744 23.0121C21.1497 23.0121 21.2234 23.0196 21.2987 23.0166L21.5229 23.0016C21.6718 22.9925 21.8208 22.9745 21.9683 22.9474L22.0796 22.9293L22.1789 22.9083C22.212 22.9008 22.2421 22.8857 22.2752 22.8797C22.3083 22.8692 22.3399 22.8586 22.3715 22.8451C22.4994 22.7939 22.6213 22.7292 22.7342 22.651C22.8516 22.5727 22.9614 22.4824 23.0607 22.3831C23.2684 22.1755 23.4474 21.9407 23.5919 21.6834C23.7409 21.4201 23.8658 21.1417 23.9636 20.8543C24.0614 20.5609 24.1381 20.2599 24.1953 19.9545C24.2314 19.7634 24.257 19.5677 24.2766 19.3736C24.2224 19.0636 24.1637 18.7552 24.096 18.4482C23.9079 17.5243 23.6656 16.6139 23.3707 15.7201L23.3722 15.7186Z" fill="#FF7BC9"/>
<path d="M29.1397 3.5466C27.6831 3.6429 26.7787 4.41333 26.3845 5.72397L26.24 5.68334C26.4176 4.89034 26.4988 4.26888 26.4778 3.85808L24.4945 3.9905L25.1536 13.8797L27.1158 13.7488L26.9819 11.7354C26.9307 10.959 26.7877 10.336 26.4868 9.49789L26.6177 9.43168C27.1805 10.6716 28.1872 11.3277 29.6498 11.2299C31.6737 11.0944 32.6533 9.74617 32.4892 7.27386L32.4772 7.09781C32.3132 4.63303 31.1606 3.41117 29.1382 3.54509L29.1397 3.5466ZM28.4821 4.86777C29.6964 4.78651 30.3901 5.55694 30.497 7.1595L30.518 7.48453C30.6249 9.09461 30.0395 9.95683 28.8252 10.0381C27.5642 10.1224 26.8178 9.30678 26.711 7.70272L26.6945 7.44842C26.5876 5.85187 27.2196 4.95203 28.4806 4.86777H28.4821Z" fill="#450351"/>
<path d="M35.3636 2.38676L35.2643 0.903076L33.1592 1.04302L33.2585 2.5267L35.3636 2.38676ZM35.8422 10.6855L35.3486 3.26854L33.3864 3.39946L33.88 10.8164L35.8422 10.6855Z" fill="#450351"/>
<path d="M39.1597 10.4642L38.9295 7.01686C38.8182 5.34959 39.4983 4.26166 40.7382 4.1789C41.6621 4.1172 42.1542 4.59571 42.2189 5.55574L42.5304 10.2385L44.4926 10.1076L44.148 4.92977C44.0442 3.37536 43.1202 2.61396 41.5011 2.7223C40.031 2.82011 39.0845 3.56496 38.5714 5.01704L38.4314 4.96287C38.6451 4.10366 38.7068 3.59656 38.6692 3.04582L36.6995 3.17673L37.193 10.5937L39.1552 10.4627L39.1597 10.4642Z" fill="#450351"/>
<path d="M47.7793 9.88922L47.6093 7.33265L48.4911 6.22365L50.5315 9.70564L52.575 9.57022L49.8047 5.00029L51.9866 2.15932L49.8619 2.30076L47.3896 5.55855L47.2707 5.50287C47.3775 4.65871 47.3926 4.06885 47.3309 3.14342L47.1217 0L45.1595 0.130913L45.8186 10.0201L47.7808 9.88922H47.7793Z" fill="#450351"/>
<path d="M32.1779 20.0131C33.6345 20.1139 34.6337 19.4729 35.201 18.227L35.3394 18.2857C35.0565 19.0471 34.8925 19.6535 34.8579 20.0613L36.8411 20.1982L37.5243 10.3105L35.5621 10.175L35.4237 12.1884C35.3695 12.9649 35.4282 13.6014 35.6118 14.4726L35.4733 14.5193C35.0821 13.2146 34.1747 12.4277 32.7106 12.3268C30.6882 12.1869 29.5341 13.3922 29.3625 15.8645L29.3505 16.0406C29.1805 18.5053 30.157 19.8717 32.1794 20.0116L32.1779 20.0131ZM33.007 18.7928C31.7927 18.7085 31.2149 17.8523 31.3262 16.2497L31.3488 15.9247C31.4602 14.3146 32.1508 13.5382 33.3637 13.6224C34.6322 13.7097 35.2536 14.6186 35.1423 16.2211L35.1242 16.4754C35.0144 18.072 34.274 18.8785 33.0055 18.7913L33.007 18.7928Z" fill="#450351"/>
<path d="M41.8789 20.7251C44.3271 20.8936 45.8665 19.6943 46.038 17.2085L46.0515 17.0113C46.2231 14.5255 44.8628 13.1261 42.4146 12.956C39.9528 12.786 38.421 13.9868 38.2494 16.4726L38.2359 16.6697C38.0643 19.1556 39.4171 20.555 41.8789 20.7251ZM41.9692 19.4249C40.7759 19.3422 40.1258 18.5462 40.2387 16.9135L40.2673 16.5042C40.3801 14.8731 41.1325 14.1719 42.3258 14.2546C43.513 14.3359 44.1631 15.1334 44.0502 16.7645L44.0216 17.1738C43.9088 18.805 43.1564 19.5062 41.9692 19.4234V19.4249Z" fill="#450351"/>
<path d="M50.03 19.2383C48.5449 18.9719 48.1988 18.7778 48.2228 18.4317C48.2409 18.1774 48.4516 18.057 48.9556 18.0345C49.3725 18.1699 49.869 18.2541 50.4288 18.2918C52.6543 18.4452 53.8852 17.6929 53.9921 16.146C54.0643 15.1002 53.5813 14.3508 52.5746 13.919C52.5565 13.3005 52.9282 13.2192 54.3983 13.2072L54.3005 11.5761C52.5415 11.5399 51.7515 12.3871 51.9245 13.7038C51.5784 13.6165 51.1887 13.5608 50.7568 13.5307C48.5253 13.3772 47.2809 14.1281 47.174 15.675C47.1153 16.5222 47.4223 17.1752 48.0829 17.6252L48.0739 17.7591C47.1891 17.8253 46.7361 18.1985 46.691 18.841C46.6489 19.4549 47.0251 19.8853 47.6886 20.1938L47.6796 20.3202C46.6669 20.4631 46.2411 20.9311 46.1914 21.6579C46.1026 22.9429 47.1846 23.5644 49.9563 23.7555C52.8695 23.9572 54.0763 23.3522 54.1877 21.7407C54.296 20.1652 52.9959 19.7559 51.5167 19.4986L50.0315 19.2322L50.03 19.2383ZM50.6816 14.6142C51.6657 14.6819 52.1021 15.1303 52.0419 16.0136C51.9802 16.9029 51.4866 17.2806 50.5025 17.2129C49.5049 17.1436 49.061 16.7012 49.1227 15.8119C49.1844 14.9286 49.6839 14.5449 50.6831 14.6142H50.6816ZM50.1474 22.5397C48.3462 22.4148 47.6721 22.0777 47.7233 21.3434C47.7503 20.9401 47.9866 20.6663 48.6216 20.5037C48.8217 20.5534 49.0354 20.5955 49.2626 20.6332L50.7629 20.8784C52.2706 21.1237 52.6272 21.3479 52.5941 21.8279C52.552 22.4283 51.8929 22.6601 50.1459 22.5382L50.1474 22.5397Z" fill="#450351"/>
<path d="M7.01978 13.3956C6.46152 13.3534 5.93787 13.8485 5.61735 14.6234C6.12445 14.6069 6.58491 14.953 6.69626 15.4661C6.82115 16.0439 6.454 16.6142 5.87617 16.7391C5.68206 16.7813 5.48795 16.7662 5.31189 16.7075C5.40518 17.8978 5.94388 18.8127 6.65714 18.8653C7.50431 18.93 8.27173 17.7563 8.37255 16.2456C8.47337 14.7348 7.86696 13.4588 7.01978 13.3941V13.3956Z" fill="#450351"/>
<path d="M16.8865 13.6903C17.0114 14.2681 16.6443 14.8384 16.0664 14.9633C15.9987 14.9783 15.931 14.9858 15.8633 14.9874C16.4441 16.0888 17.3485 16.7389 18.0392 16.4816C18.8352 16.1866 19.0428 14.7993 18.5041 13.3848C17.9639 11.9703 16.8805 11.0645 16.083 11.3594C15.5759 11.5475 15.3081 12.181 15.3201 12.9815C15.4089 12.9319 15.5082 12.8942 15.612 12.8717C16.1898 12.7468 16.7601 13.1139 16.885 13.6918L16.8865 13.6903Z" fill="#450351"/>
<path d="M24.3952 15.3726C24.0777 14.4382 23.7 13.5248 23.2651 12.6385C22.3803 10.8719 21.2503 9.23774 19.9095 7.78867C19.7756 7.64421 19.6387 7.50427 19.5003 7.36282C19.5574 7.33875 19.6146 7.30865 19.6673 7.27705C19.8102 7.19128 19.9351 7.07993 20.0374 6.94902C20.1413 6.8151 20.2165 6.66312 20.2617 6.5006C20.3038 6.35314 20.3249 6.19965 20.3249 6.04767C20.3249 5.90924 20.3128 5.7708 20.2887 5.63387C20.1879 5.11473 19.9773 4.68286 19.7455 4.27809C19.5108 3.88234 19.2414 3.50615 18.942 3.15554C18.6456 2.80794 18.325 2.48292 17.9805 2.18347C17.6314 1.8765 17.2522 1.60565 16.8474 1.37542C16.6367 1.25504 16.417 1.15121 16.1898 1.06544C16.0709 1.0203 15.949 0.982681 15.8256 0.954091C15.7023 0.9255 15.5759 0.902929 15.4495 0.889386C14.9424 0.829196 14.4292 0.886377 13.9492 1.05942C13.7175 1.14218 13.4933 1.24601 13.2811 1.3694C13.0765 1.49129 12.8793 1.62822 12.6943 1.77869C12.3346 2.07212 12.0096 2.40467 11.7252 2.77183C11.5838 2.9509 11.4498 3.13447 11.3264 3.32558C11.2918 3.37975 11.2587 3.43543 11.2241 3.4911C10.5846 3.52571 9.94809 3.61148 9.32211 3.74841C9.23333 3.76647 9.14455 3.78904 9.05577 3.81011C8.51557 3.935 7.9859 4.09752 7.46977 4.29915C7.4156 4.26304 7.35992 4.22391 7.30424 4.18931C7.11314 4.06592 6.91451 3.95456 6.71288 3.84923C6.30208 3.63255 5.86721 3.46402 5.41879 3.34664C5.18706 3.28645 4.95232 3.24282 4.71457 3.21573C4.46929 3.19015 4.22251 3.18865 3.97874 3.20971C3.47014 3.25034 2.97809 3.40984 2.54171 3.67468C2.43337 3.74089 2.33104 3.81462 2.23173 3.89437C2.13091 3.97262 2.03611 4.05689 1.94583 4.14717C1.77428 4.31871 1.61629 4.5038 1.47484 4.70092C1.20097 5.07711 0.966233 5.48038 0.77513 5.90472C0.584026 6.32003 0.426028 6.74889 0.301133 7.18827C0.173229 7.63067 0.0829443 8.0836 0.0332876 8.54255C-0.0269025 9.02858 -0.00583596 9.52214 0.0994966 10.0022C0.134106 10.1361 0.179248 10.267 0.234924 10.3934C0.298124 10.5333 0.380885 10.6627 0.478694 10.7801C0.587036 10.9095 0.719454 11.0164 0.868424 11.0961C1.01589 11.1729 1.17539 11.2225 1.34092 11.2421C1.41766 11.2526 1.49591 11.2556 1.57415 11.2526C1.50644 11.4392 1.44023 11.6258 1.37703 11.8139C0.760082 13.6858 0.412485 15.6375 0.344771 17.6102C0.293609 19.5784 0.489227 21.5466 0.928614 23.4667C1.36349 25.3687 1.94884 27.2481 2.76441 29.0388C3.1722 29.9341 3.64018 30.8023 4.16383 31.6345C4.68748 32.4741 5.28186 33.2656 5.93944 34.0044C6.60153 34.7478 7.34337 35.4159 8.14991 35.9967C8.96248 36.5791 9.85028 37.0486 10.7862 37.3946C11.7267 37.7407 12.7138 37.9424 13.713 37.9905C14.7061 38.0312 15.7008 37.9424 16.6698 37.7257C17.6449 37.5286 18.5884 37.202 19.4777 36.7551C20.37 36.2992 21.1886 35.7093 21.9033 35.0051C22.6166 34.3039 23.2335 33.5094 23.7376 32.6426C24.2372 31.7789 24.6405 30.864 24.9399 29.9115C25.1641 29.1983 25.3417 28.473 25.4726 27.7372C25.5147 27.4979 25.5539 27.2571 25.5855 27.0149C25.7224 26.0383 25.7916 25.0527 25.7931 24.0656C25.7961 22.0943 25.5584 20.1367 25.1626 18.2226C24.964 17.2581 24.7067 16.3071 24.3937 15.3726H24.3952ZM11.6289 4.27508L11.6966 4.31119C11.7418 4.23896 11.8019 4.14868 11.8591 4.06893C11.9148 3.98767 11.978 3.90491 12.0367 3.82365C12.1601 3.66264 12.288 3.50464 12.4219 3.35417C12.5558 3.20369 12.6958 3.06375 12.8417 2.92531C12.9832 2.78989 13.1336 2.66349 13.2916 2.54762C13.5911 2.32191 13.9236 2.14585 14.2773 2.02547C14.6113 1.91412 14.9664 1.88252 15.314 1.93368C15.4013 1.94572 15.4871 1.96227 15.5713 1.98334C15.6556 2.00441 15.7384 2.03149 15.8196 2.06309C15.9942 2.13081 16.1627 2.21206 16.3237 2.30536C16.6653 2.50549 16.9858 2.73722 17.2853 2.99754C17.8977 3.51969 18.4289 4.13212 18.8622 4.81227C19.0669 5.12376 19.2189 5.46834 19.3137 5.82948C19.3302 5.90472 19.3407 5.98146 19.3453 6.05821C19.3468 6.1199 19.3423 6.1831 19.3287 6.24329C19.3197 6.28994 19.3001 6.33508 19.2715 6.3742C19.2444 6.41333 19.2083 6.44643 19.1677 6.47201C19.112 6.50662 19.0518 6.53521 18.9901 6.55628C18.9134 6.58035 18.8336 6.59691 18.7524 6.60744C18.5703 6.63152 18.3852 6.63904 18.2017 6.63001C18.1053 6.627 18.006 6.61797 17.9067 6.60894L17.6058 6.57133C17.505 6.5623 17.4071 6.53672 17.3078 6.52317C17.2085 6.50963 17.1122 6.48255 17.0144 6.45997C16.6307 6.3727 16.2605 6.23125 15.9159 6.04015C15.8287 5.992 15.7519 5.93783 15.6707 5.88365C15.5909 5.82647 15.5157 5.76628 15.4434 5.70158C15.3772 5.6444 15.3155 5.5827 15.2553 5.518C15.2523 5.51349 15.2478 5.51048 15.2433 5.50747C15.2433 5.49693 15.2433 5.4864 15.2403 5.47587C15.2177 5.37053 15.1395 5.29078 15.0432 5.25918C14.995 5.24414 14.9439 5.23962 14.8912 5.25015C14.7347 5.28476 14.6339 5.43825 14.6655 5.59474C14.6655 5.59625 14.6655 5.59775 14.6655 5.59926C14.6685 5.6143 14.6745 5.62935 14.679 5.64289C14.6971 5.68954 14.7272 5.73017 14.7633 5.76177C14.843 5.88666 14.9288 6.00554 15.0266 6.11689C15.1049 6.20567 15.1876 6.29144 15.2749 6.3727C15.317 6.41333 15.3682 6.44794 15.4103 6.48706C15.4525 6.52618 15.5036 6.5638 15.5503 6.59691C15.931 6.86927 16.3508 7.08144 16.7947 7.22439C16.9031 7.259 17.0129 7.29812 17.1242 7.3237C17.2341 7.34928 17.3454 7.3854 17.4568 7.40646L17.7909 7.47117C17.9052 7.48922 18.0196 7.50728 18.1369 7.51781C18.2152 7.52534 18.2889 7.53136 18.3657 7.53587C18.6591 7.82478 18.9435 8.12272 19.2204 8.4327C20.4693 9.83664 21.5166 11.4106 22.3277 13.108C22.7325 13.9551 23.0831 14.8294 23.375 15.7217C23.6714 16.6155 23.9137 17.5274 24.1003 18.4498C24.1665 18.7568 24.2267 19.0653 24.2808 19.3753C24.2613 19.5709 24.2357 19.765 24.1996 19.9561C24.1439 20.2616 24.0657 20.561 23.9679 20.8559C23.87 21.1433 23.7452 21.4217 23.5962 21.685C23.4517 21.9424 23.2727 22.1771 23.065 22.3848C22.9657 22.4841 22.8558 22.5744 22.7385 22.6526C22.6256 22.7308 22.5037 22.7956 22.3758 22.8467C22.3442 22.8603 22.3126 22.8708 22.2795 22.8813C22.2464 22.8888 22.2163 22.9039 22.1832 22.9099L22.0839 22.931L21.9726 22.949C21.8251 22.9776 21.6776 22.9957 21.5272 23.0032L21.3029 23.0183C21.2262 23.0213 21.1525 23.0137 21.0787 23.0137C21.0035 23.0137 20.9252 23.0137 20.853 23.0077L20.6288 22.9821C20.0239 22.9039 19.434 22.7339 18.8803 22.4765C18.3145 22.2177 17.7788 21.8987 17.2807 21.5255C16.7767 21.1494 16.3012 20.7371 15.8603 20.2886C15.4179 19.8357 15.001 19.3587 14.6128 18.8591C14.2216 18.358 13.865 17.8314 13.5249 17.2927C13.1848 16.7555 12.8824 16.1927 12.5859 15.6269C12.0081 14.4863 11.5266 13.2991 11.1459 12.0772C10.3845 9.62296 10.0098 7.06488 10.0339 4.49477L10.0293 4.45113V4.41351C10.556 4.32323 11.0917 4.27658 11.6289 4.27357V4.27508ZM13.9297 35.0608C13.2706 35.4535 12.3813 35.3316 12.1435 34.9223C11.9058 34.5131 12.3798 33.8359 13.0389 33.4432C13.6979 33.0519 14.5286 32.9015 14.7678 33.3138C15.0056 33.7261 14.5902 34.6695 13.9297 35.0623V35.0608ZM24.4539 27.7372C24.344 28.3752 24.2026 29.0057 24.0175 29.6241C23.7587 30.5149 23.4021 31.3741 22.9567 32.1867C22.5323 32.9526 22.0102 33.6568 21.4083 34.2888C21.4173 34.1323 21.4053 33.9743 21.3707 33.8148C21.0065 32.1295 18.301 31.1063 15.3757 31.7383C12.449 32.3718 10.4101 34.4167 10.7757 36.1066C10.8118 36.2751 10.872 36.4316 10.9503 36.5746C10.1317 36.248 9.35823 35.8177 8.64799 35.294C7.90013 34.7403 7.21546 34.1053 6.60604 33.4025C5.37967 31.9956 4.4091 30.3539 3.63867 28.6355C2.86824 26.9171 2.30546 25.0933 1.89166 23.241L1.81642 22.8934L1.7487 22.5458L1.67949 22.1982C1.6539 22.0838 1.62983 21.9679 1.61629 21.8506L1.50794 21.1524C1.47634 20.9191 1.45227 20.6844 1.42368 20.4496C1.32436 19.5137 1.28524 18.5717 1.30631 17.6297C1.35295 15.7488 1.66143 13.8844 2.2227 12.0892C2.34459 11.7025 2.47851 11.3188 2.62748 10.9396C2.6967 10.9035 2.76592 10.8659 2.83363 10.8268C2.93595 10.7681 3.03226 10.7064 3.12856 10.6417L3.40543 10.4446C3.49873 10.3799 3.5845 10.3031 3.67328 10.2324C3.76206 10.1617 3.84783 10.0834 3.9321 10.0052C4.27819 9.69067 4.57463 9.32352 4.80937 8.91874C4.84097 8.86908 4.86354 8.81341 4.89213 8.76074C4.92072 8.70807 4.9463 8.65541 4.96887 8.60124C5.01401 8.49139 5.05464 8.38004 5.08925 8.26568C5.13439 8.11971 5.16599 7.97074 5.18706 7.82027C5.20361 7.77964 5.21114 7.736 5.20813 7.69237C5.20813 7.68183 5.20662 7.6728 5.20512 7.66227C5.20512 7.65776 5.20512 7.65174 5.20361 7.64722C5.169 7.48922 5.01251 7.38841 4.85451 7.42151C4.80335 7.43204 4.75971 7.45612 4.7236 7.48922C4.68447 7.52383 4.65588 7.56747 4.63933 7.61562C4.62278 7.66378 4.61826 7.71795 4.6303 7.77212C4.63331 7.78416 4.63783 7.79469 4.64084 7.80522C4.64084 7.80974 4.63783 7.81275 4.63632 7.81726C4.60924 7.90002 4.57764 7.98128 4.54152 8.06103C4.5024 8.14981 4.45726 8.23709 4.4091 8.32135C4.35794 8.40411 4.30678 8.48687 4.2511 8.56512C4.01486 8.88112 3.73648 9.16251 3.42349 9.40176C3.34374 9.46346 3.267 9.52515 3.18273 9.58083C3.09847 9.6365 3.01871 9.69368 2.93144 9.74786L2.67262 9.91037C2.58685 9.95852 2.49957 10.0082 2.4138 10.0518C2.24979 10.1361 2.07674 10.2068 1.90068 10.261C1.82394 10.2851 1.74419 10.3016 1.66293 10.3121C1.59672 10.3182 1.53051 10.3182 1.46581 10.3091C1.41766 10.3031 1.37252 10.2881 1.33189 10.2625C1.29126 10.2384 1.25515 10.2053 1.22656 10.1662C1.19044 10.1165 1.15884 10.0623 1.13477 10.0052C1.10768 9.93294 1.08511 9.85921 1.06856 9.78397C1.00536 9.41681 1.00084 9.04062 1.05802 8.67196C1.17088 7.87294 1.40111 7.09648 1.74419 6.36818C1.90821 6.00855 2.10533 5.66396 2.33255 5.34044C2.44089 5.18846 2.56127 5.04551 2.69218 4.91159C2.75237 4.84989 2.81708 4.79121 2.88479 4.73703C2.9525 4.68286 3.02473 4.6317 3.09847 4.58505C3.3934 4.39395 3.73046 4.27658 4.07956 4.24047C4.45124 4.20435 4.82742 4.22692 5.19308 4.30818C5.38418 4.34881 5.57378 4.40148 5.75886 4.46618C5.94696 4.52787 6.13355 4.60161 6.31713 4.68286C6.50071 4.76412 6.68278 4.85591 6.86185 4.95071C6.94912 4.99886 7.0364 5.04852 7.12518 5.09968C7.21245 5.15084 7.30274 5.20802 7.37346 5.25316L7.41409 5.19899C7.94527 4.96124 8.4945 4.77014 9.05728 4.62267C9.20023 4.58505 9.34318 4.54894 9.48613 4.51885C9.55987 4.50229 9.62608 4.48875 9.69529 4.4737L9.71486 4.46919C9.65467 5.76177 9.70583 7.10551 9.86383 8.39057C9.94057 9.03761 10.0429 9.68315 10.1723 10.3242C10.3002 10.9637 10.4552 11.6017 10.6433 12.2292C11.0089 13.4872 11.4799 14.7135 12.0502 15.8933C12.3406 16.4801 12.6521 17.0579 12.9967 17.6192C13.3413 18.179 13.707 18.7252 14.1072 19.2473C14.5075 19.771 14.9363 20.2706 15.3923 20.7446C15.8542 21.2201 16.3523 21.661 16.8805 22.0612C17.4132 22.4675 17.9895 22.8151 18.5959 23.098C19.2143 23.3869 19.8734 23.575 20.5491 23.6578L20.8049 23.6849C20.8906 23.6909 20.9764 23.6894 21.0622 23.6924C21.148 23.6954 21.2352 23.6969 21.321 23.6924L21.5783 23.6728C21.7499 23.6593 21.9214 23.6367 22.0914 23.6006L22.2193 23.578L22.3548 23.5434C22.3999 23.5329 22.4435 23.5148 22.4887 23.4998C22.5338 23.4862 22.5775 23.4697 22.6196 23.4501C22.7896 23.3794 22.9506 23.2906 23.0996 23.1838C23.2471 23.08 23.384 22.9611 23.5104 22.8302C23.7527 22.5759 23.9588 22.2885 24.1243 21.977C24.2899 21.6565 24.4238 21.3194 24.5216 20.9718C24.6585 21.9995 24.7308 23.0333 24.7383 24.0701C24.7443 25.2995 24.6615 26.5334 24.4554 27.7402L24.4539 27.7372ZM14.6941 5.68051C14.6941 5.68051 14.7618 5.79036 14.7814 5.81895C14.8069 5.85506 14.8987 5.9604 14.8987 5.9604L15.5909 5.82647C15.3742 5.66095 15.1967 5.37956 15.1967 5.37956L14.6941 5.68051Z" fill="#450351"/>
<path d="M30.2942 23.5253C28.189 23.6517 26.5759 25.6169 26.6903 27.9117C26.8047 30.2064 28.6028 31.964 30.708 31.8376L52.1687 30.5901C54.2739 30.4622 55.887 28.5 55.7726 26.2038C55.6583 23.909 53.8601 22.1515 51.7549 22.2779L30.2942 23.5253Z" fill="#E8FF48"/>
<path d="M28.5003 28.3422L29.5476 28.2128C29.2918 29.1638 29.7011 29.6408 30.3647 29.6167C30.8282 29.6002 31.1547 29.397 31.1487 28.9847C31.1472 28.6793 30.9907 28.4596 30.5182 28.0999L30.0502 27.7448C29.5838 27.3852 29.2933 27.0361 29.2979 26.535C29.2994 25.6833 29.9283 25.107 31.1457 25.0619C32.4443 25.0137 33.2027 25.6547 32.9017 26.8269L31.8499 26.9368C32.0982 26.1347 31.7476 25.7315 31.1367 25.754C30.6356 25.7721 30.4008 26.0008 30.3933 26.3499C30.3933 26.6133 30.5001 26.7818 30.9817 27.1264L31.4632 27.4725C31.9402 27.8231 32.2833 28.2023 32.2773 28.8147C32.2712 29.6709 31.6001 30.2788 30.3738 30.324C28.9367 30.3766 28.0941 29.6619 28.4988 28.3437L28.5003 28.3422Z" fill="#450351"/>
<path d="M33.5309 28.7109L34.4503 25.8865L33.7491 25.9121L34.0229 25.0559L34.7241 25.0303L35.1274 23.7828L36.3824 23.4834L35.8978 24.9881L37.2055 24.94L36.9271 25.7962L35.624 25.8444L34.7362 28.577C34.5992 29.0164 34.7512 29.2406 35.1756 29.2255C35.3712 29.218 35.6089 29.1714 35.8391 29.0675L35.5457 29.9192C35.2508 30.0727 34.9423 30.1509 34.6173 30.163C33.6347 30.1991 33.2269 29.6604 33.5309 28.7124V28.7109Z" fill="#450351"/>
<path d="M41.9544 24.764L40.3157 29.8425L39.1841 29.8846C39.2308 29.5912 39.4354 29.1924 39.8282 28.565L39.7454 28.5108C39.0277 29.5355 38.4814 29.996 37.708 30.0246C36.8292 30.0562 36.4274 29.5024 36.7615 28.4732L37.9111 24.9129L39.0803 24.8693L37.9397 28.3994C37.7727 28.9171 37.9171 29.1894 38.3415 29.1729C38.9765 29.1488 39.6732 28.2159 40.0464 27.0692L40.7807 24.8061L41.9544 24.7625V24.764Z" fill="#450351"/>
<path d="M42.0236 27.1744L42.1094 26.9081C42.5909 25.4334 43.3734 24.6254 44.3319 24.5893C45.1715 24.5577 45.5914 25.0347 45.6124 25.8939L45.7223 25.8849C45.7689 25.2092 45.8487 24.7804 46.0037 24.3019L46.4446 22.9235L47.6183 22.8799L45.4349 29.6513L44.3229 29.6919C44.362 29.4421 44.526 29.1156 44.9233 28.4941L44.83 28.4354C44.1995 29.3518 43.724 29.8002 42.946 29.8288C41.8491 29.8694 41.4593 28.8989 42.0206 27.1729L42.0236 27.1744ZM45.012 27.361L45.1279 26.9984C45.4755 25.915 45.2393 25.3356 44.5606 25.3612C44.0219 25.3808 43.5916 25.9029 43.2741 26.881L43.1446 27.2768C42.7414 28.5302 43.0092 29.0448 43.5916 29.0238C44.1453 29.0027 44.7081 28.3135 45.012 27.361Z" fill="#450351"/>
<path d="M46.4656 29.6152L48.1043 24.5367L49.278 24.4931L47.6393 29.5716L46.4656 29.6152ZM48.2577 23.9197L48.5798 22.9236L49.8437 22.877L49.5217 23.8731L48.2577 23.9197Z" fill="#450351"/>
<path d="M49.4511 26.5862L49.4857 26.4794C49.9447 25.0619 50.7347 24.3216 51.8181 24.2809C53.383 24.2238 54.0647 25.4697 53.4899 27.2588L53.4552 27.3657C53.0008 28.7786 52.2153 29.5235 51.1319 29.5641C49.5564 29.6228 48.8748 28.3769 49.4496 26.5862H49.4511ZM52.2891 27.3326L52.4817 26.7186C52.8157 25.6789 52.5825 25.0514 51.8286 25.08C51.3035 25.0995 50.989 25.4983 50.6579 26.514L50.4743 27.0888C50.1267 28.1677 50.375 28.7892 51.1379 28.7606C51.6526 28.741 51.964 28.3483 52.2891 27.3326Z" fill="#450351"/>
</svg>
